<svg width="20" height="20" viewBox="0 0 20 20" fill="none" xmlns="http://www.w3.org/2000/svg">
<path d="M10.987 15.4264L10.4463 11.8396C10.3697 11.3316 10.0717 10.8642 9.60841 10.5254C9.14512 10.1867 8.54842 9.9998 7.93053 10H6.06863C5.45102 10.0001 4.85474 10.1872 4.3918 10.5259C3.92886 10.8646 3.63113 11.3318 3.55455 11.8396L3.01304 15.4264C2.98332 15.6235 3.00454 15.8235 3.07528 16.0132C3.14603 16.203 3.26468 16.3781 3.42336 16.5269C3.58204 16.6757 3.77711 16.7949 3.99563 16.8765C4.21415 16.958 4.45111 17.0001 4.69078 17H9.31006C9.54966 17 9.78653 16.9579 10.0049 16.8763C10.2234 16.7946 10.4183 16.6755 10.5769 16.5267C10.7355 16.3778 10.8541 16.2028 10.9248 16.0131C10.9955 15.8234 11.0167 15.6234 10.987 15.4264Z" stroke="#FF8B77" stroke-width="1.5" stroke-linecap="round" stroke-linejoin="round"/>
<path d="M10.3918 10.5259C10.8547 10.1872 11.451 10.0001 12.0686 10H13.9305C14.5484 9.9998 15.1451 10.1867 15.6084 10.5254C16.0717 10.8642 16.3697 11.3316 16.4463 11.8396L16.9869 15.4264C17.0166 15.6234 16.9954 15.8234 16.9248 16.0131C16.8541 16.2028 16.7355 16.3778 16.5769 16.5267C16.4183 16.6755 16.2233 16.7946 16.0049 16.8763C15.7865 16.9579 15.5496 17 15.31 17H10.6908C10.4511 17.0001 10.2141 16.958 9.99561 16.8765" stroke="#FF8B77" stroke-width="1.5" stroke-linecap="round" stroke-linejoin="round"/>
<path d="M7 8C8.10457 8 9 7.10457 9 6C9 4.89543 8.10457 4 7 4C5.89543 4 5 4.89543 5 6C5 7.10457 5.89543 8 7 8Z" stroke="#FF8B77" stroke-width="1.5"/>
<path d="M13 8C14.1046 8 15 7.10457 15 6C15 4.89543 14.1046 4 13 4C11.8954 4 11 4.89543 11 6C11 7.10457 11.8954 8 13 8Z" stroke="#FF8B77" stroke-width="1.5"/>
</svg>
