<svg width="20" height="20" viewBox="0 0 20 20" fill="none" xmlns="http://www.w3.org/2000/svg">
<path d="M4.79711 9.91785C4.57135 7.86926 5.17754 6.34522 6.14937 5.33154C7.13347 4.30507 8.54252 3.75 10.0002 3.75C11.4579 3.75 12.8667 4.30506 13.8507 5.33151C14.8225 6.34518 15.4286 7.86924 15.2029 9.91788C15.0363 11.4304 14.2242 12.8666 13.2152 14.0987C12.2124 15.3232 11.065 16.2855 10.3277 16.8454C10.1287 16.9966 9.87139 16.9966 9.67232 16.8454C8.93508 16.2855 7.78771 15.3232 6.78491 14.0987C5.77593 12.8666 4.9638 11.4304 4.79711 9.91785Z" stroke="#FF8B77" stroke-width="1.5"/>
<circle cx="10" cy="9" r="2" fill="#FF8B77"/>
</svg>
