<svg width="48" height="48" viewBox="0 0 48 48" fill="none" xmlns="http://www.w3.org/2000/svg">
<path d="M24.2431 15.6923C25.1507 15.6923 26.2885 15.0598 26.9661 14.2165C27.5797 13.4522 28.0272 12.3849 28.0272 11.3175C28.0272 11.1726 28.0144 11.0276 27.9888 10.9091C26.9789 10.9486 25.7644 11.6074 25.0357 12.4903C24.4604 13.1623 23.9363 14.2165 23.9363 15.297C23.9363 15.4551 23.9618 15.6132 23.9746 15.6659C24.0385 15.6791 24.1408 15.6923 24.2431 15.6923ZM21.0471 31.6363C22.2871 31.6363 22.8368 30.7798 24.3837 30.7798C25.9561 30.7798 26.3013 31.61 27.682 31.61C29.0371 31.61 29.9448 30.3186 30.8013 29.0537C31.7601 27.6042 32.1564 26.1811 32.182 26.1152C32.0925 26.0889 29.4973 24.9952 29.4973 21.925C29.4973 19.2632 31.5428 18.0641 31.6579 17.9719C30.3027 15.969 28.2445 15.9163 27.682 15.9163C26.1607 15.9163 24.9206 16.865 24.1408 16.865C23.2971 16.865 22.1848 15.969 20.8681 15.969C18.3624 15.969 15.8184 18.1036 15.8184 22.1358C15.8184 24.6394 16.7644 27.2879 17.9277 29.0009C18.9249 30.4504 19.7942 31.6363 21.0471 31.6363Z" fill="white"/>
</svg>
