<svg width="48" height="48" viewBox="0 0 48 48" fill="none" xmlns="http://www.w3.org/2000/svg">
<path fill-rule="evenodd" clip-rule="evenodd" d="M34.0805 24.2389C34.0805 23.4944 34.0137 22.7785 33.8896 22.0912H24.0005V26.1528H29.6514C29.408 27.4653 28.6682 28.5773 27.5562 29.3219V31.9564H30.9496C32.935 30.1285 34.0805 27.4366 34.0805 24.2389Z" fill="#4285F4"/>
<path fill-rule="evenodd" clip-rule="evenodd" d="M23.9999 34.4999C26.8349 34.4999 29.2117 33.5596 30.949 31.956L27.5556 29.3215C26.6153 29.9515 25.4126 30.3237 23.9999 30.3237C21.2651 30.3237 18.9503 28.4767 18.1247 25.9949H14.6167V28.7153C16.3444 32.1469 19.8953 34.4999 23.9999 34.4999Z" fill="#34A853"/>
<path fill-rule="evenodd" clip-rule="evenodd" d="M18.1248 25.9946C17.9148 25.3646 17.7955 24.6917 17.7955 23.9996C17.7955 23.3076 17.9148 22.6346 18.1248 22.0046V19.2842H14.6168C13.9057 20.7017 13.5 22.3053 13.5 23.9996C13.5 25.694 13.9057 27.2976 14.6168 28.7151L18.1248 25.9946Z" fill="#FBBC05"/>
<path fill-rule="evenodd" clip-rule="evenodd" d="M23.9999 17.6761C25.5415 17.6761 26.9256 18.2059 28.0137 19.2464L31.0253 16.2348C29.2069 14.5405 26.8301 13.5 23.9999 13.5C19.8953 13.5 16.3444 15.853 14.6167 19.2845L18.1247 22.005C18.9503 19.5232 21.2651 17.6761 23.9999 17.6761Z" fill="#EA4335"/>
</svg>
