<svg width="24" height="24" viewBox="0 0 24 24" fill="none" xmlns="http://www.w3.org/2000/svg">
<mask id="path-1-inside-1_959_15590" fill="white">
<path d="M4 4C4 2.89543 4.89543 2 6 2H18C19.1046 2 20 2.89543 20 4V21.1476C20 21.9431 19.1164 22.4201 18.4513 21.9837L12.5487 18.1101C12.2155 17.8915 11.7845 17.8915 11.4513 18.1101L5.54866 21.9837C4.88365 22.4201 4 21.9431 4 21.1476V4Z"/>
</mask>
<path d="M4 4C4 2.89543 4.89543 2 6 2H18C19.1046 2 20 2.89543 20 4V21.1476C20 21.9431 19.1164 22.4201 18.4513 21.9837L12.5487 18.1101C12.2155 17.8915 11.7845 17.8915 11.4513 18.1101L5.54866 21.9837C4.88365 22.4201 4 21.9431 4 21.1476V4Z" fill="#FF8B77"/>
<path d="M12.5487 18.1101L13.3716 16.856L12.5487 18.1101ZM11.4513 18.1101L12.2743 19.3641L11.4513 18.1101ZM5.54866 21.9837L4.72567 20.7296L5.54866 21.9837ZM18.4513 21.9837L19.2743 20.7296L18.4513 21.9837ZM6 3.5H18V0.5H6V3.5ZM18.5 4V21.1476H21.5V4H18.5ZM5.5 21.1476V4H2.5V21.1476H5.5ZM19.2743 20.7296L13.3716 16.856L11.7257 19.3641L17.6284 23.2378L19.2743 20.7296ZM10.6284 16.856L4.72567 20.7296L6.37164 23.2378L12.2743 19.3641L10.6284 16.856ZM13.3716 16.856C12.5389 16.3095 11.4611 16.3095 10.6284 16.856L12.2743 19.3641C12.1078 19.4734 11.8922 19.4734 11.7257 19.3641L13.3716 16.856ZM2.5 21.1476C2.5 23.1362 4.70913 24.3288 6.37164 23.2378L4.72567 20.7296C5.05817 20.5114 5.5 20.7499 5.5 21.1476H2.5ZM18.5 21.1476C18.5 20.7499 18.9418 20.5114 19.2743 20.7296L17.6284 23.2378C19.2909 24.3288 21.5 23.1362 21.5 21.1476H18.5ZM18 3.5C18.2761 3.5 18.5 3.72386 18.5 4H21.5C21.5 2.067 19.933 0.5 18 0.5V3.5ZM6 0.5C4.067 0.5 2.5 2.067 2.5 4H5.5C5.5 3.72386 5.72386 3.5 6 3.5V0.5Z" fill="#2A2E37" mask="url(#path-1-inside-1_959_15590)"/>
<path d="M8 9.25C7.58579 9.25 7.25 9.58579 7.25 10C7.25 10.4142 7.58579 10.75 8 10.75V9.25ZM16 10.75C16.4142 10.75 16.75 10.4142 16.75 10C16.75 9.58579 16.4142 9.25 16 9.25V10.75ZM8 10.75H16V9.25H8V10.75Z" fill="#2A2E37"/>
<path d="M11.25 14C11.25 14.4142 11.5858 14.75 12 14.75C12.4142 14.75 12.75 14.4142 12.75 14H11.25ZM12.75 6C12.75 5.58579 12.4142 5.25 12 5.25C11.5858 5.25 11.25 5.58579 11.25 6H12.75ZM12.75 14V6H11.25V14H12.75Z" fill="#2A2E37"/>
</svg>
