<svg width="24" height="24" viewBox="0 0 24 24" fill="none" xmlns="http://www.w3.org/2000/svg">
<circle cx="12" cy="19" r="2" fill="#FF8B77"/>
<path d="M18 9.6C18 8.11479 17.3679 6.69041 16.2426 5.6402C15.1174 4.59 13.5913 4 12 4C10.4087 4 8.88258 4.59 7.75736 5.6402C6.63214 6.69041 6 8.11479 6 9.6C6 16.1333 3 18 3 18H21C21 18 18 16.1333 18 9.6Z" fill="#FF8B77" stroke="#2A2E37" stroke-width="1.5" stroke-linecap="round" stroke-linejoin="round"/>
<path d="M10 19C10 19.2626 10.0517 19.5227 10.1522 19.7654C10.2528 20.008 10.4001 20.2285 10.5858 20.4142C10.7715 20.5999 10.992 20.7472 11.2346 20.8478C11.4773 20.9483 11.7374 21 12 21C12.2626 21 12.5227 20.9483 12.7654 20.8478C13.008 20.7472 13.2285 20.5999 13.4142 20.4142C13.5999 20.2285 13.7472 20.008 13.8478 19.7654C13.9483 19.5227 14 19.2626 14 19" stroke="#2A2E37" stroke-width="1.5" stroke-linecap="round"/>
</svg>
