<svg width="24" height="24" viewBox="0 0 24 24" fill="none" xmlns="http://www.w3.org/2000/svg">
<path d="M5.46967 17.4697C5.17678 17.7626 5.17678 18.2374 5.46967 18.5303C5.76256 18.8232 6.23744 18.8232 6.53033 18.5303L5.46967 17.4697ZM18.5304 6.53029C18.8233 6.2374 18.8233 5.76252 18.5304 5.46963C18.2375 5.17674 17.7626 5.17674 17.4697 5.46963L18.5304 6.53029ZM6.53033 18.5303L18.5304 6.53029L17.4697 5.46963L5.46967 17.4697L6.53033 18.5303Z" fill="#2A2E37"/>
<path d="M17.4697 18.5304C17.7626 18.8233 18.2375 18.8233 18.5304 18.5304C18.8233 18.2375 18.8233 17.7626 18.5304 17.4697L17.4697 18.5304ZM6.53033 5.46967C6.23744 5.17678 5.76256 5.17678 5.46967 5.46967C5.17678 5.76256 5.17678 6.23744 5.46967 6.53033L6.53033 5.46967ZM18.5304 17.4697L6.53033 5.46967L5.46967 6.53033L17.4697 18.5304L18.5304 17.4697Z" fill="#2A2E37"/>
</svg>
