<svg width="20" height="20" viewBox="0 0 20 20" fill="none" xmlns="http://www.w3.org/2000/svg">
    <circle cx="10" cy="10" r="8.25" fill="#FF8B77" stroke="#FF8B77" stroke-width="1.5"/>
    <path d="M6.03033 8.96967C5.73744 8.67678 5.26256 8.67678 4.96967 8.96967C4.67678 9.26256 4.67678 9.73744 4.96967 10.0303L6.03033 8.96967ZM9 13L8.46967 13.5303C8.61867 13.6793 8.82348 13.7588 9.03399 13.7492C9.24449 13.7397 9.44127 13.642 9.57617 13.4801L9 13ZM14.5762 7.48014C14.8413 7.16193 14.7983 6.68901 14.4801 6.42383C14.1619 6.15866 13.689 6.20165 13.4238 6.51986L14.5762 7.48014ZM4.96967 10.0303L8.46967 13.5303L9.53033 12.4697L6.03033 8.96967L4.96967 10.0303ZM9.57617 13.4801L14.5762 7.48014L13.4238 6.51986L8.42383 12.5199L9.57617 13.4801Z" fill="white"/>
</svg>
