<svg width="24" height="24" viewBox="0 0 24 24" fill="none" xmlns="http://www.w3.org/2000/svg">
<g clip-path="url(#clip0_183_4432)">
<path d="M23.855 10.4799H22.7066C22.425 11.719 21.778 12.845 20.8493 13.7122C20.8877 13.7673 20.9199 13.8175 20.9558 13.8639C21.2213 14.2023 21.3759 14.6144 21.3983 15.0439C21.4207 15.4735 21.3098 15.8994 21.0808 16.2636C20.8518 16.6277 20.5159 16.9121 20.1191 17.078C19.7222 17.2439 19.2838 17.2832 18.8638 17.1904C18.7542 17.1668 18.6781 17.1365 18.6075 17.282C18.1166 18.3041 17.2319 18.7239 16.1311 18.4756C16.1087 18.4732 16.086 18.4732 16.0636 18.4756C15.5318 19.6934 14.4706 20.042 13.4349 19.7875C13.3816 19.894 13.3309 20.0054 13.2721 20.1125C13.1205 20.385 12.9096 20.62 12.6549 20.7999C12.4003 20.9798 12.1084 21.1 11.8009 21.1518C11.4934 21.2035 11.1782 21.1854 10.8787 21.0987C10.5792 21.012 10.303 20.8591 10.0707 20.6512C9.99018 20.5793 9.91279 20.5026 9.83664 20.4264C7.60002 18.1877 5.36402 15.9503 3.12864 13.7141C2.24641 12.8381 1.61183 11.8295 1.31466 10.6186C1.30135 10.5763 1.28543 10.535 1.26699 10.4947H0.143311V9.09804H1.12459C1.17226 7.14352 1.92943 5.54438 3.42766 4.24487H0.143311V2.85127C0.218841 2.84693 0.299325 2.83951 0.380428 2.83951C2.64326 2.83951 4.90609 2.84446 7.16892 2.83951C9.00395 2.83331 10.5839 3.44066 11.8822 4.75254C11.9033 4.7746 11.9259 4.79528 11.9496 4.81445C11.9605 4.82121 11.9724 4.82603 11.9849 4.82869C12.3124 4.55443 12.6232 4.26407 12.9644 4.01581C14.1178 3.17816 15.4234 2.83331 16.8375 2.83951C19.0774 2.84755 21.3167 2.83951 23.5566 2.83951C23.6563 2.83951 23.7554 2.82712 23.855 2.82031V4.2133C23.7634 4.22011 23.6693 4.23249 23.5802 4.23249C22.6721 4.23249 21.7629 4.23249 20.8524 4.23249H20.5317C21.2957 4.87946 21.859 5.59143 22.2547 6.43155C22.6419 7.26394 22.8466 8.1695 22.8552 9.08751H23.855V10.4799ZM11.0129 5.89231C10.9914 5.85437 10.9678 5.81758 10.9424 5.78211C9.46084 4.16563 6.95966 3.76569 5.03919 4.83798C2.17583 6.43713 1.65455 10.2471 3.98176 12.5997C5.56131 14.1916 7.14477 15.7786 8.73216 17.3606C9.46394 18.094 10.1961 18.8269 10.9287 19.5591C11.1659 19.7956 11.4859 19.8513 11.7571 19.7176C11.8923 19.6556 12.0022 19.5492 12.0683 19.416C12.1345 19.2828 12.1529 19.1309 12.1205 18.9858C12.0703 18.8095 11.9761 18.6489 11.8469 18.519C10.9591 17.6138 10.0595 16.7205 9.16429 15.8228C9.10672 15.7652 9.05223 15.7039 9.03119 15.6816L10.0063 14.696L13.4293 18.1258C13.4912 18.1877 13.5476 18.2497 13.615 18.3035C13.7083 18.3854 13.822 18.4406 13.944 18.4634C14.066 18.4862 14.1919 18.4757 14.3085 18.433C14.425 18.3903 14.528 18.317 14.6064 18.2208C14.6848 18.1246 14.7359 18.009 14.7542 17.8862C14.7994 17.6182 14.6842 17.4089 14.4979 17.2232C13.6831 16.4109 12.8698 15.596 12.058 14.7783C11.6921 14.4131 11.325 14.049 10.9789 13.7042L11.9614 12.7173C12.0072 12.7607 12.0691 12.8176 12.1286 12.8771C13.4448 14.1949 14.761 15.5136 16.0772 16.8331C16.1348 16.8962 16.1969 16.9549 16.263 17.009C16.5013 17.1848 16.7582 17.2182 17.0232 17.0746C17.2783 16.9359 17.4244 16.7062 17.3705 16.4251C17.3288 16.2248 17.2321 16.04 17.0913 15.8915C15.7683 14.5474 14.4292 13.2157 13.0993 11.8803C13.0417 11.8227 12.9879 11.7614 12.9613 11.7323L13.9382 10.7535C13.958 10.7721 14.0001 10.8086 14.036 10.8464L17.7878 14.6056C18.1265 14.9449 18.462 15.2866 18.8044 15.6228C19.104 15.915 19.5244 15.9224 19.8018 15.6494C20.0791 15.3764 20.0773 14.9461 19.7801 14.6341C19.7528 14.6056 19.7256 14.579 19.6984 14.5511L14.1264 8.9705C14.0732 8.91726 14.0168 8.86711 13.9376 8.79158C13.8757 8.86526 13.8255 8.9346 13.7655 8.99403C13.2522 9.50789 12.7545 10.0397 12.2177 10.5288C11.9999 10.7271 11.7421 10.8766 11.4617 10.9671C11.1814 11.0576 10.8849 11.0871 10.5922 11.0536C10.2995 11.0202 10.0173 10.9245 9.76463 10.773C9.51195 10.6215 9.29459 10.4177 9.12715 10.1753C8.56995 9.38654 8.6201 8.2932 9.28997 7.58618C9.84159 7.00299 10.4341 6.45818 11.0129 5.89231ZM19.8531 12.7421C21.0592 11.585 21.6188 10.2038 21.4275 8.57861C21.1997 6.64948 20.1528 5.26702 18.3425 4.57362C16.5323 3.88022 14.8242 4.18296 13.3767 5.47689C12.3124 6.42784 11.3417 7.48403 10.3332 8.49751C10.2488 8.57876 10.1882 8.68144 10.1577 8.79455C10.1273 8.90765 10.1282 9.02691 10.1604 9.13952C10.3016 9.69362 10.938 9.8484 11.3652 9.42493C12.1725 8.62504 12.9749 7.82021 13.7723 7.01042C13.8299 6.95222 13.8553 6.86121 13.9029 6.77144L19.8531 12.7421Z" fill="#BBBBBB"/>
<path d="M7.22368 2.81217C5.41379 2.6796 3.98276 3.77262 3.21939 4.4164L0.0876465 4.89858V2.41544L1.63259 0.870117C4.41923 1.50469 9.03357 2.94475 7.22368 2.81217Z" fill="white"/>
<path d="M2.09147 12.4225C1.32977 11.4172 1.0673 9.68076 1.12778 8.91573C0.901054 8.41033 0.365985 7.5295 0.0395289 8.04933C-0.286927 8.56916 0.175552 10.6918 0.447599 11.6882C1.2486 12.3668 2.85317 13.4279 2.09147 12.4225Z" fill="white"/>
<path d="M16.7036 2.81217C18.5135 2.6796 19.9445 3.77262 20.7079 4.4164L23.8396 4.89858V2.41544L22.2947 0.870117C19.508 1.50469 14.8937 2.94475 16.7036 2.81217Z" fill="white"/>
<path d="M21.8851 12.4706C22.6469 11.4653 22.9121 9.62825 22.8516 8.86322C23.0783 8.35783 23.5613 7.52908 23.8877 8.04891C24.2142 8.56874 24.0422 10.6374 23.7701 11.6338C22.9691 12.3125 21.1234 13.476 21.8851 12.4706Z" fill="white"/>
</g>
<defs>
<clipPath id="clip0_183_4432">
<rect width="24" height="24" fill="white"/>
</clipPath>
</defs>
</svg>
