<svg width="24" height="24" viewBox="0 0 24 24" fill="none" xmlns="http://www.w3.org/2000/svg">
<path d="M14.317 12.4363L17.7792 15.9463C18.1595 16.3363 18.92 16.1963 19.4804 15.6363C20.0407 15.0763 20.1708 14.3063 19.7805 13.9163L14.9174 8.99631L11.6652 5.68631C11.1428 5.15538 10.5198 4.7337 9.83257 4.44586C9.14537 4.15802 8.40772 4.00977 7.66259 4.00977C6.91747 4.00977 6.17979 4.15802 5.49259 4.44586C4.80539 4.7337 4.18241 5.15538 3.65996 5.68631C2.59592 6.77219 2 8.2315 2 9.75131C2 11.2711 2.59592 12.7304 3.65996 13.8163L10.4744 20.7163C10.6058 20.8214 10.7566 20.8997 10.9183 20.9465C11.0799 20.9934 11.2492 21.0079 11.4165 20.9893C11.5838 20.9708 11.7457 20.9195 11.8932 20.8383C12.0406 20.7571 12.1705 20.6477 12.2756 20.5163C12.5366 20.2946 12.7027 19.9814 12.7399 19.6411C12.7771 19.3008 12.6826 18.9592 12.4758 18.6863L9.47378 15.6863L12.886 19.1363C13.0174 19.2415 13.1682 19.3197 13.3299 19.3665C13.4915 19.4134 13.6608 19.4279 13.8281 19.4093C13.9954 19.3908 14.1573 19.3394 14.3047 19.2583C14.4522 19.1771 14.5821 19.0677 14.6872 18.9363C14.9481 18.7145 15.1143 18.4014 15.1515 18.0611C15.1887 17.7208 15.0942 17.3791 14.8873 17.1063L11.4851 13.6563L15.2876 17.5063C15.419 17.6115 15.5698 17.6897 15.7314 17.7365C15.8931 17.7834 16.0624 17.7979 16.2297 17.7794C16.3969 17.7608 16.5589 17.7094 16.7063 17.6283C16.8537 17.5471 16.9837 17.4377 17.0888 17.3063C17.354 17.0874 17.5234 16.7737 17.5607 16.4319C17.5981 16.0902 17.5006 15.7473 17.2889 15.4763L13.4864 11.6163" fill="#FF8B77"/>
<path d="M14.317 12.4363L17.7792 15.9463C18.1595 16.3363 18.92 16.1963 19.4804 15.6363C20.0407 15.0763 20.1708 14.3063 19.7805 13.9163L14.9174 8.99631L11.6652 5.68631C11.1428 5.15538 10.5198 4.7337 9.83257 4.44586C9.14537 4.15802 8.40772 4.00977 7.66259 4.00977C6.91747 4.00977 6.17979 4.15802 5.49259 4.44586C4.80539 4.7337 4.18241 5.15538 3.65996 5.68631C2.59592 6.77219 2 8.2315 2 9.75131C2 11.2711 2.59592 12.7304 3.65996 13.8163L10.4744 20.7163C10.6058 20.8214 10.7566 20.8997 10.9183 20.9465C11.0799 20.9934 11.2492 21.0079 11.4165 20.9893C11.5838 20.9708 11.7457 20.9195 11.8932 20.8383C12.0406 20.7571 12.1705 20.6477 12.2756 20.5163C12.5366 20.2946 12.7027 19.9814 12.7399 19.6411C12.7771 19.3008 12.6826 18.9592 12.4758 18.6863L9.47378 15.6863L12.886 19.1363C13.0174 19.2415 13.1682 19.3197 13.3299 19.3665C13.4915 19.4134 13.6608 19.4279 13.8281 19.4093C13.9954 19.3908 14.1573 19.3394 14.3047 19.2583C14.4522 19.1771 14.5821 19.0677 14.6872 18.9363C14.9481 18.7145 15.1143 18.4014 15.1515 18.0611C15.1887 17.7208 15.0942 17.3791 14.8873 17.1063L11.4851 13.6563L15.2876 17.5063C15.419 17.6115 15.5698 17.6897 15.7314 17.7365C15.8931 17.7834 16.0624 17.7979 16.2297 17.7794C16.3969 17.7608 16.5589 17.7094 16.7063 17.6283C16.8537 17.5471 16.9837 17.4377 17.0888 17.3063C17.354 17.0874 17.5234 16.7737 17.5607 16.4319C17.5981 16.0902 17.5006 15.7473 17.2889 15.4763L13.4864 11.6163" stroke="#2A2E37" stroke-width="1.5" stroke-miterlimit="10"/>
<path d="M20.3399 13.8065C21.4039 12.7207 21.9998 11.2614 21.9998 9.74155C21.9998 8.22173 21.4039 6.76242 20.3399 5.67654C19.8174 5.14561 19.1944 4.72394 18.5072 4.4361C17.82 4.14825 17.0823 4 16.3372 4C15.5921 4 14.8544 4.14825 14.1672 4.4361C13.48 4.72394 12.857 5.14561 12.3346 5.67654L8.43204 9.59656C8.27283 9.84246 8.20281 10.1355 8.23369 10.4268C8.26457 10.718 8.39449 10.9899 8.60173 11.197C8.80897 11.4041 9.08099 11.5339 9.37244 11.5648C9.66389 11.5956 9.95712 11.5257 10.2032 11.3665L13.7655 7.80655L19.8495 13.9766L20.0096 14.1465L20.3399 13.8065Z" fill="#FF8B77" stroke="#2A2E37" stroke-width="1.5" stroke-miterlimit="10"/>
</svg>
