<svg width="24" height="24" viewBox="0 0 24 24" fill="none" xmlns="http://www.w3.org/2000/svg">
<path d="M2.75 20V13.6782C2.75 13.0995 2.97292 12.5431 3.37245 12.1246L11.0903 4.03919C11.584 3.52197 12.4102 3.52353 12.902 4.0426L20.6334 12.2035C21.0293 12.6215 21.25 13.1753 21.25 13.751V20C21.25 20.6904 20.6904 21.25 20 21.25H15.7778C15.0874 21.25 14.5278 20.6904 14.5278 20V15.8413C14.5278 14.4452 13.3961 13.3135 12 13.3135C10.6039 13.3135 9.47222 14.4452 9.47222 15.8413V20C9.47222 20.6904 8.91258 21.25 8.22222 21.25H4C3.30964 21.25 2.75 20.6904 2.75 20Z" stroke="#2A2E37" stroke-width="1.5" stroke-linejoin="round"/>
</svg>
