<svg width="101" height="101" viewBox="0 0 101 101" fill="none" xmlns="http://www.w3.org/2000/svg">
<path d="M85.7002 71.7893C86.2402 71.7893 86.7074 71.9243 87.102 72.1943C87.4966 72.4642 87.6939 72.9004 87.6939 73.5026V92.5982C87.6939 93.2004 87.4966 93.6365 87.102 93.9065C86.7074 94.1765 86.2402 94.3115 85.7002 94.3115C85.1603 94.3115 84.693 94.1765 84.2984 93.9065C83.9038 93.6365 83.7065 93.2004 83.7065 92.5982V73.5026C83.7065 72.9004 83.9038 72.4642 84.2984 72.1943C84.693 71.9243 85.1603 71.7893 85.7002 71.7893Z" fill="#FF8B77"/>
<path d="M79.6479 71.9763C80.1256 71.9763 80.4786 72.1425 80.7071 72.4747C80.9355 72.807 81.0497 73.2016 81.0497 73.6585C81.0497 74.1154 80.9355 74.5099 80.7071 74.8422C80.4786 75.1745 80.1256 75.3406 79.6479 75.3406H74.29V92.5983C74.29 93.2005 74.0927 93.6366 73.6981 93.9066C73.3035 94.1766 72.8362 94.3116 72.2963 94.3116C71.7563 94.3116 71.2891 94.1766 70.8945 93.9066C70.4999 93.6366 70.3026 93.2005 70.3026 92.5983V75.3406H64.9135C64.4359 75.3406 64.0828 75.1745 63.8544 74.8422C63.6259 74.5099 63.5117 74.1154 63.5117 73.6585C63.5117 73.2016 63.6259 72.807 63.8544 72.4747C64.0828 72.1425 64.4359 71.9763 64.9135 71.9763H79.6479Z" fill="#FF8B77"/>
<path d="M54.0377 71.9763C56.4259 71.9763 58.2015 72.4332 59.3645 73.347C60.5275 74.24 61.109 75.6314 61.109 77.5212V77.895C61.109 78.4142 61.0467 78.9126 60.9221 79.3902C60.7975 79.8679 60.5898 80.3144 60.299 80.7297C60.0291 81.1243 59.6656 81.4774 59.2088 81.7889C58.7726 82.0796 58.2223 82.3081 57.5578 82.4742C58.2431 82.578 58.8661 82.7546 59.4268 83.0038C59.9875 83.253 60.4652 83.5956 60.8598 84.0317C61.2751 84.4471 61.5866 84.9559 61.7943 85.5581C62.0227 86.1396 62.137 86.8353 62.137 87.6453V88.1437C62.137 90.0335 61.5555 91.508 60.3925 92.5671C59.2295 93.6055 57.4332 94.1247 55.0034 94.1247H47.9633C46.9664 94.1247 46.2707 93.9377 45.8761 93.5639C45.5023 93.1901 45.3154 92.5152 45.3154 91.5391V74.5618C45.3154 73.5858 45.5023 72.9108 45.8761 72.537C46.2707 72.1632 46.9664 71.9763 47.9633 71.9763H54.0377ZM49.2716 90.8227H52.8851C53.7573 90.8227 54.5153 90.7915 55.1591 90.7292C55.8237 90.6669 56.3636 90.5319 56.779 90.3242C57.2151 90.0958 57.537 89.7739 57.7447 89.3586C57.9523 88.9432 58.0562 88.3929 58.0562 87.7076V87.3026C58.0562 86.7834 57.9731 86.3265 57.807 85.932C57.6408 85.5374 57.3501 85.2155 56.9347 84.9663C56.5194 84.7171 55.9587 84.5302 55.2526 84.4056C54.5465 84.281 53.6639 84.2186 52.6048 84.2186H49.2716V90.8227ZM49.2716 80.9789H52.5113C53.4251 80.9789 54.1727 80.9374 54.7542 80.8543C55.3564 80.7505 55.8237 80.5844 56.156 80.3559C56.509 80.1275 56.7478 79.8264 56.8724 79.4526C56.997 79.0787 57.0593 78.6011 57.0593 78.0196V77.7392C57.0593 76.7424 56.6855 76.0882 55.9379 75.7767C55.2111 75.4445 54.0065 75.2783 52.3244 75.2783H49.2716V80.9789Z" fill="#FF8B77"/>
<path d="M27.4601 71.7893C27.9377 71.7893 28.405 71.9347 28.8619 72.2254C29.3188 72.4954 29.6407 72.973 29.8276 73.6584L33.8772 88.2993L37.8334 73.1599C37.9787 72.5992 38.2591 72.215 38.6744 72.0074C39.1106 71.7997 39.5882 71.7478 40.1074 71.8516C40.6473 71.9554 41.0315 72.215 41.26 72.6304C41.5092 73.025 41.5507 73.5026 41.3846 74.0633L36.2447 92.4424C36.0578 93.1277 35.7359 93.6158 35.279 93.9065C34.8221 94.1765 34.3548 94.3115 33.8772 94.3115C33.3995 94.3115 32.9323 94.1765 32.4754 93.9065C32.0185 93.6158 31.6966 93.107 31.5097 92.3801L27.4289 77.1473L23.1613 92.4424C22.9744 93.1277 22.6421 93.6158 22.1644 93.9065C21.7075 94.1765 21.2403 94.3115 20.7626 94.3115C20.2642 94.3115 19.7866 94.1765 19.3297 93.9065C18.8728 93.6158 18.5509 93.1173 18.364 92.4112L13.3487 74.2502C13.1826 73.648 13.2241 73.1392 13.4733 72.7238C13.7433 72.3085 14.1586 72.0281 14.7193 71.8828C15.2385 71.7582 15.7266 71.7685 16.1834 71.9139C16.6611 72.0593 16.983 72.4539 17.1491 73.0976L20.9807 88.3305L25.0615 73.6584C25.2484 72.973 25.5703 72.4954 26.0271 72.2254C26.484 71.9347 26.9617 71.7893 27.4601 71.7893Z" fill="#FF8B77"/>
<rect x="24.3398" y="6.6355" width="52.9347" height="52.9347" rx="5.16837" fill="#FF8B77"/>
<mask id="mask0_49_1782" style="mask-type:alpha" maskUnits="userSpaceOnUse" x="24" y="6" width="54" height="54">
<rect x="24.3398" y="6.6355" width="52.9347" height="52.9347" fill="#D9D9D9"/>
</mask>
<g mask="url(#mask0_49_1782)">
<path d="M41.4658 26.4769L48.3368 41.9922C48.7358 42.8933 49.9604 43.0387 50.5822 42.2742C58.1757 32.938 76.1486 15.7302 97.5143 9.74927" stroke="white" stroke-width="5.16837" stroke-linecap="round"/>
</g>
</svg>
