<svg width="24" height="24" viewBox="0 0 24 24" fill="none" xmlns="http://www.w3.org/2000/svg">
<circle cx="12" cy="12" r="11" fill="#FF8B77"/>
<path fill-rule="evenodd" clip-rule="evenodd" d="M11.8546 2.97015C6.94787 2.97015 2.97015 6.94787 2.97015 11.8546V12.1454C2.97015 17.0521 6.94787 21.0299 11.8546 21.0299H12.1454C17.0521 21.0299 21.0299 17.0521 21.0299 12.1454V11.8546C21.0299 6.94787 17.0521 2.97015 12.1454 2.97015H11.8546ZM1 11.8546C1 5.85979 5.85979 1 11.8546 1H12.1454C18.1402 1 23 5.85979 23 11.8546V12.1454C23 18.1402 18.1402 23 12.1454 23H11.8546C5.85979 23 1 18.1402 1 12.1454V11.8546Z" fill="#FF8B77"/>
<path fill-rule="evenodd" clip-rule="evenodd" d="M12.0007 7.0918C12.5447 7.0918 12.9858 7.53283 12.9858 8.07687V15.926C12.9858 16.4701 12.5447 16.9111 12.0007 16.9111C11.4567 16.9111 11.0156 16.4701 11.0156 15.926V8.07687C11.0156 7.53283 11.4567 7.0918 12.0007 7.0918Z" fill="white"/>
<path fill-rule="evenodd" clip-rule="evenodd" d="M7.0918 12.0007C7.0918 11.4567 7.53283 11.0156 8.07687 11.0156H15.926C16.4701 11.0156 16.9111 11.4567 16.9111 12.0007C16.9111 12.5447 16.4701 12.9858 15.926 12.9858H8.07687C7.53283 12.9858 7.0918 12.5447 7.0918 12.0007Z" fill="white"/>
</svg>
