<svg width="20" height="20" viewBox="0 0 20 20" fill="none" xmlns="http://www.w3.org/2000/svg">
<mask id="path-1-inside-1_211_7927" fill="white">
<path fill-rule="evenodd" clip-rule="evenodd" d="M17.1274 13.637C17.6853 12.5458 18 11.3097 18 10C18 5.58172 14.4183 2 10 2C5.58172 2 2 5.58172 2 10C2 14.4183 5.58172 18 10 18C11.3097 18 12.5458 17.6853 13.637 17.1274L17.2646 17.8529C17.6144 17.9229 17.9229 17.6144 17.8529 17.2646L17.1274 13.637Z"/>
</mask>
<path fill-rule="evenodd" clip-rule="evenodd" d="M17.1274 13.637C17.6853 12.5458 18 11.3097 18 10C18 5.58172 14.4183 2 10 2C5.58172 2 2 5.58172 2 10C2 14.4183 5.58172 18 10 18C11.3097 18 12.5458 17.6853 13.637 17.1274L17.2646 17.8529C17.6144 17.9229 17.9229 17.6144 17.8529 17.2646L17.1274 13.637Z" fill="#FF8B77"/>
<path d="M17.1274 13.637L15.7918 12.9541L15.5541 13.4191L15.6565 13.9311L17.1274 13.637ZM13.637 17.1274L13.9311 15.6565L13.4191 15.5541L12.9541 15.7918L13.637 17.1274ZM17.2646 17.8529L17.5587 16.382L17.5587 16.382L17.2646 17.8529ZM17.8529 17.2646L19.3238 16.9704L19.3238 16.9704L17.8529 17.2646ZM16.5 10C16.5 11.0668 16.2442 12.0694 15.7918 12.9541L18.4629 14.3198C19.1264 13.0222 19.5 11.5525 19.5 10H16.5ZM10 3.5C13.5899 3.5 16.5 6.41015 16.5 10H19.5C19.5 4.75329 15.2467 0.5 10 0.5V3.5ZM3.5 10C3.5 6.41015 6.41015 3.5 10 3.5V0.5C4.75329 0.5 0.5 4.75329 0.5 10H3.5ZM10 16.5C6.41015 16.5 3.5 13.5899 3.5 10H0.5C0.5 15.2467 4.75329 19.5 10 19.5V16.5ZM12.9541 15.7918C12.0694 16.2442 11.0668 16.5 10 16.5V19.5C11.5525 19.5 13.0222 19.1264 14.3198 18.4629L12.9541 15.7918ZM17.5587 16.382L13.9311 15.6565L13.3428 18.5983L16.9704 19.3238L17.5587 16.382ZM16.382 17.5587C16.2421 16.859 16.859 16.2421 17.5587 16.382L16.9704 19.3238C18.3698 19.6037 19.6037 18.3698 19.3238 16.9704L16.382 17.5587ZM15.6565 13.9311L16.382 17.5587L19.3238 16.9704L18.5983 13.3428L15.6565 13.9311Z" fill="#FF8B77" mask="url(#path-1-inside-1_211_7927)"/>
</svg>
