<svg width="20" height="20" viewBox="0 0 20 20" fill="none" xmlns="http://www.w3.org/2000/svg">
<mask id="path-1-inside-1_185_14369" fill="white">
<path fill-rule="evenodd" clip-rule="evenodd" d="M17.1274 13.6369C17.6853 12.5458 18 11.3096 18 9.99995C18 5.5817 14.4183 2 10.0001 2C5.58182 2 2.00012 5.5817 2.00012 9.99995C2.00012 14.4182 5.58182 17.9999 10.0001 17.9999C11.3097 17.9999 12.5458 17.6852 13.6369 17.1274L17.2646 17.8529C17.6144 17.9229 17.9229 17.6144 17.8529 17.2646L17.1274 13.6369Z"/>
</mask>
<path d="M17.1274 13.6369L15.7919 12.9541L15.5541 13.419L15.6565 13.9311L17.1274 13.6369ZM13.6369 17.1274L13.931 15.6565L13.419 15.5541L12.954 15.7918L13.6369 17.1274ZM17.2646 17.8529L16.9704 19.3238H16.9704L17.2646 17.8529ZM17.8529 17.2646L19.3238 16.9704V16.9704L17.8529 17.2646ZM16.5 9.99995C16.5 11.0667 16.2442 12.0694 15.7919 12.9541L18.4629 14.3198C19.1264 13.0222 19.5 11.5525 19.5 9.99995H16.5ZM10.0001 3.5C13.5899 3.5 16.5 6.41013 16.5 9.99995H19.5C19.5 4.75327 15.2468 0.5 10.0001 0.5V3.5ZM3.50012 9.99995C3.50012 6.41013 6.41025 3.5 10.0001 3.5V0.5C4.7534 0.5 0.500122 4.75327 0.500122 9.99995H3.50012ZM10.0001 16.4999C6.41025 16.4999 3.50012 13.5898 3.50012 9.99995H0.500122C0.500122 15.2466 4.7534 19.4999 10.0001 19.4999V16.4999ZM12.954 15.7918C12.0694 16.2441 11.0668 16.4999 10.0001 16.4999V19.4999C11.5525 19.4999 13.0221 19.1264 14.3197 18.4629L12.954 15.7918ZM17.5587 16.3821L13.931 15.6565L13.3427 18.5983L16.9704 19.3238L17.5587 16.3821ZM16.3821 17.5587C16.2421 16.859 16.859 16.2421 17.5587 16.3821L16.9704 19.3238C18.3698 19.6037 19.6037 18.3698 19.3238 16.9704L16.3821 17.5587ZM15.6565 13.9311L16.3821 17.5587L19.3238 16.9704L18.5983 13.3428L15.6565 13.9311Z" fill="#BBBBBB" mask="url(#path-1-inside-1_185_14369)"/>
</svg>
