<svg width="24" height="24" viewBox="0 0 24 24" fill="none" xmlns="http://www.w3.org/2000/svg">
<path d="M17.0303 12.0303C17.3232 11.7374 17.3232 11.2625 17.0303 10.9697C16.7374 10.6768 16.2625 10.6768 15.9697 10.9697L17.0303 12.0303ZM12 16.0002L11.4697 16.5305C11.6103 16.6712 11.8011 16.7502 12 16.7502C12.1989 16.7502 12.3897 16.6712 12.5303 16.5305L12 16.0002ZM8.03034 10.9697C7.73746 10.6768 7.26258 10.6768 6.96968 10.9697C6.67678 11.2625 6.67677 11.7374 6.96966 12.0303L8.03034 10.9697ZM12.75 2C12.75 1.58579 12.4142 1.25 12 1.25C11.5858 1.25 11.25 1.58579 11.25 2L12.75 2ZM15.9697 10.9697L11.4697 15.4699L12.5303 16.5305L17.0303 12.0303L15.9697 10.9697ZM12.5303 15.4699L8.03034 10.9697L6.96966 12.0303L11.4697 16.5305L12.5303 15.4699ZM12.75 16.0002L12.75 2L11.25 2L11.25 16.0002L12.75 16.0002Z" fill="white"/>
<path d="M2 16V22H22V16" stroke="white" stroke-width="1.5" stroke-linecap="round"/>
</svg>
