<svg width="24" height="24" viewBox="0 0 24 24" fill="none" xmlns="http://www.w3.org/2000/svg">
<path d="M10.3657 2H13.6339C14.2843 2.18752 14.5957 2.64382 14.696 3.29545C14.7594 3.70539 14.8758 4.10751 14.9621 4.51432C14.9871 4.63205 15.0458 4.69195 15.1534 4.75185C15.6681 5.0373 16.176 5.33629 16.6792 5.64205C16.7769 5.70143 16.8512 5.72643 16.963 5.68945C17.4428 5.53318 17.9252 5.38212 18.4071 5.23159C19.0554 5.03 19.6121 5.24409 19.9516 5.82957C20.4021 6.60499 20.85 7.38181 21.2954 8.16002C21.6364 8.75487 21.5459 9.35077 21.0443 9.82113C20.6747 10.1675 20.2973 10.5056 19.9323 10.8577C19.8728 10.9264 19.8397 11.0141 19.8388 11.1051C19.8308 11.7024 19.8308 12.2999 19.8388 12.8975C19.8394 12.9894 19.8732 13.0781 19.9339 13.147C20.2978 13.4986 20.6762 13.8366 21.0458 14.1836C21.5475 14.6524 21.6374 15.2493 21.2964 15.8442C20.8507 16.6224 20.4028 17.3992 19.9526 18.1746C19.6132 18.7601 19.0585 18.9736 18.4087 18.7715C17.9263 18.622 17.4439 18.4725 16.964 18.3147C16.8523 18.2777 16.7779 18.3027 16.6802 18.3621C16.1754 18.6684 15.6681 18.9648 15.1514 19.2502C15.0438 19.3101 14.9855 19.37 14.9601 19.4878C14.8483 20.0149 14.7355 20.5436 14.6071 21.0645C14.5166 21.4411 14.2811 21.7093 13.936 21.8786C13.8388 21.926 13.7348 21.9599 13.6339 22H10.3657C9.71695 21.8109 9.40348 21.3567 9.30367 20.704C9.24025 20.2941 9.12381 19.892 9.03699 19.4852C9.01256 19.3685 8.9559 19.307 8.84673 19.2466C8.33209 18.9611 7.82889 18.6543 7.31632 18.3652C7.23259 18.3168 7.13416 18.3003 7.03925 18.3189C6.548 18.4616 6.06246 18.6236 5.57381 18.7747C4.95001 18.9669 4.3839 18.7476 4.05796 18.1861C3.60084 17.3992 3.14668 16.6109 2.69546 15.8212C2.36588 15.2441 2.45633 14.6498 2.94238 14.1924C3.31615 13.8403 3.69875 13.4986 4.06835 13.1423C4.12761 13.0733 4.16025 12.9854 4.16037 12.8944C4.16834 12.2971 4.16834 11.6996 4.16037 11.102C4.15989 11.011 4.12687 10.9232 4.06732 10.8546C3.70343 10.503 3.32498 10.1649 2.95538 9.81852C2.45217 9.3466 2.36276 8.75175 2.70377 8.15741C3.14737 7.38546 3.59183 6.6142 4.03716 5.84363C4.38286 5.24565 4.93649 5.02688 5.59149 5.23055C6.0739 5.38004 6.55371 5.53891 7.03873 5.67903C7.13387 5.69745 7.23246 5.6808 7.31632 5.63215C7.82889 5.34306 8.33157 5.03625 8.84673 4.75133C8.89541 4.72999 8.93815 4.69705 8.97122 4.65538C9.00429 4.61371 9.02669 4.56457 9.03647 4.51224C9.15136 3.9851 9.26572 3.45796 9.39153 2.93291C9.4799 2.5636 9.70967 2.29847 10.0455 2.12814C10.1484 2.07865 10.2586 2.04323 10.3657 2Z" stroke="#2A2E37" stroke-width="1.5"/>
<circle cx="12" cy="12" r="3.25" stroke="#2A2E37" stroke-width="1.5"/>
</svg>
