<svg width="24" height="24" viewBox="0 0 24 24" fill="none" xmlns="http://www.w3.org/2000/svg">
<path d="M5 10C5 9.44772 5.44772 9 6 9H11C11.5523 9 12 9.44772 12 10V14C12 14.5523 11.5523 15 11 15H6C5.44772 15 5 14.5523 5 14V10Z" fill="#FF8B77" stroke="#2A2E37" stroke-width="1.5"/>
<path d="M5 16C5 15.4477 5.44772 15 6 15H11C11.5523 15 12 15.4477 12 16V20C12 20.5523 11.5523 21 11 21H6C5.44772 21 5 20.5523 5 20V16Z" fill="#FF8B77" stroke="#2A2E37" stroke-width="1.5"/>
<path d="M5 4C5 3.44772 5.44772 3 6 3H11C11.5523 3 12 3.44772 12 4V8C12 8.55228 11.5523 9 11 9H6C5.44772 9 5 8.55228 5 8V4Z" fill="#FF8B77"/>
<path d="M4.25 4C4.25 3.0335 5.0335 2.25 6 2.25H11C11.9665 2.25 12.75 3.0335 12.75 4H11.25C11.25 3.86193 11.1381 3.75 11 3.75H6C5.86193 3.75 5.75 3.86193 5.75 4H4.25ZM12.75 8C12.75 8.9665 11.9665 9.75 11 9.75H6C5.0335 9.75 4.25 8.9665 4.25 8H5.75C5.75 8.13807 5.86193 8.25 6 8.25H11C11.1381 8.25 11.25 8.13807 11.25 8H12.75ZM6 9.75C5.0335 9.75 4.25 8.9665 4.25 8V4C4.25 3.0335 5.0335 2.25 6 2.25V3.75C5.86193 3.75 5.75 3.86193 5.75 4V8C5.75 8.13807 5.86193 8.25 6 8.25V9.75ZM11 2.25C11.9665 2.25 12.75 3.0335 12.75 4V8C12.75 8.9665 11.9665 9.75 11 9.75V8.25C11.1381 8.25 11.25 8.13807 11.25 8V4C11.25 3.86193 11.1381 3.75 11 3.75V2.25Z" fill="#2A2E37"/>
<path d="M12 4C12 3.44772 12.4477 3 13 3H18C18.5523 3 19 3.44772 19 4V8C19 8.55228 18.5523 9 18 9H13C12.4477 9 12 8.55228 12 8V4Z" fill="#FF8B77" stroke="#2A2E37" stroke-width="1.5"/>
<path d="M12 10C12 9.44772 12.4477 9 13 9H18C18.5523 9 19 9.44772 19 10V14C19 14.5523 18.5523 15 18 15H13C12.4477 15 12 14.5523 12 14V10Z" fill="#FF8B77" stroke="#2A2E37" stroke-width="1.5"/>
<path d="M12 16C12 15.4477 12.4477 15 13 15H18C18.5523 15 19 15.4477 19 16V20C19 20.5523 18.5523 21 18 21H13C12.4477 21 12 20.5523 12 20V16Z" fill="#FF8B77" stroke="#2A2E37" stroke-width="1.5"/>
</svg>
