<svg width="40" height="40" viewBox="0 0 40 40" fill="none" xmlns="http://www.w3.org/2000/svg">
<g clip-path="url(#clip0_185_13416)">
<circle cx="20" cy="20" r="20" fill="#FF8B77"/>
<path d="M24.4392 9.95104L25.6424 8.74777C25.8794 8.5107 26.1608 8.32265 26.4705 8.19434C26.7802 8.06604 27.1121 8 27.4473 8C27.7825 8 28.1145 8.06604 28.4242 8.19434C28.7339 8.32265 29.0152 8.5107 29.2522 8.74777C29.4893 8.98477 29.6774 9.26615 29.8057 9.57584C29.934 9.88552 30 10.2175 30 10.5527C30 10.8879 29.934 11.2198 29.8057 11.5295C29.6774 11.8392 29.4893 12.1206 29.2522 12.3576L28.049 13.5608M24.4392 9.95104L28.049 13.5608M24.4392 9.95104L11.4391 22.9511C11.2848 23.1055 11.1754 23.2989 11.1226 23.5106L10 28L14.4894 26.8774C14.7011 26.8246 14.8945 26.7152 15.0489 26.5609L28.049 13.5608" stroke="white" stroke-width="2" stroke-linecap="round" stroke-linejoin="round"/>
<path d="M10 31H30" stroke="white" stroke-width="2" stroke-linecap="round"/>
</g>
<defs>
<clipPath id="clip0_185_13416">
<rect width="40" height="40" fill="white"/>
</clipPath>
</defs>
</svg>
