<svg width="150" height="150" viewBox="0 0 150 150" fill="none" xmlns="http://www.w3.org/2000/svg">
<path d="M70.9485 15.5C72.873 12.1667 77.6843 12.1667 79.6088 15.5L81.2459 18.3357C81.6308 19.0023 81.1497 19.8357 80.3799 19.8357H75.2786H70.1774C69.4076 19.8357 68.9264 19.0023 69.3113 18.3357L70.9485 15.5Z" fill="#794224"/>
<path d="M32.5107 35.9391C31.4521 32.2386 34.7964 28.7797 38.5305 29.7132L41.7071 30.5073C42.4539 30.694 42.7185 31.6192 42.1834 32.1726L38.6375 35.8399L35.0916 39.5073C34.5565 40.0607 33.623 39.8273 33.4112 39.0872L32.5107 35.9391Z" fill="#794224"/>
<path d="M19.841 69.8968C16.7474 67.6066 17.2931 62.8264 20.8231 61.2924L23.8262 59.9874C24.5322 59.6806 25.3056 60.2531 25.2183 61.0179L24.6397 66.0863L24.0612 71.1546C23.9739 71.9195 23.0914 72.303 22.4727 71.845L19.841 69.8968Z" fill="#794224"/>
<path d="M118.494 36.1508C119.647 32.4785 116.392 28.9355 112.635 29.7736L109.439 30.4865C108.688 30.6541 108.4 31.5722 108.921 32.139L112.372 35.8955L115.824 39.652C116.344 40.2189 117.283 40.0094 117.514 39.2749L118.494 36.1508Z" fill="#794224"/>
<path d="M130.982 69.8646C134.14 67.6635 133.73 62.8697 130.245 61.2358L127.281 59.8458C126.584 59.519 125.794 60.0693 125.86 60.8363L126.294 65.9191L126.728 71.0018C126.793 71.7688 127.665 72.1773 128.296 71.7371L130.982 69.8646Z" fill="#794224"/>
<path d="M75.5169 121.911C103.619 121.911 126.401 99.0927 126.401 70.9448C126.401 42.7969 103.619 19.9785 75.5169 19.9785C47.4144 19.9785 24.6328 42.7969 24.6328 70.9448C24.6328 99.0927 47.4144 121.911 75.5169 121.911Z" fill="#945424"/>
<path d="M75.5169 121.911C103.619 121.911 126.401 99.0927 126.401 70.9448C126.401 42.7969 103.619 19.9785 75.5169 19.9785C47.4144 19.9785 24.6328 42.7969 24.6328 70.9448C24.6328 99.0927 47.4144 121.911 75.5169 121.911Z" stroke="#794224" stroke-width="3" stroke-miterlimit="10"/>
<path d="M53.5786 31.7267C48.7451 34.5024 44.5674 38.2912 41.3313 42.8339C38.0951 47.3766 35.877 52.5659 34.8285 58.0467C34.6612 58.7342 34.7635 59.4598 35.1143 60.074C35.4651 60.6883 36.0378 61.1443 36.7143 61.3482C37.3991 61.5285 38.1272 61.4334 38.743 61.0834C39.3588 60.7334 39.8137 60.1561 40.0105 59.4748C40.8855 54.6653 42.7968 50.1047 45.6114 46.1107C48.426 42.1167 52.0761 38.7854 56.3075 36.3488C59.2664 34.6443 56.6448 30.0222 53.5786 31.7267Z" fill="#C49D6B"/>
<path d="M33.9217 69.3164C33.2471 69.3676 32.6168 69.6721 32.1569 70.169C31.697 70.6659 31.4414 71.3184 31.4414 71.996C31.4414 72.6736 31.697 73.3261 32.1569 73.823C32.6168 74.3199 33.2471 74.6244 33.9217 74.6756C34.5962 74.6244 35.2266 74.3199 35.6865 73.823C36.1464 73.3261 36.402 72.6736 36.402 71.996C36.402 71.3184 36.1464 70.6659 35.6865 70.169C35.2266 69.6721 34.5962 69.3676 33.9217 69.3164Z" fill="#C49D6B"/>
<path d="M68.0391 72.3335V76.4724C68.0391 76.7623 68.1544 77.0404 68.3597 77.2454C68.565 77.4505 68.8434 77.5657 69.1337 77.5657C69.424 77.5657 69.7024 77.4505 69.9077 77.2454C70.113 77.0404 70.2283 76.7623 70.2283 76.4724V72.3335C70.2243 72.0448 70.1077 71.7691 69.9032 71.5649C69.6988 71.3608 69.4227 71.2443 69.1337 71.2402C68.8459 71.2481 68.572 71.3658 68.3684 71.5692C68.1648 71.7725 68.047 72.046 68.0391 72.3335Z" fill="#080606"/>
<path d="M56.7842 63.8691L61.6733 66.8627C61.6733 66.8627 60.7221 69.4497 56.4766 71.7951" stroke="#080606" stroke-width="3" stroke-linecap="round" stroke-linejoin="round"/>
<path d="M85.7068 62.0113L81.759 66.1682C81.759 66.1682 83.3474 68.4209 88.0553 69.5875" stroke="#080606" stroke-width="3" stroke-linecap="round" stroke-linejoin="round"/>
<path d="M62.8281 81.7973C63.0637 84.4968 64.926 89.8958 70.4912 89.8958C77.3046 89.8958 77.8825 83.5512 78.0999 80.8517" stroke="#080606" stroke-width="3" stroke-linecap="round" stroke-linejoin="round"/>
<path d="M55.9387 120.199C54.3223 123.91 53.2552 127.713 52.3726 131.665C51.9486 133.658 51.4136 135.642 51.1651 137.665C51.1651 137.753 51.1651 138.207 51.1651 138.134C51.1651 138.31 50.595 138.662 51.7353 137.914C52.6124 137.342 52.437 137.489 51.823 137.284C51.6177 137.207 51.4077 137.143 51.1943 137.093C50.0654 136.82 48.8877 136.82 47.7588 137.093C47.3485 137.217 46.9825 137.457 46.705 137.784C46.4274 138.111 46.2502 138.512 46.1946 138.938C46.139 139.364 46.2074 139.797 46.3915 140.185C46.5757 140.573 46.8677 140.899 47.2326 141.124C48.0239 141.614 48.906 141.938 49.8256 142.076C50.7452 142.215 51.6832 142.165 52.5832 141.93C55.9502 141.177 54.1767 137.02 51.4283 137.694C51.0896 137.774 50.738 137.783 50.3958 137.72C50.0536 137.657 49.7281 137.523 49.44 137.328L48.9138 141.344C49.7505 141.238 50.6 141.365 51.3698 141.711C51.9759 141.881 52.4346 141.972 53.0329 141.776C53.6313 141.581 54.1425 141.332 54.6952 140.601C55.2692 139.639 55.6546 137.416 55.6546 137.416C55.6546 137.416 56.1248 135.5 56.3197 134.523C57.0892 130.345 58.1014 126.241 59.7612 122.332C60.0361 121.826 60.1091 121.235 59.9652 120.677C59.8214 120.119 59.4715 119.636 58.9863 119.327C58.481 119.038 57.8824 118.958 57.3192 119.106C56.756 119.254 56.2733 119.618 55.9748 120.119L55.9387 120.199Z" fill="#2F0908"/>
<path d="M97.5814 119.157C99.7972 122.545 102.391 125.524 105.21 128.43C106.644 129.879 108.009 131.414 109.564 132.732C109.637 132.78 110.017 133.03 109.956 132.99C110.103 133.086 110.084 133.756 110.085 132.392C110.089 131.345 110.115 131.572 109.606 131.973C109.429 132.103 109.261 132.243 109.102 132.394C108.254 133.188 107.608 134.172 107.217 135.266C107.095 135.677 107.095 136.115 107.216 136.526C107.337 136.938 107.575 137.306 107.901 137.586C108.226 137.866 108.626 138.047 109.051 138.106C109.477 138.165 109.91 138.099 110.298 137.918C111.142 137.525 111.897 136.965 112.517 136.273C113.137 135.58 113.611 134.769 113.908 133.887C115.126 130.659 110.677 129.861 109.733 132.528C109.614 132.855 109.429 133.154 109.188 133.406C108.948 133.657 108.657 133.856 108.336 133.989L111.404 136.633C111.775 135.876 112.347 135.235 113.058 134.781C113.533 134.368 113.861 134.034 114.026 133.427C114.191 132.819 114.264 132.255 113.955 131.392C113.466 130.384 111.819 128.842 111.819 128.842C111.819 128.842 110.476 127.398 109.766 126.699C106.695 123.763 103.82 120.665 101.463 117.133C101.191 116.625 100.736 116.239 100.19 116.053C99.6451 115.868 99.0499 115.895 98.5254 116.131C98.0057 116.395 97.6108 116.852 97.4255 117.404C97.2402 117.956 97.2795 118.559 97.5347 119.083L97.5814 119.157Z" fill="#2F0908"/>
<path d="M24.2596 83.0893C17.184 82.4883 11.3363 77.7097 6.05882 73.3856C5.63884 72.9909 5.0848 72.7712 4.50918 72.7712C3.93357 72.7712 3.37953 72.9909 2.95956 73.3856C2.55244 73.7997 2.32422 74.3578 2.32422 74.9393C2.32422 75.5208 2.55244 76.079 2.95956 76.4931C9.24579 81.6381 15.8683 86.7538 24.2596 87.4868C24.8412 87.4868 25.399 87.2551 25.8102 86.8428C26.2215 86.4304 26.4525 85.8712 26.4525 85.288C26.4525 84.7049 26.2215 84.1457 25.8102 83.7333C25.399 83.321 24.8412 83.0893 24.2596 83.0893Z" fill="#2F0908"/>
<path d="M126.692 84.7017C130.215 85.7864 133.782 84.3059 137.042 83.0306C140.445 81.6982 143.769 80.1713 146.998 78.4573C149.498 77.1381 147.29 73.3416 144.79 74.6608C141.999 76.1484 139.129 77.4842 136.194 78.6625C133.724 79.6446 130.566 81.2863 127.861 80.4655C125.157 79.6446 123.987 83.8808 126.692 84.7017Z" fill="#2F0908"/>
</svg>
