<svg width="196" height="150" viewBox="0 0 196 150" fill="none" xmlns="http://www.w3.org/2000/svg">
<g clip-path="url(#clip0_1217_31381)">
<path d="M157.522 104.764C156.04 75.0401 155.121 45.3166 154.558 15.5931C154.55 15.0527 154.335 14.536 153.957 14.151C153.578 13.7661 153.066 13.5426 152.527 13.5273C121.252 12.6059 90.0222 11.9223 58.7475 11.0009C58.4711 10.9929 58.1958 11.0397 57.9374 11.1385C57.679 11.2373 57.4426 11.3862 57.2416 11.5767C57.0406 11.7671 56.8791 11.9955 56.7661 12.2486C56.6532 12.5017 56.5911 12.7746 56.5835 13.0517C55.5953 46.6096 55.0271 80.1774 54.8789 113.755C54.8828 114.035 54.9419 114.312 55.0529 114.57C55.164 114.827 55.3247 115.06 55.5258 115.254C55.727 115.449 55.9646 115.602 56.225 115.704C56.4854 115.807 56.7633 115.856 57.0429 115.851C78.6833 114.84 100.457 111.972 122.023 109.98C133.169 108.94 144.39 107.558 155.58 106.904C156.115 106.862 156.614 106.618 156.975 106.22C157.336 105.822 157.531 105.301 157.522 104.764Z" fill="#5ABA86"/>
<path d="M157.522 104.764C156.04 75.0401 155.121 45.3166 154.558 15.5931C154.55 15.0527 154.335 14.536 153.957 14.151C153.578 13.7661 153.066 13.5426 152.527 13.5273C121.252 12.6059 90.0222 11.9223 58.7475 11.0009C58.4711 10.9929 58.1958 11.0397 57.9374 11.1385C57.679 11.2373 57.4426 11.3862 57.2416 11.5767C57.0406 11.7671 56.8791 11.9955 56.7661 12.2486C56.6532 12.5017 56.5911 12.7746 56.5835 13.0517C55.5953 46.6096 55.0271 80.1774 54.8789 113.755C54.8828 114.035 54.9419 114.312 55.0529 114.57C55.164 114.827 55.3247 115.06 55.5258 115.254C55.727 115.449 55.9646 115.602 56.225 115.704C56.4854 115.807 56.7633 115.856 57.0429 115.851C78.6833 114.84 100.457 111.972 122.023 109.98C133.169 108.94 144.39 107.558 155.58 106.904C156.115 106.862 156.614 106.618 156.975 106.22C157.336 105.822 157.531 105.301 157.522 104.764Z" stroke="#499A6D" stroke-width="3" stroke-miterlimit="10"/>
<path d="M59.918 14.6602C61.7707 15.7599 67.5411 19.6953 68.6528 20.4384C85.3573 21.0625 97.4818 20.9288 114.201 20.9585H143.668C146.024 19.8736 149.029 18.0694 151 17.0291" stroke="#9ACEB0" stroke-width="2.5" stroke-miterlimit="10" stroke-linecap="round"/>
<path d="M58.4883 111.986C61.1118 110.306 64.9035 107.588 67.5418 105.849C67.5418 105.849 115.712 101.946 145.344 99.0547C147.257 99.8869 151.964 102.574 153.668 103.495" stroke="#9ACEB0" stroke-width="2.5" stroke-miterlimit="10" stroke-linecap="round"/>
<path d="M67.5391 105.85L68.6507 20.4395" stroke="#9ACEB0" stroke-width="2.5" stroke-miterlimit="10" stroke-linecap="round"/>
<path d="M143.664 21.0176L145.585 98.8172" stroke="#9ACEB0" stroke-width="2.5" stroke-miterlimit="10" stroke-linecap="round"/>
<path d="M54.2199 63.2748C48.0272 66.9474 44.7999 73.8906 41.8922 80.1674C41.6832 80.7131 41.2745 81.1581 40.7491 81.4123C40.2237 81.6664 39.6211 81.7106 39.0635 81.5357C38.5091 81.3375 38.0544 80.9289 37.7976 80.3981C37.5409 79.8674 37.5028 79.2572 37.6915 78.6995C41.1574 71.2281 44.9431 63.6351 52.2784 59.2613C52.8092 59.0045 53.4205 58.9696 53.9779 59.1644C54.5353 59.3592 54.9931 59.7676 55.2506 60.2999C55.508 60.8321 55.5441 61.4445 55.3508 62.0024C55.1575 62.5603 54.7507 63.0181 54.2199 63.2748Z" fill="#2F0908"/>
<path d="M157.586 60.2748C163.778 63.9474 167.006 70.8906 169.913 77.1674C170.122 77.7131 170.531 78.1581 171.057 78.4123C171.582 78.6664 172.185 78.7106 172.742 78.5357C173.297 78.3375 173.751 77.9289 174.008 77.3981C174.265 76.8674 174.303 76.2572 174.114 75.6995C170.648 68.2281 166.863 60.6351 159.527 56.2613C158.996 56.0045 158.385 55.9696 157.828 56.1644C157.27 56.3592 156.813 56.7676 156.555 57.2999C156.298 57.8321 156.262 58.4445 156.455 59.0024C156.648 59.5603 157.055 60.0181 157.586 60.2748Z" fill="#2F0908"/>
<path d="M122.707 111.868C122.495 109.051 126.858 108.723 127.07 111.54L127.72 118.275C127.901 120.683 128.153 123.072 128.378 125.476C128.468 126.673 128.559 127.885 128.649 129.082L128.759 130.541C129.152 130.468 129.453 130.435 129.93 130.319C131.178 130.016 132.303 130.123 133.253 130.895C133.536 131.149 133.75 131.473 133.873 131.834C133.996 132.194 134.024 132.581 133.955 132.956C133.887 133.331 133.723 133.682 133.48 133.975C133.237 134.269 132.897 134.449 132.568 134.66C131.092 135.605 129.03 136.443 127.291 135.921C126.843 135.795 126.379 135.545 126.053 135.298C125.727 135.051 125.462 134.749 125.203 134.433C124.944 134.118 124.822 133.668 124.723 133.272C124.436 131.794 124.211 128.799 124.211 128.799L123.755 123.696L122.707 111.868Z" fill="#2F0908"/>
<path d="M93.9974 114.873C94.0587 112.049 89.6849 111.954 89.6236 114.778L89.3797 121.178C89.3273 123.592 89.2022 125.99 89.1061 128.404C89.08 129.604 89.0537 130.818 89.0276 132.018L88.9958 133.481C88.5995 133.429 88.2972 133.413 87.8143 133.322C86.5522 133.086 85.4338 133.253 84.5268 134.074C84.2574 134.343 84.0615 134.677 83.9579 135.044C83.8543 135.411 83.8464 135.799 83.935 136.17C84.0236 136.541 84.2058 136.883 84.4639 137.162C84.7221 137.442 85.0718 137.605 85.4108 137.797C86.9358 138.663 89.0394 139.389 90.7479 138.776C91.1884 138.626 91.6384 138.352 91.951 138.087C92.2635 137.823 92.5122 137.507 92.7539 137.178C92.9956 136.85 93.093 136.395 93.1716 135.994C93.3792 134.502 93.444 131.499 93.444 131.499L93.6281 126.379L93.9974 114.873Z" fill="#2F0908"/>
<path d="M48.6135 37.181C48.7018 34.6531 48.362 32.1284 47.6083 29.7134C47.493 29.4443 47.3018 29.2146 47.058 29.0522C46.8142 28.8898 46.5284 28.8018 46.2355 28.7989C45.9425 28.796 45.6551 28.8783 45.4082 29.0359C45.1614 29.1934 44.9658 29.4193 44.8453 29.686C44.1765 31.0827 43.3809 32.4152 42.4686 33.6669C41.5055 34.8854 40.3526 35.9415 39.0541 36.7948C37.7075 37.6688 36.518 38.7631 35.5353 40.0317C34.5752 41.4473 33.7764 42.9657 33.154 44.5585C33.0585 44.7809 33.0182 45.023 33.0362 45.2643C33.0542 45.5056 33.1301 45.739 33.2575 45.9448C33.3849 46.1506 33.56 46.3228 33.7681 46.4468C33.9761 46.5708 34.211 46.643 34.4528 46.6572C34.5309 46.7036 34.6124 46.7438 34.6968 46.7775C36.9858 47.5339 39.4238 47.7271 41.8032 47.3404C42.9296 47.2584 44.0231 46.9248 45.003 46.3644C45.9829 45.8039 46.8244 45.0309 47.4652 44.1022C48.4311 41.9304 48.8264 39.5482 48.6135 37.181Z" fill="#00823F"/>
<path d="M31.334 46.934C31.5256 46.7198 31.6558 46.458 31.711 46.1761C31.7662 45.8942 31.7442 45.6026 31.6475 45.3321C30.0179 40.1578 23.6616 40.5652 19.4108 41.2855C13.9919 42.3481 8.66831 43.8476 3.4923 45.7694C3.25352 45.8923 3.05193 46.0766 2.90833 46.3033C2.76473 46.53 2.68434 46.7909 2.67545 47.0591C2.66656 47.3272 2.7295 47.5929 2.85777 47.8287C2.98604 48.0645 3.17499 48.2618 3.40511 48.4003C3.23836 48.567 3.1164 48.7731 3.05051 48.9994C2.98462 49.2257 2.97693 49.4649 3.02815 49.695C3.07937 49.9251 3.18784 50.1386 3.34354 50.3158C3.49924 50.4929 3.69714 50.628 3.91893 50.7085C8.62849 52.5023 13.8271 54.4002 18.9178 54.2815C19.3224 54.3299 19.7299 54.2269 20.1434 54.2006L20.2783 54.2167C22.2487 54.6173 24.2834 54.5759 26.2356 54.0955C27.8539 53.8505 29.3484 53.0865 30.4936 51.9187C30.6943 51.7298 30.8222 51.4765 30.855 51.203C30.8878 50.9295 30.8233 50.6531 30.6729 50.4222C30.966 50.1263 31.2117 49.7871 31.4014 49.4164C31.65 49.0471 31.7771 48.6095 31.765 48.1646C31.7529 47.7196 31.6022 47.2895 31.334 46.934Z" fill="#00823F"/>
<path d="M34.4031 46.9526C33.1814 44.326 31.224 42.1092 28.7675 40.5703C26.3111 39.0313 23.4611 38.2362 20.5621 38.2812C13.426 38.4738 7.78979 43.4 1.11623 45.0598C0.920045 45.089 0.731559 45.1565 0.561554 45.2585C0.391548 45.3605 0.243359 45.495 0.125462 45.6543C0.00756395 45.8136 -0.0777287 45.9946 -0.125537 46.1869C-0.173345 46.3791 -0.182732 46.5789 -0.153159 46.7748C0.582098 49.899 4.41849 51.8766 7.0992 53.3514C10.588 55.1716 14.3719 56.3599 18.2755 56.8611C25.0482 57.6724 32.7602 55.2111 34.4621 47.8553C34.9014 45.9648 31.9028 45.6208 31.4653 47.4963C30.1039 53.4053 23.1299 54.528 18.0947 53.8034C15.2087 53.3567 12.3993 52.5092 9.74813 51.2855C8.34234 50.6538 6.99325 49.9031 5.71566 49.0415C4.80267 48.416 3.10385 47.499 2.83554 46.3132L1.60214 48.1085C7.45108 46.608 12.4505 42.6833 18.3913 41.5581C21.0256 41.0061 23.7696 41.3573 26.1799 42.555C28.5902 43.7527 30.5261 45.727 31.6747 48.1589C32.4964 49.9272 35.2697 48.7262 34.4462 46.9729L34.4031 46.9526Z" fill="#006137"/>
<path d="M34.1857 46.623C34.2664 44.5745 34.7815 42.5666 35.697 40.732C36.707 39.2039 37.9733 37.8612 39.4402 36.763C42.5701 34.3434 45.4439 31.6103 48.0168 28.6064L45.6267 28.6389C46.9806 30.7421 47.8928 33.0979 48.3081 35.5635C48.7195 37.9657 48.9272 40.7989 47.5741 42.9594C44.7863 47.4527 38.7426 47.1538 34.3622 45.6575C32.5208 45.0422 31.3824 47.8204 33.222 48.4507C38.872 50.3875 46.3762 50.4212 49.9852 44.7815C51.5677 41.9398 52.0523 38.617 51.3472 35.4418C50.8563 32.346 49.7134 29.3893 47.994 26.7669C47.8516 26.5857 47.6695 26.4394 47.4617 26.3394C47.254 26.2393 47.026 26.1882 46.7954 26.1899C46.5647 26.1916 46.3376 26.2461 46.1314 26.3491C45.9251 26.4522 45.7453 26.6011 45.6057 26.7844C44.2652 28.4545 42.7924 30.0142 41.2016 31.4484C39.7038 32.787 38.0908 33.9448 36.6115 35.2553C35.1525 36.485 33.921 37.9611 32.9732 39.6163C31.9579 41.6976 31.3522 43.9544 31.1889 46.264C31.1414 46.6609 31.2536 47.0605 31.501 47.3748C31.7484 47.6891 32.1106 47.8925 32.508 47.9401C32.9054 47.9877 33.3054 47.8757 33.6201 47.6287C33.9347 47.3817 34.1382 47.0199 34.1857 46.623Z" fill="#006137"/>
<path d="M31.9305 49.5697C32.5154 56.486 34.8802 63.0084 36.2526 69.8217C37.7973 77.354 36.8936 84.517 35.5423 91.9908C35.1911 93.907 38.1897 94.251 38.5391 92.3498C39.885 84.9209 40.842 77.5669 39.3758 70.0137C38.0153 62.9741 35.5821 56.2614 34.9174 49.1229C34.7537 47.1906 31.765 47.6523 31.9305 49.5697Z" fill="#006137"/>
<path d="M32.7451 46.4507C27.8247 44.6703 22.402 44.8872 17.641 47.0549C15.8877 47.862 17.0759 50.6305 18.8311 49.8085C22.8465 47.9634 27.4256 47.7601 31.59 49.2421C33.411 49.9005 34.5661 47.1091 32.7302 46.4489L32.7451 46.4507Z" fill="#006137"/>
<path d="M34.9782 47.7205C38.3017 46.23 41.1516 43.8567 43.2172 40.8594C43.4373 40.5388 43.5249 40.1457 43.4616 39.7621C43.3983 39.3785 43.1891 39.0341 42.8777 38.8008C42.5662 38.5676 42.1766 38.4635 41.7902 38.5104C41.4039 38.5572 41.0506 38.7514 40.8043 39.0523C40.3446 39.7364 39.835 40.3857 39.2796 40.9949L38.8944 41.4193C38.617 41.7049 39.1179 41.2032 38.8944 41.4193L38.6877 41.6223C38.3953 41.906 38.0898 42.173 37.7692 42.4382C37.157 42.9548 36.511 43.4302 35.8357 43.8612L35.5894 44.0139L35.0687 44.3007C34.6936 44.5138 34.3071 44.6952 33.9056 44.8748C33.5396 45.0363 33.2529 45.3364 33.1085 45.7091C32.9641 46.0818 32.9738 46.4966 33.1355 46.8622C33.2978 47.2237 33.5959 47.507 33.9655 47.6507C34.3351 47.7944 34.7465 47.787 35.1106 47.6301L34.9782 47.7205Z" fill="#006137"/>
<path d="M99.9297 61.2237V65.42C99.9297 65.714 100.047 65.996 100.255 66.2038C100.463 66.4117 100.745 66.5285 101.04 66.5285C101.334 66.5285 101.616 66.4117 101.824 66.2038C102.032 65.996 102.149 65.714 102.149 65.42V61.2237C102.145 60.931 102.027 60.6514 101.82 60.4444C101.613 60.2374 101.333 60.1193 101.04 60.1152C100.748 60.1232 100.47 60.2426 100.264 60.4487C100.057 60.6549 99.9377 60.9322 99.9297 61.2237Z" fill="#2F0908"/>
<path d="M76.8612 39.4583L74.4513 35.0878C74.3522 34.8986 74.2157 34.7313 74.0502 34.5961C73.8847 34.4609 73.6935 34.3605 73.4882 34.301C73.2828 34.2415 73.0675 34.2241 72.8552 34.2498C72.643 34.2756 72.4381 34.344 72.253 34.4508C72.0678 34.5577 71.9063 34.7009 71.778 34.8717C71.6497 35.0426 71.5573 35.2376 71.5065 35.4451C71.4556 35.6525 71.4473 35.8681 71.482 36.0788C71.5167 36.2895 71.5937 36.4911 71.7084 36.6713L74.1342 41.0418C74.2255 41.2438 74.3583 41.4243 74.5239 41.5717C74.6895 41.7191 74.8842 41.8302 75.0955 41.8978C75.3068 41.9654 75.5299 41.9879 75.7505 41.9639C75.971 41.9399 76.1841 41.87 76.3758 41.7586C76.5676 41.6473 76.7339 41.497 76.8638 41.3174C76.9938 41.1378 77.0846 40.933 77.1304 40.7162C77.1761 40.4994 77.1758 40.2754 77.1294 40.0587C77.0831 39.8421 76.9917 39.6375 76.8612 39.4583Z" fill="#562312"/>
<path d="M78.7603 66.0944C78.6305 65.7093 78.3733 65.3798 78.031 65.1601L73.2746 61.8347C73.0919 61.7283 72.8898 61.6595 72.6802 61.6323C72.4705 61.6051 72.2575 61.6201 72.0538 61.6763C71.6561 61.7816 71.315 62.0371 71.1025 62.3889C70.893 62.7651 70.8363 63.2073 70.9439 63.6241C71.0738 64.0092 71.331 64.3387 71.6732 64.5583L76.4297 67.8837C76.6123 67.9901 76.8144 68.0589 77.0241 68.0861C77.2337 68.1133 77.4467 68.0983 77.6505 68.0421C78.0508 67.933 78.3923 67.6714 78.6018 67.3137C78.7083 67.1312 78.7771 66.9294 78.8044 66.72C78.8316 66.5106 78.8166 66.2979 78.7603 66.0944Z" fill="#562312"/>
<path d="M81.5685 88.4537C81.4556 88.0597 81.1942 87.7248 80.8392 87.5194C80.6577 87.4104 80.4561 87.3388 80.2464 87.3089C80.0367 87.279 79.8232 87.2913 79.6184 87.3452L79.2379 87.5194C79.0003 87.6484 78.8029 87.8401 78.6671 88.0736L78.8415 87.8519C78.4339 88.3752 77.9655 88.8483 77.4463 89.2613C76.9043 89.6626 76.3194 90.0025 75.7022 90.2747L75.9559 90.1639C75.7579 90.2071 75.5763 90.306 75.4327 90.4489C75.2568 90.5557 75.1141 90.7092 75.0205 90.8923C74.914 91.0747 74.8451 91.2766 74.8179 91.4859C74.7907 91.6953 74.8056 91.9081 74.8619 92.1116C74.9712 92.5114 75.233 92.8525 75.5913 93.0617C75.7739 93.1681 75.976 93.2369 76.1857 93.2641C76.3953 93.2913 76.6083 93.2763 76.8121 93.2201C77.6692 92.8752 78.479 92.4229 79.222 91.8741C79.636 91.5815 80.0233 91.253 80.3794 90.8923C80.7482 90.5079 81.0924 90.1006 81.4099 89.673C81.5164 89.4906 81.5853 89.2887 81.6126 89.0793C81.6398 88.8699 81.6248 88.6572 81.5685 88.4537Z" fill="#562312"/>
<path d="M132.992 32.9507C132.994 32.7423 132.954 32.5357 132.875 32.3428C132.796 32.1499 132.68 31.9744 132.533 31.8264C132.384 31.6797 132.209 31.5636 132.016 31.4848C131.822 31.4059 131.616 31.366 131.407 31.3672C131.198 31.366 130.991 31.4059 130.798 31.4848C130.605 31.5636 130.429 31.6797 130.281 31.8264C129.102 33.1849 128.041 34.6418 127.11 36.1811C126.921 36.543 126.879 36.9641 126.992 37.3563C127.106 37.7486 127.368 38.0817 127.722 38.2861C128.076 38.4905 128.495 38.5503 128.892 38.4532C129.29 38.356 129.634 38.1093 129.853 37.7646C130.408 36.8464 131.011 35.9584 131.661 35.1043C131.946 34.7401 132.231 34.3917 132.533 34.0434C132.811 33.7455 132.974 33.358 132.992 32.9507Z" fill="#562312"/>
<path d="M136.275 57.4005C136.066 57.0427 135.724 56.7812 135.324 56.6721H134.912C134.629 56.6674 134.349 56.7384 134.103 56.8779L132.2 58.2873C131.857 58.5128 131.6 58.8476 131.471 59.2374C131.416 59.4395 131.416 59.6528 131.471 59.855C131.486 60.0678 131.551 60.274 131.661 60.4567C131.871 60.8145 132.212 61.076 132.613 61.1851H133.025C133.308 61.1899 133.587 61.1188 133.834 60.9793L135.736 59.5699C135.919 59.4765 136.073 59.3339 136.18 59.1582C136.32 59.0066 136.419 58.821 136.465 58.6198C136.521 58.4124 136.521 58.1939 136.465 57.9864C136.463 57.7763 136.397 57.5718 136.275 57.4005Z" fill="#562312"/>
<path d="M132.426 86.7903C130.84 85.476 129.255 84.2092 127.669 83.0057C127.488 82.8967 127.286 82.8251 127.076 82.7952C126.867 82.7653 126.653 82.7776 126.448 82.8315C126.055 82.9545 125.718 83.2125 125.497 83.5599C125.391 83.7424 125.322 83.9442 125.294 84.1536C125.267 84.363 125.282 84.5757 125.339 84.7793C125.462 85.1721 125.72 85.5087 126.068 85.7294L127.304 86.6636C128.303 87.4396 129.27 88.2472 130.238 89.0389C130.54 89.3208 130.934 89.484 131.347 89.4982C131.556 89.4994 131.763 89.4594 131.956 89.3806C132.149 89.3018 132.325 89.1857 132.473 89.0389C132.62 88.891 132.736 88.7155 132.815 88.5226C132.894 88.3296 132.934 88.123 132.933 87.9146C132.928 87.7029 132.88 87.4942 132.793 87.3011C132.706 87.108 132.581 86.9343 132.426 86.7903Z" fill="#562312"/>
<path d="M88.5189 52.6426L93.476 55.6777C93.476 55.6777 92.5115 58.3007 88.207 60.6786" stroke="#2F0908" stroke-width="3" stroke-linecap="round" stroke-linejoin="round"/>
<path d="M117.843 50.7565L113.841 54.9712C113.841 54.9712 115.451 57.2552 120.224 58.438" stroke="#2F0908" stroke-width="3" stroke-linecap="round" stroke-linejoin="round"/>
<path d="M102.68 79.2402C94.0796 79.9043 90.1406 74.4362 89.2461 71.6191L116.996 69.225C115.808 72.2867 111.28 78.5761 102.68 79.2402Z" stroke="#2F0908" stroke-width="3" stroke-linecap="round" stroke-linejoin="round"/>
</g>
<defs>
<clipPath id="clip0_1217_31381">
<rect width="196" height="150" fill="white"/>
</clipPath>
</defs>
</svg>
