<svg width="196" height="150" viewBox="0 0 196 150" fill="none" xmlns="http://www.w3.org/2000/svg">
<path d="M50.875 107.173C50.8758 104.669 50.9883 47.9183 51.5898 46.9699C59.5788 36.5163 76.1768 13.355 78.657 12.9734C81.7572 12.4965 166.179 16.0737 168.802 16.193C170.9 16.2884 171.823 17.6631 172.021 18.3385C171.461 35.6986 170.326 70.7196 170.266 71.9226C170.206 73.1256 150.924 99.8099 141.291 113.002C141.159 113.182 140.273 114.375 137.919 114.446C133.984 114.565 60.5326 111.584 56.1208 111.227C51.7089 110.869 50.8742 109.676 50.875 107.173Z" fill="#BD8C40"/>
<path fill-rule="evenodd" clip-rule="evenodd" d="M79.1818 14.9413C79.0248 15.0627 78.8014 15.2583 78.5069 15.5459C77.866 16.1717 77.0297 17.0937 76.0289 18.2715C74.0345 20.6183 71.5035 23.8418 68.7785 27.4088C66.0577 30.9704 63.1632 34.8484 60.4443 38.4966C60.242 38.768 60.0407 39.0382 59.8405 39.3069C58.294 41.3821 56.813 43.3696 55.4676 45.1602L141.594 49.4427L169.366 18.3105C169.194 18.2491 168.979 18.2031 168.711 18.1909C167.406 18.1316 145.649 17.2077 123.83 16.3581C112.921 15.9334 102.001 15.5274 93.6168 15.2575C89.4235 15.1225 85.8707 15.0217 83.2728 14.9695C81.9725 14.9434 80.9209 14.9297 80.1514 14.9297C79.7657 14.9297 79.4619 14.9331 79.2384 14.9395C79.2184 14.9401 79.1995 14.9407 79.1818 14.9413ZM169.844 23.7831L144.436 52.2658C144.145 68.0464 143.638 95.7239 143.45 106.641C147.841 100.599 153.139 93.2656 157.739 86.8062C160.753 82.5739 163.461 78.7258 165.417 75.865C166.396 74.4321 167.177 73.2622 167.71 72.4213C167.974 72.0039 168.163 71.6905 168.282 71.4765C168.411 67.9994 169.281 41.235 169.844 23.7831ZM168.379 71.2923C168.378 71.295 168.376 71.3002 168.372 71.3078C168.39 71.2619 168.397 71.2529 168.379 71.2923ZM139.395 112.059C139.394 111.971 139.391 111.873 139.387 111.753L139.387 111.734C139.382 111.589 139.377 111.41 139.377 111.227C139.377 110.003 140.047 73.3142 140.415 53.389L53.4147 49.0631C53.4047 49.2888 53.3949 49.5346 53.3851 49.7999C53.3252 51.4274 53.2717 53.7162 53.2242 56.4592C53.1292 61.9415 53.0588 69.1942 53.0071 76.5021C52.9037 91.1163 52.8754 105.925 52.875 107.173C52.8747 108.253 53.0672 108.419 53.1478 108.488L53.1497 108.49C53.3865 108.694 54.1182 109.058 56.2824 109.233C58.4346 109.408 77.835 110.24 97.2785 111.017C116.757 111.795 135.984 112.504 137.858 112.447C138.688 112.422 139.155 112.207 139.385 112.064C139.388 112.063 139.392 112.061 139.395 112.059ZM79.3203 14.842C79.3365 14.8318 79.3443 14.8278 79.3442 14.8284C79.344 14.8289 79.3359 14.8341 79.3203 14.842ZM123.986 12.3612C145.809 13.2108 167.575 14.1351 168.893 14.195C171.969 14.3349 173.538 16.407 173.94 17.774L174.031 18.082L174.02 18.403C173.461 35.7414 172.325 70.7959 172.264 72.0225C172.242 72.4605 172.076 72.8265 172.036 72.9148L172.031 72.9254C171.959 73.0863 171.872 73.2524 171.786 73.4075C171.611 73.7229 171.371 74.1159 171.088 74.5628C170.518 75.463 169.706 76.6782 168.719 78.1223C166.741 81.0154 164.016 84.8884 160.998 89.1265C154.959 97.6057 147.725 107.582 142.906 114.181C142.54 114.683 141.142 116.349 137.979 116.445C135.919 116.507 116.453 115.786 97.1189 115.014C77.75 114.24 58.2188 113.403 55.9591 113.22C53.7115 113.038 51.8199 112.626 50.5366 111.519C49.0959 110.276 48.8746 108.587 48.875 107.172C48.8754 105.916 48.9037 91.0979 49.0072 76.4738C49.0589 69.1626 49.1294 61.8933 49.2248 56.3899C49.2724 53.6401 49.3264 51.3201 49.3878 49.6528C49.4184 48.822 49.4514 48.1346 49.4879 47.6305C49.5059 47.3821 49.5266 47.1503 49.5521 46.9572C49.5645 46.8633 49.5822 46.7456 49.6087 46.6251C49.609 46.6237 49.6095 46.6216 49.61 46.6189C49.6219 46.562 49.6917 46.2285 49.9009 45.8986L49.9477 45.8249L50.0008 45.7555C51.8421 43.346 54.1453 40.2553 56.638 36.9102C56.8365 36.6438 57.0362 36.3758 57.237 36.1063C59.9547 32.4598 62.8626 28.5636 65.5999 24.9805C68.3331 21.4028 70.9159 18.111 72.9808 15.6812C74.0097 14.4706 74.9394 13.4388 75.7122 12.6841C76.096 12.3093 76.4773 11.967 76.8387 11.6983C77.1218 11.4878 77.6733 11.1012 78.3529 10.9967C78.7339 10.9381 79.427 10.9297 80.1515 10.9297C80.9605 10.9297 82.043 10.9441 83.353 10.9704C85.9755 11.023 89.5473 11.1244 93.7455 11.2595C102.144 11.5299 113.074 11.9363 123.986 12.3612Z" fill="#886126"/>
<path d="M131.164 64.4742C131.031 63.9913 130.712 63.5811 130.277 63.3339C129.842 63.0867 129.327 63.0227 128.845 63.156C128.363 63.2894 127.953 63.6092 127.706 64.045C127.46 64.4808 127.396 64.9969 127.529 65.4799C129.245 71.6057 129.883 77.9839 129.415 84.3289C129.415 84.8276 129.611 85.306 129.962 85.6599C130.313 86.0138 130.789 86.2143 131.287 86.2179C131.784 86.2109 132.26 86.0096 132.612 85.6569C132.964 85.3041 133.165 84.8277 133.172 84.3289C133.654 77.6442 132.975 70.9264 131.164 64.4742Z" fill="#D2BB8A"/>
<path d="M131.003 94.4805C130.503 94.4805 130.023 94.6795 129.669 95.0337C129.316 95.388 129.117 95.8685 129.117 96.3694C129.117 96.8704 129.316 97.3509 129.669 97.7052C130.023 98.0594 130.503 98.2584 131.003 98.2584C131.503 98.2584 131.982 98.0594 132.336 97.7052C132.69 97.3509 132.888 96.8704 132.888 96.3694C132.888 95.8685 132.69 95.388 132.336 95.0337C131.982 94.6795 131.503 94.4805 131.003 94.4805Z" fill="#D2BB8A"/>
<path d="M83.469 26.8289C83.2169 26.3966 82.8039 26.0822 82.3206 25.9548C81.8374 25.8274 81.3234 25.8974 80.8916 26.1494C78.3956 28.0112 75.9674 29.9409 73.5799 31.9386C73.4011 32.1167 73.2592 32.3285 73.1623 32.5617C73.0655 32.7949 73.0156 33.045 73.0156 33.2976C73.0156 33.5502 73.0655 33.8003 73.1623 34.0335C73.2592 34.2668 73.4011 34.4785 73.5799 34.6566C73.944 35.0087 74.4304 35.2054 74.9364 35.2054C75.4425 35.2054 75.9288 35.0087 76.293 34.6566C77.3917 33.7189 78.5177 32.7948 79.6571 31.9386L80.4982 31.2863L80.9187 30.9466L81.0408 30.8515L82.8043 29.4925C83.2335 29.2145 83.547 28.7893 83.686 28.2966C83.7483 28.0497 83.7612 27.7929 83.7239 27.541C83.6867 27.2891 83.6 27.0471 83.469 26.8289Z" fill="#886126"/>
<path d="M86.6726 32.6739C86.4161 32.2462 86.0011 31.9376 85.5182 31.8154C85.0353 31.6931 84.5237 31.7673 84.0952 32.0216C83.0203 32.7843 82.041 33.6741 81.1787 34.6716C81.0023 34.8453 80.8718 35.0601 80.7989 35.2968C80.679 35.5266 80.6272 35.7859 80.6496 36.0442C80.6504 36.2972 80.7011 36.5475 80.7989 36.7808C80.8967 37.014 81.0396 37.2256 81.2194 37.4032C81.3991 37.5772 81.6117 37.7137 81.8445 37.8047C82.0774 37.8957 82.326 37.9393 82.5759 37.9332C82.8294 37.9389 83.0812 37.891 83.3149 37.7926C83.5486 37.6943 83.759 37.5477 83.9324 37.3624C84.5163 36.68 85.1611 36.0523 85.8587 35.487L86.0893 35.3104C86.3015 35.196 86.4794 35.0272 86.6048 34.8211C86.7778 34.6353 86.8952 34.4046 86.9439 34.1552C86.9994 33.9027 87.0039 33.6416 86.9573 33.3872C86.9108 33.1328 86.814 32.8903 86.6726 32.6739Z" fill="#886126"/>
<path d="M161.164 58.1488C160.964 57.6955 160.597 57.3368 160.14 57.147C159.683 56.9572 159.171 56.951 158.709 57.1295C154.467 58.528 150.34 60.2546 146.365 62.2937C145.943 62.5102 145.619 62.8776 145.456 63.3229C145.292 63.7682 145.302 64.2587 145.483 64.697C145.664 65.1353 146.004 65.4892 146.433 65.6885C146.863 65.8878 147.352 65.9178 147.803 65.7726C151.775 63.7323 155.903 62.0101 160.147 60.6221C160.607 60.427 160.972 60.0578 161.163 59.5948C161.353 59.1318 161.354 58.6122 161.164 58.1488Z" fill="#886126"/>
<path d="M158.527 69.4601C158.382 68.9831 158.057 68.5815 157.621 68.3404C157.186 68.0994 156.673 68.0379 156.193 68.1691L147.932 71.784C147.47 71.9317 147.075 72.2402 146.82 72.6537C146.694 72.8719 146.614 73.113 146.584 73.3628C146.554 73.6126 146.574 73.866 146.643 74.1078C146.707 74.3497 146.817 74.5768 146.967 74.776C147.118 74.9752 147.307 75.1427 147.522 75.269C147.737 75.3952 147.976 75.4776 148.223 75.5116C148.47 75.5455 148.722 75.5303 148.963 75.4668L157.238 71.8655C157.7 71.7102 158.094 71.3977 158.35 70.9822C158.482 70.754 158.565 70.5012 158.596 70.2394C158.626 69.9777 158.602 69.7124 158.527 69.4601Z" fill="#886126"/>
<path d="M30.4951 95.8519C27.3389 84.0741 24.5038 72.2147 21.9897 60.2738C21.2752 56.9126 20.5924 53.5469 19.9413 50.1766C19.6022 48.4643 16.9841 49.1845 17.3232 50.8969C19.6564 62.874 22.3107 74.7741 25.286 86.5972C26.118 89.9222 26.9817 93.2472 27.877 96.5722C27.9723 96.92 28.2017 97.2156 28.5146 97.394C28.8275 97.5724 29.1983 97.619 29.5455 97.5235C29.8927 97.4279 30.1878 97.1982 30.3659 96.8847C30.544 96.5712 30.5904 96.1997 30.4951 95.8519Z" fill="#515050"/>
<path d="M21.6516 22.2859L4.95092 25.9277C4.06546 26.1208 3.5039 26.9964 3.69664 27.8835L10.4229 58.8404C10.6156 59.7275 11.4896 60.2901 12.3751 60.097L29.0758 56.4552C29.9613 56.2621 30.5228 55.3865 30.3301 54.4994L23.6039 23.5425C23.4111 22.6554 22.5371 22.0928 21.6516 22.2859Z" fill="#251105"/>
<path d="M12.297 28.2722L7.10547 29.4043L8.23551 34.6052L13.427 33.4731L12.297 28.2722Z" fill="#4D200F"/>
<path d="M20.2736 26.4167L15.082 27.5488L16.2121 32.7497L21.4036 31.6177L20.2736 26.4167Z" fill="#4D200F"/>
<path d="M14.0704 35.4421L8.87891 36.5742L10.0089 41.7751L15.2005 40.6431L14.0704 35.4421Z" fill="#4D200F"/>
<path d="M22.0509 33.6062L16.8594 34.7383L17.9894 39.9392L23.1809 38.8071L22.0509 33.6062Z" fill="#4D200F"/>
<path d="M15.8478 42.6277L10.6562 43.7598L11.7863 48.9607L16.9778 47.8286L15.8478 42.6277Z" fill="#4D200F"/>
<path d="M23.8283 40.7917L18.6367 41.9238L19.7668 47.1247L24.9583 45.9927L23.8283 40.7917Z" fill="#4D200F"/>
<path d="M17.4142 49.9109L12.2227 51.043L13.3527 56.2439L18.5442 55.1118L17.4142 49.9109Z" fill="#4D200F"/>
<path d="M25.4142 48.0554L20.2227 49.1875L21.3527 54.3884L26.5442 53.2563L25.4142 48.0554Z" fill="#4D200F"/>
<path d="M48.2345 76.6431C41.3208 78.2639 36.228 83.84 31.6334 88.8838C31.2751 89.3352 30.7587 89.6329 30.1892 89.7163C29.6197 89.7998 29.0396 89.6629 28.5669 89.3332C28.104 88.9825 27.7973 88.4634 27.7129 87.888C27.6286 87.3127 27.7735 86.7274 28.1162 86.2586C33.5898 80.2563 39.4004 74.2342 47.5968 72.2921C48.1722 72.2078 48.7577 72.3561 49.2244 72.7044C49.6911 73.0528 50.0008 73.5726 50.0853 74.1496C50.1699 74.7266 50.0224 75.3134 49.6753 75.781C49.3282 76.2486 48.81 76.5588 48.2345 76.6431Z" fill="#2F0908"/>
<path d="M151.516 72.7201C158.321 74.7494 163.073 80.6187 167.359 85.9271C167.69 86.399 168.188 86.7269 168.751 86.8441C169.315 86.9613 169.902 86.8591 170.394 86.5582C170.877 86.2357 171.214 85.7357 171.332 85.1664C171.451 84.5971 171.341 84.0042 171.027 83.5158C165.92 77.1984 160.478 70.8412 152.412 68.4148C151.842 68.2963 151.249 68.4095 150.762 68.7295C150.276 69.0494 149.936 69.5499 149.817 70.1208C149.698 70.6918 149.811 71.2863 150.129 71.7738C150.448 72.2612 150.947 72.6016 151.516 72.7201Z" fill="#2F0908"/>
<path d="M136.045 12.6157C128.442 13.3219 125.317 17.3125 123.623 19.8931C119.628 25.2578 123.324 32.3566 128.31 32.3388C133.295 32.321 133.999 35.9286 133.463 38.0006C132.927 40.0725 134.181 42.0918 136.786 42.022C139.391 41.9522 141.568 41.6834 144.405 42.1853C147.243 42.6871 147.808 45.9547 151.984 47.0857C156.16 48.2167 159.465 41.2961 161.877 38.6957C164.29 36.0953 166.827 36.0088 172.052 35.4382C177.277 34.8676 179.011 23.1159 173.069 18.0208C167.126 12.9257 143.368 11.9354 136.045 12.6157Z" fill="#4D200F"/>
<path fill-rule="evenodd" clip-rule="evenodd" d="M154.866 15.1415C147.35 14.3507 139.72 14.2829 136.23 14.6071C132.77 14.9285 130.433 15.9817 128.792 17.1709C127.135 18.372 126.088 19.7832 125.296 20.9905L125.263 21.0401L125.228 21.0876C123.694 23.1471 123.645 25.4979 124.437 27.346C125.258 29.2604 126.818 30.3441 128.303 30.3388C131.324 30.328 133.47 31.4536 134.648 33.3175C135.744 35.0515 135.77 37.0693 135.4 38.5015C135.265 39.0238 135.385 39.4 135.541 39.6068C135.673 39.7811 135.986 40.0427 136.733 40.0227C137.225 40.0095 137.722 39.987 138.226 39.964C140.196 39.8744 142.286 39.7793 144.754 40.2159C146.736 40.5664 148 41.8568 148.877 42.7511C148.957 42.8336 149.035 42.9127 149.11 42.9874C150.057 43.9378 150.937 44.7299 152.508 45.1552C152.921 45.2672 153.367 45.2181 153.966 44.8781C154.609 44.5133 155.313 43.8718 156.078 42.9842C156.834 42.1067 157.552 41.1075 158.276 40.0978L158.334 40.0161C159.005 39.0802 159.723 38.0774 160.412 37.3354C163.18 34.352 166.294 34.0282 170.592 33.5816C170.996 33.5396 171.41 33.4965 171.836 33.45C172.353 33.3935 172.971 33.0494 173.565 32.1172C174.161 31.1831 174.608 29.8251 174.758 28.2384C175.062 25.0128 174.095 21.5347 171.767 19.5391C170.659 18.5886 168.455 17.659 165.319 16.8707C162.266 16.1033 158.612 15.5357 154.866 15.1415ZM166.295 12.9914C169.514 13.8006 172.508 14.9055 174.371 16.5024C177.986 19.602 179.124 24.5473 178.74 28.6139C178.546 30.6735 177.951 32.6788 176.938 34.2678C175.924 35.8588 174.365 37.1976 172.27 37.4264C172.016 37.4542 171.769 37.4809 171.531 37.5067C166.622 38.0392 165.058 38.2088 163.344 40.056C162.846 40.5926 162.269 41.3929 161.527 42.4277L161.51 42.4513C160.809 43.43 159.994 44.5677 159.107 45.5958C158.223 46.6219 157.167 47.661 155.94 48.3571C154.67 49.0778 153.137 49.4697 151.462 49.0161C148.856 48.3105 147.365 46.9033 146.277 45.8117C145.123 44.6542 144.73 44.2737 144.058 44.1547C142.064 43.802 140.504 43.8707 138.605 43.9544C138.052 43.9788 137.47 44.0044 136.84 44.0213C134.981 44.0711 133.365 43.358 132.353 42.0221C131.366 40.7187 131.127 39.0493 131.527 37.4997C131.693 36.8599 131.635 36.0379 131.267 35.4545C130.98 35.0011 130.281 34.3318 128.317 34.3388C124.817 34.3513 122.036 31.8945 120.761 28.9227C119.465 25.8998 119.557 22.0423 121.983 18.7478C122.884 17.379 124.241 15.5293 126.445 13.9321C128.691 12.3043 131.717 11.0091 135.86 10.6243C139.694 10.2681 147.604 10.3553 155.284 11.1634C159.136 11.5687 162.993 12.1614 166.295 12.9914Z" fill="#251105"/>
<path d="M80.09 115.006C80.25 112.186 75.8821 111.938 75.7222 114.758L75.1772 120.505C75.0405 122.916 74.8318 125.308 74.6514 127.717C74.5835 128.915 74.5147 130.128 74.4467 131.326L74.3639 132.788C73.9696 132.722 73.5693 132.699 73.17 132.72C71.9565 132.861 70.8109 133.357 69.8758 134.146C69.5972 134.405 69.3897 134.732 69.2733 135.096C69.1569 135.459 69.1355 135.846 69.2111 136.219C69.2867 136.593 69.4568 136.941 69.7051 137.23C69.9533 137.519 70.2714 137.738 70.6287 137.868C72.3078 138.558 74.1753 138.633 75.9042 138.079C76.3497 137.945 76.7655 137.758 77.1333 137.426C77.428 137.226 77.7145 136.866 77.9675 136.546C78.2205 136.226 78.3568 135.842 78.4493 135.444C78.7089 133.961 78.8786 130.962 78.8786 130.962L79.2413 125.852L80.09 115.006Z" fill="#2F0908"/>
<path d="M123.838 116.05C123.802 113.225 119.427 113.281 119.463 116.105L119.317 121.876C119.348 124.29 119.306 126.691 119.292 129.107C119.308 130.307 119.323 131.522 119.338 132.722L119.357 134.185C118.959 134.147 118.558 134.152 118.161 134.2C116.96 134.425 115.852 134.999 114.974 135.851C114.714 136.129 114.529 136.47 114.438 136.84C114.347 137.21 114.353 137.598 114.454 137.966C114.555 138.333 114.749 138.669 115.017 138.939C115.285 139.21 115.617 139.407 115.983 139.512C117.705 140.084 119.574 140.029 121.26 139.357C121.695 139.193 122.097 138.977 122.441 138.621C122.721 138.401 122.982 138.022 123.212 137.685C123.442 137.348 123.552 136.956 123.616 136.552C123.773 135.054 123.734 132.051 123.734 132.051L123.742 126.928L123.838 116.05Z" fill="#2F0908"/>
<path d="M82.9914 71.173C82.9381 71.0028 82.7918 70.6756 82.7918 70.6756C82.7918 70.6756 82.5267 70.148 82.3147 69.933C82.1026 69.7181 81.8302 69.5731 81.5338 69.5175C81.3419 69.4833 81.1451 69.4874 80.9547 69.5296C80.7643 69.5719 80.5841 69.6513 80.4244 69.7635C80.2647 69.8756 80.1286 70.0182 80.024 70.1832C79.9193 70.3482 79.8481 70.5322 79.8145 70.7248C79.5035 72.2262 79.5116 73.7764 79.8384 75.2744C79.8876 75.5986 80.0297 75.9016 80.2474 76.1464C80.4573 76.3909 80.7483 76.551 81.0668 76.5973C81.3871 76.6517 81.7164 76.5991 82.004 76.4476C82.2916 76.296 82.5216 76.0539 82.6586 75.7585C82.9782 75.1007 83.1762 74.3903 83.2428 73.6617C83.3078 72.8237 83.2226 71.9808 82.9914 71.173Z" fill="#2F0908"/>
<path d="M102.286 71.4658C102.233 71.2956 102.087 70.9684 102.087 70.9684C102.087 70.9684 101.822 70.4408 101.61 70.2258C101.398 70.0109 101.125 69.866 100.829 69.8103C100.637 69.7761 100.44 69.7803 100.25 69.8225C100.059 69.8647 99.879 69.9442 99.7193 70.0563C99.5596 70.1685 99.4235 70.3111 99.3189 70.476C99.2142 70.641 99.1431 70.8251 99.1095 71.0176C98.7984 72.519 98.8065 74.0693 99.1333 75.5672C99.1826 75.8915 99.3246 76.1944 99.5423 76.4393C99.7522 76.6837 100.043 76.8439 100.362 76.8901C100.682 76.9446 101.011 76.892 101.299 76.7404C101.587 76.5889 101.817 76.3468 101.954 76.0514C102.273 75.3936 102.471 74.6831 102.538 73.9545C102.603 73.1165 102.518 72.2737 102.286 71.4658Z" fill="#2F0908"/>
<path d="M90.6678 79.3368C90.6592 79.6934 90.6172 80.2009 90.5296 80.5556C90.4421 80.9103 90.3288 81.3941 89.7532 81.3802C89.1776 81.3663 88.7536 81.1507 88.7294 80.7501C88.4536 79.4755 88.4933 77.0274 88.7931 75.759C88.9734 75.3093 89.2877 74.9168 89.9397 75.0406C90.5917 75.1645 90.5254 75.5737 90.6056 75.9973C90.7781 76.7697 90.7252 78.5361 90.6678 79.3368Z" fill="#2F0908"/>
<path d="M91.5911 88.1038C90.0839 88.0675 87.8181 88.0129 86.5823 87.9831C85.8588 87.9657 85.2923 87.6968 85.3132 86.8266C85.3385 85.7762 85.8559 85.8736 86.4689 85.8035C89.926 85.4079 97.0146 85.5787 97.4631 85.6171C97.7403 85.6408 97.7818 85.675 97.9217 85.7238C98.0615 85.7725 98.1879 85.8531 98.2909 85.9592C98.3938 86.0652 98.4704 86.1938 98.5146 86.3345C98.5587 86.4753 98.5692 86.6244 98.5451 86.7699C98.5271 87.5202 98.0254 87.6882 97.3895 87.793C95.4777 88.14 93.6943 88.1544 91.5911 88.1038Z" fill="#2F0908"/>
</svg>
