<svg width="180" height="150" viewBox="0 0 180 150" fill="none" xmlns="http://www.w3.org/2000/svg">
<g clip-path="url(#clip0_347_14222)">
<path d="M17.5043 27.6846C17.5043 27.6846 7.97449 20.5171 4.2479 31.2551C0.521301 41.993 17.164 51.5792 20.0851 52.1924C23.0062 52.8057 24.9006 53.0131 26.7796 50.5698C28.6587 48.1265 39.2756 32.1387 31.4884 23.9089C25.5256 16.6126 16.542 20.2155 17.5043 27.6846Z" fill="#9F1B87" stroke="#721461" stroke-width="2" stroke-linejoin="round"/>
<path d="M13.6213 39.9275C13.2268 39.3523 12.8756 38.7487 12.5708 38.1216C12.4152 37.8035 12.2748 37.4887 12.1496 37.177C12.0902 37.006 12.0276 36.8502 11.9834 36.6824C11.7823 36.0506 11.6312 35.404 11.5316 34.7486L11.4655 34.3066C11.5051 34.6479 11.4577 34.1304 11.45 34.0022C11.4289 33.6489 11.4197 33.3141 11.429 32.9673C11.4429 32.5497 11.2901 32.1436 11.0042 31.8383C10.7183 31.533 10.3226 31.3535 9.90433 31.3393C9.48603 31.3251 9.07932 31.4773 8.77369 31.7624C8.46806 32.0476 8.28852 32.4424 8.27458 32.8599C8.22114 35.9543 9.15305 38.9865 10.9361 41.5198C11.0341 41.6987 11.1665 41.8565 11.3256 41.9843C11.4847 42.1121 11.6674 42.2073 11.8634 42.2647C12.0593 42.322 12.2647 42.3403 12.4676 42.3184C12.6706 42.2965 12.8672 42.2349 13.0462 42.1372C13.2359 42.0364 13.4026 41.8974 13.5357 41.729C13.6688 41.5605 13.7654 41.3663 13.8195 41.1587C13.8735 40.951 13.8838 40.7343 13.8497 40.5224C13.8156 40.3105 13.7378 40.1079 13.6213 39.9275Z" fill="#E0B1D1"/>
<path d="M15.2187 43.5133C14.8243 43.614 14.4853 43.8653 14.2747 44.2131C14.0641 44.5608 13.9987 44.9773 14.0926 45.3729C14.1864 45.7686 14.432 46.1118 14.7765 46.3287C15.121 46.5457 15.537 46.6191 15.935 46.5332C16.3294 46.4324 16.6684 46.1812 16.879 45.8334C17.0896 45.4857 17.155 45.0692 17.0612 44.6736C16.9674 44.2779 16.7218 43.9347 16.3772 43.7178C16.0327 43.5008 15.6167 43.4274 15.2187 43.5133Z" fill="#E0B1D1"/>
<path d="M164.089 24.9753C164.089 24.9753 159.332 14.0412 150.796 21.5463C142.26 29.0515 152.013 45.5965 154.252 47.5702C156.492 49.5439 158.037 50.6583 160.877 49.4589C163.716 48.2595 180.835 39.5837 178.117 28.5844C176.527 19.2968 166.934 18.0025 164.089 24.9753Z" fill="#9F1B87" stroke="#721461" stroke-width="2" stroke-linejoin="round"/>
<path d="M154.676 33.7129C154.616 33.018 154.609 32.3197 154.652 31.6238C154.674 31.2704 154.707 30.9273 154.752 30.5944C154.784 30.4163 154.807 30.25 154.851 30.0822C154.987 29.4333 155.175 28.7962 155.411 28.1769L155.572 27.7598C155.438 28.0762 155.652 27.6027 155.708 27.4873C155.864 27.1695 156.021 26.8737 156.2 26.5765C156.418 26.2201 156.485 25.7915 156.387 25.3849C156.289 24.9783 156.033 24.6271 155.676 24.4085C155.319 24.1899 154.89 24.1218 154.484 24.2192C154.077 24.3167 153.727 24.5716 153.509 24.928C151.937 27.5939 151.252 30.6914 151.555 33.7745C151.552 33.9784 151.589 34.181 151.665 34.3706C151.74 34.5602 151.852 34.7332 151.994 34.8797C152.137 35.0262 152.306 35.1433 152.494 35.2243C152.681 35.3054 152.882 35.3487 153.086 35.3519C153.301 35.3578 153.515 35.319 153.714 35.2381C153.912 35.1572 154.092 35.0358 154.242 34.8818C154.391 34.7278 154.507 34.5443 154.582 34.3431C154.656 34.1419 154.689 33.9274 154.676 33.7129Z" fill="#E0B1D1"/>
<path d="M154.298 37.62C153.905 37.5132 153.486 37.5647 153.132 37.7635C152.777 37.9622 152.515 38.2923 152.401 38.6828C152.288 39.0732 152.332 39.4929 152.525 39.8515C152.718 40.2101 153.044 40.4791 153.432 40.6005C153.825 40.7073 154.244 40.6558 154.599 40.4571C154.953 40.2584 155.215 39.9283 155.329 39.5378C155.442 39.1473 155.398 38.7277 155.205 38.3691C155.012 38.0104 154.686 37.7415 154.298 37.62Z" fill="#E0B1D1"/>
<path d="M142.432 105.856C140.95 76.1329 140.031 46.4094 139.468 16.6859C139.46 16.1455 139.245 15.6288 138.867 15.2438C138.488 14.8589 137.976 14.6354 137.437 14.6201C106.163 13.6987 74.9323 13.0151 43.6576 12.0936C43.3812 12.0857 43.1059 12.1325 42.8476 12.2313C42.5892 12.3301 42.3527 12.479 42.1518 12.6695C41.9508 12.8599 41.7892 13.0882 41.6763 13.3413C41.5634 13.5944 41.5013 13.8673 41.4936 14.1445C40.5055 47.7024 39.9373 81.2702 39.7891 114.848C39.7929 115.128 39.8521 115.405 39.9631 115.662C40.0741 115.92 40.2348 116.152 40.436 116.347C40.6372 116.542 40.8748 116.695 41.1351 116.797C41.3955 116.9 41.6735 116.949 41.9531 116.943C63.5934 115.933 85.3671 113.064 106.933 111.073C118.08 110.033 129.3 108.65 140.491 107.996C141.025 107.955 141.524 107.71 141.885 107.313C142.246 106.915 142.442 106.394 142.432 105.856Z" fill="#B2569C"/>
<path d="M142.432 105.856C140.95 76.1329 140.031 46.4094 139.468 16.6859C139.46 16.1455 139.245 15.6288 138.867 15.2438C138.488 14.8589 137.976 14.6354 137.437 14.6201C106.163 13.6987 74.9323 13.0151 43.6576 12.0936C43.3812 12.0857 43.1059 12.1325 42.8476 12.2313C42.5892 12.3301 42.3527 12.479 42.1518 12.6695C41.9508 12.8599 41.7892 13.0882 41.6763 13.3413C41.5634 13.5944 41.5013 13.8673 41.4936 14.1445C40.5055 47.7024 39.9373 81.2702 39.7891 114.848C39.7929 115.128 39.8521 115.405 39.9631 115.662C40.0741 115.92 40.2348 116.152 40.436 116.347C40.6372 116.542 40.8748 116.695 41.1351 116.797C41.3955 116.9 41.6735 116.949 41.9531 116.943C63.5934 115.933 85.3671 113.064 106.933 111.073C118.08 110.033 129.3 108.65 140.491 107.996C141.025 107.955 141.524 107.71 141.885 107.313C142.246 106.915 142.442 106.394 142.432 105.856Z" stroke="#892F79" stroke-width="3" stroke-miterlimit="10"/>
<path d="M44.8281 15.7529C46.6809 16.8527 52.4513 20.788 53.5629 21.5311C70.2675 22.1553 82.392 22.0216 99.1114 22.0513H128.578C130.934 20.9664 133.939 19.1622 135.91 18.1219" stroke="#BC78AE" stroke-width="2.5" stroke-miterlimit="10" stroke-linecap="round"/>
<path d="M43.3984 113.079C46.022 111.399 49.8136 108.681 52.452 106.942C52.452 106.942 100.623 103.038 130.255 100.147C132.167 100.98 136.874 103.666 138.578 104.588" stroke="#BC78AE" stroke-width="2.5" stroke-miterlimit="10" stroke-linecap="round"/>
<path d="M52.4492 106.943L53.5609 21.5322" stroke="#BC78AE" stroke-width="2.5" stroke-miterlimit="10" stroke-linecap="round"/>
<path d="M128.574 22.1104L130.496 99.9099" stroke="#BC78AE" stroke-width="2.5" stroke-miterlimit="10" stroke-linecap="round"/>
<path d="M39.1291 70.4879C32.9364 66.8153 29.709 59.8721 26.8014 53.5953C26.5924 53.0496 26.1837 52.6046 25.6583 52.3504C25.1329 52.0963 24.5303 52.0521 23.9727 52.2269C23.4183 52.4252 22.9636 52.8338 22.7068 53.3646C22.4501 53.8953 22.412 54.5055 22.6007 55.0632C26.0666 62.5346 29.8523 70.1276 37.1875 74.5014C37.7184 74.7582 38.3297 74.7931 38.8871 74.5983C39.4445 74.4035 39.9023 73.9951 40.1598 73.4628C40.4172 72.9306 40.4533 72.3182 40.26 71.7603C40.0667 71.2024 39.6599 70.7446 39.1291 70.4879Z" fill="#2F0908"/>
<path d="M142.495 67.4879C148.688 63.8153 151.915 56.8721 154.823 50.5953C155.032 50.0496 155.44 49.6046 155.966 49.3504C156.491 49.0963 157.094 49.0521 157.651 49.2269C158.206 49.4252 158.66 49.8338 158.917 50.3646C159.174 50.8953 159.212 51.5055 159.023 52.0632C155.557 59.5346 151.772 67.1276 144.436 71.5014C143.906 71.7582 143.294 71.7931 142.737 71.5983C142.18 71.4035 141.722 70.9951 141.464 70.4628C141.207 69.9306 141.171 69.3182 141.364 68.7603C141.557 68.2024 141.964 67.7446 142.495 67.4879Z" fill="#2F0908"/>
<path d="M102.922 113.761C102.71 110.944 107.073 110.616 107.284 113.433L107.935 120.169C108.116 122.577 108.368 124.965 108.593 127.37C108.683 128.567 108.774 129.778 108.864 130.975L108.973 132.435C109.366 132.361 109.667 132.329 110.145 132.213C111.393 131.909 112.518 132.017 113.468 132.789C113.751 133.043 113.964 133.366 114.087 133.727C114.211 134.088 114.239 134.475 114.17 134.85C114.102 135.225 113.938 135.576 113.695 135.869C113.452 136.162 113.112 136.343 112.783 136.553C111.307 137.499 109.245 138.336 107.506 137.815C107.058 137.689 106.594 137.439 106.268 137.192C105.942 136.944 105.677 136.642 105.418 136.327C105.159 136.011 105.037 135.562 104.937 135.166C104.651 133.687 104.426 130.692 104.426 130.692L103.969 125.589L102.922 113.761Z" fill="#2F0908"/>
<path d="M79.2084 116.766C79.2697 113.942 74.8958 113.847 74.8345 116.672L74.5906 123.071C74.5382 125.486 74.4132 127.884 74.317 130.297C74.291 131.497 74.2646 132.712 74.2386 133.912L74.2068 135.375C73.8104 135.323 73.5081 135.306 73.0253 135.216C71.7631 134.979 70.6447 135.146 69.7377 135.968C69.4684 136.237 69.2725 136.571 69.1688 136.938C69.0652 137.305 69.0573 137.693 69.1459 138.063C69.2345 138.434 69.4167 138.776 69.6749 139.056C69.9331 139.336 70.2828 139.498 70.6217 139.691C72.1467 140.556 74.2503 141.283 75.9589 140.669C76.3993 140.52 76.8494 140.245 77.1619 139.981C77.4745 139.717 77.7232 139.401 77.9649 139.072C78.2065 138.743 78.3039 138.288 78.3825 137.887C78.5901 136.395 78.6549 133.393 78.6549 133.393L78.839 128.273L79.2084 116.766Z" fill="#2F0908"/>
<path d="M83.8024 49.0924C83.528 49.6842 82.7502 50.8624 81.8336 50.8405C80.9171 50.8186 77.8654 49.3563 76.4541 48.6279" stroke="#080606" stroke-width="2" stroke-linecap="round"/>
<path d="M96.3207 49.0924C96.595 49.6842 97.3729 50.8624 98.2894 50.8405C99.206 50.8186 102.258 49.3563 103.669 48.6279" stroke="#080606" stroke-width="2" stroke-linecap="round"/>
<path d="M91.6172 73.3818C87.6215 73.3818 85.9862 76.1657 85.668 77.5576C89.0616 80.2829 95.1642 78.6931 97.7913 77.5576C97.3981 76.1657 95.6129 73.3818 91.6172 73.3818Z" stroke="#080606" stroke-width="2" stroke-linejoin="round"/>
<path d="M82.6929 54.3802C82.6355 54.2113 82.4814 53.8877 82.4814 53.8877C82.4814 53.8877 82.2037 53.3666 81.9866 53.1569C81.7694 52.9471 81.4936 52.8087 81.1959 52.7602C81.0032 52.7307 80.8065 52.7396 80.6172 52.7864C80.4279 52.8331 80.2497 52.9169 80.0927 53.0329C79.9358 53.1489 79.8032 53.2947 79.7025 53.4621C79.6019 53.6296 79.5351 53.8153 79.5062 54.0086C79.2314 55.5171 79.2768 57.0667 79.6396 58.5563C79.6966 58.8793 79.846 59.1787 80.0694 59.4183C80.2852 59.6576 80.58 59.8107 80.8995 59.8493C81.221 59.896 81.5489 59.8354 81.8328 59.677C82.1167 59.5186 82.3408 59.271 82.4706 58.9724C82.7743 58.3071 82.9551 57.5921 83.0042 56.8621C83.049 56.0228 82.9435 55.1822 82.6929 54.3802Z" fill="#080606"/>
<path d="M76.9931 65.6363C76.9663 65.4502 76.8792 65.0896 76.8792 65.0896C76.8792 65.0896 76.7147 64.5063 76.5626 64.262C76.4105 64.0176 76.2022 63.8445 75.9654 63.7657C75.8118 63.7167 75.6506 63.7085 75.4908 63.7415C75.331 63.7746 75.1758 63.8483 75.0341 63.9584C74.8925 64.0685 74.7672 64.2127 74.6653 64.3831C74.5634 64.5534 74.4871 64.7463 74.4405 64.9508C74.0378 66.5421 73.891 68.2064 74.01 69.8351C74.0182 70.1863 74.1043 70.5205 74.258 70.7973C74.4055 71.0732 74.6275 71.2638 74.8833 71.3339C75.1397 71.413 75.4141 71.3777 75.6642 71.2336C75.9143 71.0894 76.1262 70.8444 76.2674 70.5362C76.5938 69.8508 76.8259 69.1011 76.9524 68.3234C77.0884 67.4282 77.1022 66.5182 76.9931 65.6363Z" fill="#E0B1D1"/>
<path d="M102.896 64.5953C102.922 64.4092 103.01 64.0486 103.01 64.0486C103.01 64.0486 103.174 63.4653 103.326 63.2209C103.478 62.9766 103.687 62.8035 103.923 62.7247C104.077 62.6757 104.238 62.6675 104.398 62.7005C104.558 62.7336 104.713 62.8073 104.855 62.9174C104.996 63.0274 105.122 63.1717 105.223 63.342C105.325 63.5123 105.402 63.7053 105.448 63.9098C105.851 65.5011 105.998 67.1654 105.879 68.7941C105.87 69.1453 105.784 69.4795 105.631 69.7563C105.483 70.0322 105.261 70.2228 105.005 70.2929C104.749 70.372 104.475 70.3367 104.224 70.1926C103.974 70.0484 103.762 69.8034 103.621 69.4952C103.295 68.8098 103.063 68.0601 102.936 67.2824C102.8 66.3872 102.786 65.4772 102.896 64.5953Z" fill="#E0B1D1"/>
<path d="M82.4973 66.0295C82.4672 65.8728 82.3738 65.5684 82.3738 65.5684C82.3738 65.5684 82.1993 65.0757 82.0432 64.8678C81.8871 64.6599 81.6761 64.5109 81.4384 64.4405C81.2843 64.3966 81.1231 64.3868 80.9642 64.4118C80.8053 64.4367 80.6518 64.4958 80.5124 64.5858C80.373 64.6757 80.2504 64.7946 80.1518 64.9358C80.0531 65.077 79.9803 65.2377 79.9375 65.4086C79.5638 66.7378 79.4469 68.1327 79.5945 69.5025C79.6089 69.7976 79.7008 70.0798 79.8591 70.315C80.0111 70.5492 80.2361 70.7132 80.4926 70.7767C80.7499 70.8476 81.0232 70.8228 81.2702 70.7062C81.5172 70.5896 81.7244 70.3876 81.8599 70.1313C82.1735 69.5616 82.3918 68.9361 82.5043 68.2853C82.6242 67.536 82.6218 66.772 82.4973 66.0295Z" fill="#E0B1D1"/>
<path d="M98.1414 65.215C98.1715 65.0583 98.2648 64.754 98.2648 64.754C98.2648 64.754 98.4394 64.2612 98.5955 64.0533C98.7516 63.8455 98.9626 63.6964 99.2003 63.626C99.3544 63.5822 99.5155 63.5724 99.6744 63.5973C99.8333 63.6222 99.9869 63.6814 100.126 63.7713C100.266 63.8612 100.388 63.9802 100.487 64.1214C100.586 64.2626 100.658 64.4233 100.701 64.5942C101.075 65.9233 101.192 67.3183 101.044 68.6881C101.03 68.9831 100.938 69.2653 100.78 69.5005C100.628 69.7348 100.403 69.8988 100.146 69.9622C99.8887 70.0331 99.6155 70.0084 99.3685 69.8918C99.1214 69.7752 98.9142 69.5732 98.7788 69.3169C98.4652 68.7471 98.2469 68.1216 98.1343 67.4708C98.0145 66.7215 98.0169 65.9575 98.1414 65.215Z" fill="#E0B1D1"/>
<path d="M102.119 54.5598C102.061 54.391 101.907 54.0674 101.907 54.0674C101.907 54.0674 101.63 53.5463 101.412 53.3365C101.195 53.1268 100.919 52.9884 100.622 52.9399C100.429 52.9104 100.232 52.9193 100.043 52.966C99.8537 53.0128 99.6755 53.0966 99.5185 53.2126C99.3615 53.3286 99.2289 53.4744 99.1283 53.6418C99.0276 53.8093 98.9609 53.995 98.932 54.1883C98.6572 55.6967 98.7026 57.2463 99.0654 58.736C99.1224 59.059 99.2717 59.3584 99.4952 59.5979C99.711 59.8373 100.006 59.9904 100.325 60.029C100.647 60.0756 100.975 60.0151 101.259 59.8567C101.542 59.6983 101.767 59.4507 101.896 59.1521C102.2 58.4868 102.381 57.7718 102.43 57.0418C102.475 56.2025 102.369 55.3619 102.119 54.5598Z" fill="#080606"/>
<path d="M92.9861 64.82C92.9861 65.3104 92.9471 65.7716 92.8434 66.2621C92.7396 66.7525 92.6062 67.4213 91.8503 67.4213C91.0944 67.4213 90.5311 67.1389 90.4867 66.589C90.0845 64.8461 90.0592 63.037 90.4126 61.2834C90.6349 60.6592 91.0351 60.1093 91.8948 60.2579C92.7545 60.4065 92.6803 60.9713 92.7989 61.5509C93.0498 62.607 93.0363 63.7174 92.9861 64.82Z" fill="#080606"/>
</g>
<defs>
<clipPath id="clip0_347_14222">
<rect width="180" height="150" fill="white"/>
</clipPath>
</defs>
</svg>
