<svg width="130" height="150" viewBox="0 0 130 150" fill="none" xmlns="http://www.w3.org/2000/svg">
<path d="M47.9162 73.8416C38.4664 74.5295 28.9583 75.0711 20.9669 81.394C11.7942 88.6097 9.47552 102.002 19.7127 109.203C29.4396 115.994 42.2726 117.429 53.5889 114.428C59.4163 112.718 65.0819 110.494 70.5197 107.783C75.8716 105.28 81.4423 102.353 85.613 98.0647C88.117 95.5364 90.0608 92.5059 91.3173 89.1716C92.5738 85.8372 93.1147 82.2741 92.9045 78.7155C92.2628 71.851 86.8671 64.9573 79.4153 65.5428C76.7533 65.8526 74.172 66.6566 71.803 67.9139C64.301 71.4313 56.187 73.4449 47.9162 73.8416Z" fill="#7AA7BF"/>
<path d="M47.9158 73.8435C38.4661 74.5314 28.958 75.073 20.9665 81.3959C14.6959 86.3137 10.7585 95.2711 14.3605 102.941C18.4145 111.649 30.8246 113.713 39.6181 114.372C50.7449 115.22 60.6613 112.352 70.5194 107.727C75.8713 105.224 81.4419 102.297 85.6127 98.0081C88.1167 95.4798 90.0605 92.4493 91.317 89.1149C92.5735 85.7806 93.1143 82.2175 92.9041 78.6588C92.2625 71.7944 86.8668 64.9007 79.4149 65.4861C76.753 65.796 74.1716 66.6001 71.8026 67.8573C64.3047 71.3949 56.1905 73.4284 47.9158 73.8435V73.8435Z" stroke="#6B95AF" stroke-width="3" stroke-miterlimit="10"/>
<path d="M54.2744 40.999C43.5267 41.7894 32.7645 42.3895 23.6502 49.5906C13.2088 57.8015 10.5256 73.0087 22.1919 81.1612C33.2604 88.8892 47.8579 90.5284 60.7346 87.1181C67.3629 85.1688 73.8088 82.6418 79.9987 79.5658C86.0943 76.7117 92.4233 73.3746 97.1774 68.4861C100.026 65.6213 102.239 62.1843 103.672 58.4007C105.105 54.6171 105.724 50.5723 105.49 46.5316C104.76 38.7304 98.6211 30.8853 90.1484 31.5293C87.1205 31.8848 84.184 32.7978 81.4861 34.2224C72.9416 38.2377 63.698 40.5397 54.2744 40.999Z" fill="#C2CC68"/>
<path d="M54.2744 40.999C43.5267 41.7894 32.7645 42.3895 23.6502 49.5906C13.2088 57.8016 10.5256 73.0087 22.1919 81.1612C33.2604 88.8892 47.8579 90.5284 60.7346 87.1181C67.3629 85.1688 73.8088 82.6418 79.9987 79.5658C86.0943 76.7117 92.4233 73.3746 97.1774 68.4861C100.026 65.6213 102.239 62.1843 103.672 58.4007C105.105 54.6171 105.724 50.5723 105.49 46.5316C104.76 38.7304 98.6211 30.8853 90.1484 31.5293C87.1205 31.8848 84.184 32.7978 81.4861 34.2224C72.9416 38.2377 63.698 40.5397 54.2744 40.999V40.999Z" stroke="#ACB95F" stroke-width="3" stroke-miterlimit="10"/>
<path d="M60.2666 13.087C49.5335 13.8773 38.7713 14.4774 29.6424 21.6785C19.201 29.8895 16.5178 45.0967 28.1841 53.2491C39.2671 60.9771 53.8647 62.6164 66.7414 59.2061C73.368 57.2518 79.8135 54.7249 86.0055 51.6538C92.0865 48.7997 98.4301 45.4626 103.17 40.574C106.02 37.7099 108.236 34.2735 109.671 30.49C111.106 26.7065 111.728 22.6612 111.496 18.6195C110.767 10.8037 104.613 2.97326 96.1552 3.61726C93.1273 3.97278 90.1908 4.88574 87.4929 6.31035C78.9432 10.3257 69.6949 12.6277 60.2666 13.087Z" fill="#DAA193"/>
<path d="M60.2666 13.087C49.5335 13.8773 38.7713 14.4774 29.6424 21.6785C19.201 29.8895 16.5178 45.0967 28.1841 53.2491C39.2671 60.9771 53.8647 62.6164 66.7414 59.2061C73.368 57.2518 79.8135 54.7249 86.0055 51.6538C92.0866 48.7997 98.4301 45.4626 103.17 40.574C106.02 37.7099 108.236 34.2735 109.671 30.49C111.106 26.7065 111.728 22.6612 111.496 18.6195C110.767 10.8037 104.613 2.97326 96.1552 3.61726C93.1273 3.97278 90.1908 4.88574 87.4929 6.31035C78.9432 10.3257 69.6949 12.6277 60.2666 13.087Z" stroke="#DB907B" stroke-width="3" stroke-miterlimit="10"/>
<path d="M70.5033 8.87004C71.2159 8.09055 72.1091 7.49969 73.1038 7.14989C74.0984 6.80009 75.1638 6.70219 76.2053 6.86487C78.6024 7.11935 81.0226 6.69338 83.1905 5.63542C87.9445 3.27897 97.5547 -1.87303 102.367 3.07406C103.248 4.12675 103.824 5.40294 104.029 6.7624C104.628 10.6387 104.974 14.55 105.065 18.4715C105.408 22.3302 105.539 26.2049 105.459 30.0781C105.386 34.5052 104.897 38.9156 104 43.2508C103.227 46.8221 102.002 51.5936 99.0421 54.0232C98.5067 54.4972 97.8165 54.7576 97.1026 54.755C96.6112 54.6725 96.1437 54.483 95.733 54.1998C95.3224 53.9166 94.9785 53.5466 94.7256 53.1157C91.6923 48.7248 92.1298 41.2896 92.6402 36.2254C92.8006 34.6593 92.159 34.4251 91.1819 35.5082C90.4528 36.3571 90.0299 37.5866 88.8778 37.9818C88.2698 38.1508 87.6198 38.0719 87.0695 37.7622C84.8092 36.6352 83.6863 33.6933 83.3655 31.3368C82.9426 28.0876 83.7009 24.6041 82.6217 21.472C81.9782 22.4684 81.5371 23.5825 81.3238 24.7505C80.9559 25.8856 80.3206 26.9148 79.4718 27.7509C76.0157 30.8831 72.4429 26.2873 71.6116 23.1258C71.0575 20.9304 71.145 18.5301 70.4012 16.3931C69.6575 14.2562 68.7971 12.734 69.5992 10.4654C69.8177 9.89042 70.1226 9.35241 70.5033 8.87004Z" fill="#3B260E"/>
<path d="M53.6289 61.5619V65.4405C53.6327 65.711 53.7414 65.9695 53.9321 66.1608C54.1227 66.3521 54.3802 66.4613 54.6497 66.4651C54.9181 66.4577 55.1735 66.3474 55.3634 66.1568C55.5533 65.9663 55.6631 65.7099 55.6705 65.4405V61.5619C55.6705 61.2901 55.563 61.0296 55.3715 60.8374C55.1801 60.6453 54.9205 60.5374 54.6497 60.5374C54.379 60.5374 54.1193 60.6453 53.9279 60.8374C53.7364 61.0296 53.6289 61.2901 53.6289 61.5619Z" fill="#080606"/>
<path d="M40.9531 63.4963C37.2052 63.4963 37.1907 69.3509 40.9531 69.3509C44.7154 69.3509 44.7154 63.4963 40.9531 63.4963Z" fill="#C33F1D"/>
<path d="M71.4937 61.3889C67.7313 61.3889 67.7313 67.2435 71.4937 67.2435C75.2561 67.2435 75.2561 61.3889 71.4937 61.3889Z" fill="#C33F1D"/>
<path d="M11.0749 68.9826C5.19461 75.3338 1.35772 83.3161 0.064797 91.8885C-0.0722899 92.4507 0.00991576 93.0442 0.294569 93.5476C0.579222 94.0509 1.04482 94.4261 1.59603 94.5962C2.15475 94.7447 2.74926 94.6668 3.25125 94.3793C3.75325 94.0918 4.12248 93.6177 4.27929 93.0594C5.39136 85.2271 8.83804 77.9156 14.1665 72.0855C16.0769 70.0218 12.9999 66.9042 11.0749 68.9826Z" fill="#1F0E0B"/>
<path d="M105.326 61.202C116.541 63.1193 126.326 52.7802 129.024 42.6811C129.159 42.1265 129.074 41.5408 128.787 41.0481C128.499 40.5555 128.031 40.1948 127.483 40.0425C126.935 39.8901 126.349 39.9582 125.85 40.2322C125.351 40.5062 124.977 40.9647 124.809 41.5102C123.713 45.6252 121.478 49.3446 118.364 52.2386C115.243 55.1659 110.708 57.7273 106.304 56.9808C105.753 56.8397 105.17 56.9119 104.67 57.1832C104.17 57.4544 103.79 57.9047 103.606 58.4444C103.461 59.007 103.54 59.6038 103.826 60.1091C104.112 60.6143 104.582 60.9883 105.137 61.1522L105.326 61.202Z" fill="#1F0E0B"/>
<path d="M43.0537 117.004C43.0537 114.179 38.6788 114.179 38.6788 117.004L38.4601 131.772C38.4601 134.187 38.3872 136.587 38.3434 139.002C38.3434 140.202 38.3434 141.417 38.3434 142.617V144.081C37.946 144.037 37.5451 144.037 37.1476 144.081C35.944 144.29 34.8283 144.85 33.9394 145.691C33.6759 145.966 33.4873 146.304 33.3917 146.673C33.296 147.042 33.2965 147.43 33.3932 147.799C33.4898 148.168 33.6794 148.506 33.9436 148.78C34.2078 149.054 34.5377 149.255 34.9019 149.365C36.6172 149.958 38.486 149.927 40.1809 149.277C40.618 149.118 41.0226 148.907 41.371 148.555C41.6539 148.338 41.9195 147.963 42.154 147.629C42.3885 147.295 42.5028 146.904 42.5727 146.502C42.7479 145.006 42.7475 142.002 42.7475 142.002L42.8204 136.88L43.0537 117.004Z" fill="#1F0E0B"/>
<path d="M69.8154 111.849C69.8154 109.025 65.4405 109.025 65.4405 111.849L65.2218 126.617C65.2218 129.032 65.1489 131.433 65.1051 133.848C65.1051 135.048 65.1051 136.263 65.1051 137.463V138.927C64.7077 138.883 64.3068 138.883 63.9094 138.927C62.7058 139.136 61.59 139.696 60.7011 140.537C60.4376 140.811 60.249 141.15 60.1534 141.519C60.0577 141.888 60.0583 142.276 60.1549 142.645C60.2515 143.013 60.4411 143.351 60.7053 143.625C60.9695 143.9 61.2995 144.101 61.6636 144.21C63.379 144.804 65.2477 144.773 66.9426 144.122C67.3797 143.963 67.7843 143.753 68.1327 143.401C68.4156 143.184 68.6812 142.809 68.9157 142.475C69.1502 142.141 69.2645 141.75 69.3344 141.348C69.5096 139.852 69.5092 136.848 69.5092 136.848L69.5821 131.725L69.8154 111.849Z" fill="#1F0E0B"/>
<path d="M44.3993 71.385C47.6011 74.2103 51.7612 75.6944 56.0214 75.531C60.2817 75.3676 64.3169 73.5692 67.2945 70.5068C68.5923 69.1456 66.5361 67.0672 65.2383 68.4284C62.8146 70.959 59.5173 72.4617 56.024 72.6277C52.5306 72.7938 49.1066 71.6106 46.4555 69.3213C44.9972 68.0918 42.9847 70.1555 44.3993 71.385Z" fill="#080606"/>
<path d="M42.6361 52.8585L47.5931 55.8937C47.5931 55.8937 46.6287 58.5166 42.3242 60.8945" stroke="#080606" stroke-width="3" stroke-linecap="round" stroke-linejoin="round"/>
<path d="M70.48 51.4705L66.4774 55.6852C66.4774 55.6852 68.0879 57.9691 72.8611 59.1519" stroke="#080606" stroke-width="3" stroke-linecap="round" stroke-linejoin="round"/>
</svg>
