<svg width="150" height="150" viewBox="0 0 150 150" fill="none" xmlns="http://www.w3.org/2000/svg">
<path d="M74.8529 114.933C102.955 114.933 125.737 92.1142 125.737 63.9663C125.737 35.8184 102.955 13 74.8529 13C46.7504 13 23.9688 35.8184 23.9688 63.9663C23.9688 92.1142 46.7504 114.933 74.8529 114.933Z" fill="#EFC600"/>
<path d="M74.8529 114.933C102.955 114.933 125.737 92.1142 125.737 63.9663C125.737 35.8184 102.955 13 74.8529 13C46.7504 13 23.9688 35.8184 23.9688 63.9663C23.9688 92.1142 46.7504 114.933 74.8529 114.933Z" stroke="#D59C26" stroke-width="3" stroke-miterlimit="10"/>
<path d="M59.6294 113.522C58.5948 117.436 58.1168 121.356 57.8438 125.396C57.7272 127.431 57.4993 129.473 57.5605 131.51C57.5739 131.597 57.6428 132.046 57.6317 131.974C57.6584 132.148 57.1482 132.582 58.1619 131.67C58.9422 130.972 58.791 131.144 58.153 131.034C57.9384 130.989 57.7212 130.958 57.5027 130.941C56.3454 130.842 55.1813 131.02 54.107 131.462C53.7201 131.646 53.3947 131.939 53.1701 132.305C52.9454 132.67 52.831 133.093 52.8406 133.523C52.8503 133.952 52.9835 134.37 53.2244 134.725C53.4653 135.081 53.8035 135.359 54.1982 135.526C55.0547 135.89 55.9757 136.077 56.9057 136.074C57.8356 136.071 58.7553 135.88 59.6092 135.511C62.823 134.256 60.4394 130.416 57.8251 131.499C57.5025 131.63 57.1564 131.692 56.8085 131.682C56.4607 131.671 56.1187 131.589 55.8043 131.439L55.8933 135.489C56.7043 135.257 57.5633 135.254 58.3765 135.478C59.0014 135.554 59.4686 135.575 60.0304 135.291C60.5922 135.007 61.0597 134.684 61.4951 133.877C61.9166 132.839 61.9603 130.583 61.9603 130.583C61.9603 130.583 62.1345 128.618 62.1789 127.623C62.3057 123.377 62.6838 119.167 63.7314 115.051C63.9264 114.51 63.9087 113.913 63.6819 113.384C63.4551 112.854 63.0361 112.431 62.5097 112.199C61.9662 111.989 61.3625 112.001 60.8283 112.233C60.2941 112.464 59.8721 112.897 59.6531 113.438L59.6294 113.522Z" fill="#2F0908"/>
<path d="M23.5956 76.1108C16.5199 75.5098 10.6723 70.7312 5.39475 66.407C4.97478 66.0123 4.42074 65.7927 3.84512 65.7927C3.26951 65.7927 2.71547 66.0123 2.29549 66.407C1.88838 66.8212 1.66016 67.3793 1.66016 67.9608C1.66016 68.5423 1.88838 69.1004 2.29549 69.5146C8.58172 74.6596 15.2042 79.7753 23.5956 80.5082C24.1772 80.5082 24.7349 80.2766 25.1462 79.8643C25.5574 79.4519 25.7885 78.8926 25.7885 78.3095C25.7885 77.7264 25.5574 77.1671 25.1462 76.7548C24.7349 76.3425 24.1772 76.1108 23.5956 76.1108Z" fill="#2F0908"/>
<path d="M126.028 77.7232C129.551 78.8079 133.118 77.3274 136.378 76.0521C139.781 74.7197 143.105 73.1928 146.334 71.4788C148.834 70.1595 146.626 66.3631 144.126 67.6823C141.335 69.1698 138.465 70.5056 135.53 71.684C133.06 72.6661 129.902 74.3078 127.197 73.4869C124.493 72.6661 123.323 76.9023 126.028 77.7232Z" fill="#2F0908"/>
<path d="M98.7723 118.598C97.6216 119.393 96.6188 120.382 95.8088 121.519C93.3853 117.34 92.2465 115.039 88.6771 111.725C87.7321 110.848 86.4822 111.025 85.7308 111.773C84.941 112.558 84.9928 114.152 86.004 115.094C89.7578 118.592 91.2725 121.5 93.6301 126.047C93.7547 126.276 93.8183 126.427 94.0605 126.669C94.2558 126.864 94.3537 126.902 94.4946 127.007C94.6355 127.113 94.7983 127.186 94.9713 127.221C95.1442 127.256 95.4941 127.21 95.4941 127.21C95.6654 127.168 95.7829 127.117 95.96 127.029C97.2197 126.408 97.8746 125.579 98.644 124.574C99.6236 123.406 100.166 122.026 100.511 120.904C101.025 119.685 99.8919 117.851 98.7723 118.598Z" fill="#2F0908"/>
<path d="M52.8028 61.0296C47.6397 58.9333 36.5627 57.8328 33.968 64.4491C30.583 73.0831 45.506 70.8558 49.6812 70.358C50.3218 70.3076 50.9447 70.1241 51.5096 69.8195C52.0745 69.5148 52.6802 69.2643 53.1807 68.795C53.8002 68.4008 54.1305 67.9926 54.5861 67.5213C55.0416 67.05 55.3863 66.484 55.5952 65.8641C55.8479 64.8555 55.6983 63.7888 55.1778 62.8875C54.6572 61.9862 53.8061 61.3204 52.8028 61.0296Z" fill="#EAE4A3"/>
<path d="M96.2909 59.4612C101.454 57.365 112.531 56.2644 115.126 62.8808C118.511 71.5148 103.588 69.2875 99.4125 68.7896C98.7719 68.7392 98.1491 68.5557 97.5842 68.2511C97.0193 67.9464 96.4136 67.696 95.913 67.2267C95.2935 66.8324 94.9632 66.4242 94.5077 65.9529C94.0521 65.4817 93.7075 64.9157 93.4986 64.2958C93.2458 63.2872 93.3954 62.2204 93.916 61.3191C94.4365 60.4178 95.2877 59.752 96.2909 59.4612Z" fill="#EAE4A3"/>
<path d="M82.1593 34.9181C83.7399 31.6689 85.4126 27.4501 89.6669 29.0617C93.7105 30.5946 92.9992 35.5339 92.3012 38.8879C91.4187 42.9101 89.285 45.5566 86.4531 48.5176C85.2414 49.8278 83.8189 50.9021 82.5018 50.4174C80.6446 50.2602 80.3285 48.688 80.0914 46.3559C79.7025 42.4263 80.4184 38.4666 82.1593 34.9181Z" fill="#EAE4A3"/>
<path d="M53.6138 40.6235C52.1913 37.2957 50.0971 33.2734 54.1275 31.1379C57.9472 29.1202 61.2268 32.9197 63.2683 35.6842C65.7181 38.9989 66.3109 42.3398 66.6928 46.4014C66.864 48.157 66.6928 49.965 65.5469 50.5808C64.2298 51.891 62.8073 51.0787 60.8975 49.7161C57.6729 47.4116 55.152 44.2647 53.6138 40.6235Z" fill="#EAE4A3"/>
<path d="M87.0739 91.3601C88.6676 94.6093 90.3271 98.828 94.5814 97.2165C98.625 95.6836 97.9138 90.6657 97.2157 87.3903C96.3201 83.3681 94.1863 80.7215 91.3545 77.7605C90.1428 76.4504 88.7203 75.376 87.4032 75.8608C85.546 76.018 85.2299 77.5902 84.9928 79.9223C84.6142 83.8528 85.3343 87.8109 87.0739 91.3601Z" fill="#EAE4A3"/>
<path d="M52.1568 89.1459C50.7343 92.4737 48.6401 96.4959 52.6705 98.6315C56.477 100.649 59.7566 96.8497 61.7981 94.0852C64.248 90.7836 64.8538 87.4296 65.2358 83.368C65.3938 81.6124 65.2358 79.8044 64.0899 79.1886C62.7728 77.8784 61.3503 78.6907 59.4273 80.0533C56.2032 82.3551 53.686 85.5032 52.1568 89.1459Z" fill="#EAE4A3"/>
<path d="M66.1863 13.8322C66.1863 13.8322 40.5531 16.9364 29.8792 40.5203C19.2053 64.1043 37.4263 65.856 42.4764 54.3023C47.5266 42.7486 51.6094 47.3985 51.8006 48.738C51.9919 50.0776 51.6094 58.0763 56.2997 55.629C60.9899 53.1817 62.902 38.0602 66.4225 38.9489C69.9429 39.8377 68.5595 47.6303 71.855 47.6303C75.1505 47.6303 83.8224 32.3027 81.1342 22.5007C78.4461 12.6988 66.1863 13.8322 66.1863 13.8322Z" fill="#945424"/>
<path fill-rule="evenodd" clip-rule="evenodd" d="M73.1147 12.1117C76.7911 13.2116 80.7037 15.8185 82.2953 21.5115C83.8392 27.0337 82.3447 33.9241 80.2306 39.2275C79.1565 41.9219 77.8673 44.3482 76.5866 46.139C75.9499 47.0293 75.2724 47.8232 74.5772 48.4165C73.9481 48.9535 72.9992 49.5918 71.8548 49.5918C69.9951 49.5918 68.912 48.3854 68.3379 47.286C67.8354 46.3238 67.5401 45.1195 67.3105 44.1832C67.3004 44.1422 67.2905 44.1017 67.2807 44.0617C67.0142 42.9777 66.8001 42.1443 66.4949 41.5178C66.3908 41.3042 66.2982 41.1602 66.2188 41.0624C66.0962 41.221 65.9414 41.4517 65.7586 41.7771C65.1011 42.9477 64.4414 44.6689 63.67 46.7073L63.6226 46.8326C62.8934 48.7599 62.0796 50.9105 61.1454 52.7374C60.2351 54.5175 58.998 56.4383 57.2246 57.3636C55.6578 58.1811 53.9637 58.3713 52.5191 57.3878C51.2844 56.5472 50.7247 55.1453 50.4351 54.098C50.1243 52.9736 49.9967 51.7671 49.9296 50.828C49.8993 50.4047 49.88 50.0119 49.8644 49.6955C49.8625 49.6557 49.8606 49.6171 49.8587 49.5798C49.8502 49.4082 49.843 49.2708 49.8354 49.1587C49.8339 49.1363 49.8325 49.1159 49.8311 49.0974C49.807 49.0568 49.7476 48.9632 49.6233 48.8495C49.4322 48.6748 49.2584 48.617 49.0908 48.6279C48.9163 48.6393 48.3697 48.7506 47.4962 49.6829C46.6152 50.6232 45.5231 52.2774 44.3098 55.0626C41.4535 61.6189 34.3182 64.8468 28.9705 62.1519C26.2316 60.7717 24.3757 57.9868 23.953 54.0996C23.537 50.2747 24.4855 45.3443 27.236 39.2703C32.8062 26.9697 41.8079 20.022 49.6281 16.1542C57.4054 12.3076 64.0854 11.4684 65.2657 11.4097C65.3351 11.4063 65.4209 11.401 65.5221 11.3949C66.6796 11.3242 69.8379 11.1314 73.1147 12.1117ZM65.7453 15.3892C65.6406 15.3953 65.5466 15.4007 65.4642 15.4048C64.7796 15.4388 58.643 16.158 51.4015 19.7396C44.2029 23.2999 35.9835 29.65 30.8798 40.9204C28.2933 46.632 27.6193 50.8144 27.9295 53.6672C28.233 56.4577 29.4518 57.9153 30.7706 58.5798C33.5379 59.9744 38.4487 58.501 40.6426 53.465C41.9544 50.4539 43.2664 48.3471 44.5773 46.948C45.8956 45.5409 47.3286 44.7345 48.83 44.6364C50.3383 44.5379 51.5367 45.1789 52.3227 45.8977C53.0341 46.5483 53.6474 47.4854 53.7804 48.4169C53.8195 48.6914 53.8379 49.0619 53.8529 49.3623L53.8538 49.3813C53.8557 49.4202 53.8577 49.4596 53.8596 49.4995C53.8754 49.8184 53.8925 50.1666 53.9194 50.5429C53.9809 51.4038 54.0868 52.2952 54.2905 53.0321C54.3911 53.3962 54.5014 53.6684 54.6077 53.8571C54.6659 53.9604 54.7123 54.0199 54.7406 54.0516C54.8349 54.0438 55.0302 53.9969 55.3742 53.8173C55.946 53.519 56.7067 52.6319 57.5841 50.9162C58.4162 49.2889 59.1641 47.3127 59.9261 45.2991L59.9484 45.2401C60.6756 43.3186 61.4409 41.2961 62.2712 39.8181C62.6868 39.0782 63.2105 38.3022 63.8857 37.7375C64.6129 37.1293 65.6692 36.6576 66.9118 36.9712C68.5966 37.3966 69.544 38.6435 70.0908 39.7658C70.6027 40.8164 70.906 42.0517 71.1423 43.0144C71.15 43.0456 71.1575 43.0764 71.1651 43.107C71.4372 44.2144 71.6305 44.95 71.8835 45.4345C71.886 45.4391 71.8883 45.4437 71.8907 45.4481C71.9184 45.4261 71.9483 45.4015 71.9806 45.3739C72.3404 45.0669 72.8034 44.5527 73.333 43.8122C74.3848 42.3415 75.5307 40.2154 76.5149 37.7464C78.5174 32.723 79.6323 26.8425 78.443 22.5885C77.3015 18.5053 74.6444 16.7445 71.9682 15.9439C69.4082 15.178 66.913 15.3219 65.7453 15.3892ZM54.6688 54.0441C54.6705 54.0409 54.6887 54.0405 54.7184 54.0527C54.682 54.0535 54.6672 54.0474 54.6688 54.0441Z" fill="#3B260E"/>
<path fill-rule="evenodd" clip-rule="evenodd" d="M75.3539 73.4479C75.0994 73.2463 74.7931 73.1486 74.5765 73.1546C74.0244 73.1698 73.5646 72.7345 73.5494 72.1825C73.5342 71.6304 73.9694 71.1705 74.5215 71.1553C75.2789 71.1345 76.0331 71.4345 76.5957 71.8801C77.1539 72.3223 77.6701 73.0317 77.6701 73.9211C77.6701 74.7789 77.2787 75.3787 76.81 75.7828C77.2705 76.1876 77.6701 76.7817 77.6701 77.6062C77.6701 78.607 77.0802 79.2998 76.4974 79.7131C75.9221 80.1211 75.2437 80.3465 74.7221 80.4393C74.1783 80.5359 73.6591 80.1735 73.5625 79.6297C73.4658 79.086 73.8283 78.5668 74.372 78.4701C74.6781 78.4157 75.0612 78.2797 75.3405 78.0817C75.6123 77.8889 75.6701 77.731 75.6701 77.6062C75.6701 77.4992 75.6326 77.3696 75.3591 77.1849C75.068 76.9882 74.6656 76.844 74.2597 76.7222C73.8448 76.5977 73.5572 76.2203 73.5473 75.7873C73.5374 75.3543 73.8074 74.9641 74.2161 74.8207C74.3312 74.7804 74.4398 74.7447 74.5429 74.7108C74.8515 74.6094 75.1115 74.5239 75.3535 74.3764C75.6111 74.2194 75.6701 74.0985 75.6701 73.9211C75.6701 73.84 75.6127 73.6529 75.3539 73.4479Z" fill="#080606"/>
<path d="M65.8796 64.1738C62.4946 64.1738 62.4815 69.4145 65.8796 69.4145C69.2778 69.4145 69.3305 64.1738 65.8796 64.1738Z" fill="#D36055"/>
<path d="M83.2145 63.873C79.8295 63.873 79.8295 69.1137 83.2145 69.1137C86.5995 69.1137 86.6127 63.873 83.2145 63.873Z" fill="#D36055"/>
<path d="M67.4146 56.9983C67.3572 56.8295 67.2031 56.5059 67.2031 56.5059C67.2031 56.5059 66.9254 55.9848 66.7082 55.775C66.4911 55.5652 66.2153 55.4269 65.9176 55.3784C65.7249 55.3489 65.5282 55.3577 65.3389 55.4045C65.1496 55.4513 64.9714 55.5351 64.8144 55.6511C64.6574 55.767 64.5248 55.9129 64.4242 56.0803C64.3235 56.2477 64.2568 56.4334 64.2279 56.6268C63.9531 58.1352 63.9985 59.6848 64.3613 61.1745C64.4183 61.4975 64.5676 61.7969 64.7911 62.0364C65.0069 62.2758 65.3017 62.4288 65.6211 62.4674C65.9427 62.5141 66.2706 62.4536 66.5545 62.2952C66.8384 62.1367 67.0625 61.8892 67.1923 61.5906C67.496 60.9253 67.6768 60.2103 67.7259 59.4802C67.7706 58.641 67.6652 57.8004 67.4146 56.9983Z" fill="#080606"/>
<path d="M83.7818 57.1585C83.7244 56.9896 83.5703 56.666 83.5703 56.666C83.5703 56.666 83.2926 56.145 83.0754 55.9352C82.8583 55.7254 82.5824 55.587 82.2848 55.5385C82.0921 55.509 81.8954 55.5179 81.7061 55.5647C81.5168 55.6115 81.3385 55.6953 81.1816 55.8112C81.0246 55.9272 80.892 56.073 80.7914 56.2405C80.6907 56.4079 80.624 56.5936 80.5951 56.7869C80.3202 58.2954 80.3657 59.845 80.7285 61.3346C80.7855 61.6576 80.9348 61.957 81.1583 62.1966C81.3741 62.4359 81.6689 62.589 81.9883 62.6276C82.3099 62.6743 82.6378 62.6138 82.9217 62.4553C83.2055 62.2969 83.4296 62.0494 83.5595 61.7507C83.8632 61.0854 84.044 60.3704 84.0931 59.6404C84.1378 58.8011 84.0324 57.9605 83.7818 57.1585Z" fill="#080606"/>
<path d="M75.8373 65.5458C75.8373 65.9949 75.8016 66.4172 75.7065 66.8663C75.6115 67.3155 75.4894 67.9279 74.7972 67.9279C74.1049 67.9279 73.5892 67.6693 73.5484 67.1658C73.1801 65.5697 73.157 63.913 73.4806 62.3072C73.6842 61.7356 74.0506 61.2321 74.8379 61.3682C75.6251 61.5043 75.5572 62.0214 75.6658 62.5522C75.8955 63.5193 75.8832 64.5361 75.8373 65.5458Z" fill="#080606"/>
</svg>
