<svg width="152" height="150" viewBox="0 0 152 150" fill="none" xmlns="http://www.w3.org/2000/svg">
<path d="M127.206 107.764C125.724 78.0401 124.805 48.3166 124.241 18.5931C124.234 18.0527 124.019 17.536 123.64 17.151C123.262 16.7661 122.75 16.5426 122.211 16.5273C90.936 15.6059 59.7058 14.9223 28.4311 14.0009C28.1547 13.9929 27.8794 14.0397 27.621 14.1385C27.3626 14.2373 27.1262 14.3862 26.9252 14.5767C26.7242 14.7671 26.5627 14.9955 26.4497 15.2486C26.3368 15.5017 26.2747 15.7746 26.267 16.0517C25.2789 49.6096 24.7107 83.1774 24.5625 116.755C24.5663 117.035 24.6255 117.312 24.7365 117.57C24.8476 117.827 25.0083 118.06 25.2094 118.254C25.4106 118.449 25.6482 118.602 25.9086 118.704C26.169 118.807 26.4469 118.856 26.7265 118.851C48.3668 117.84 70.1406 114.972 91.7068 112.98C102.853 111.94 114.073 110.558 125.264 109.904C125.799 109.862 126.297 109.618 126.658 109.22C127.019 108.822 127.215 108.301 127.206 107.764Z" fill="#45863F"/>
<path d="M127.206 107.764C125.724 78.0401 124.805 48.3166 124.241 18.5931C124.234 18.0527 124.019 17.536 123.64 17.151C123.262 16.7661 122.75 16.5426 122.211 16.5273C90.936 15.6059 59.7058 14.9223 28.4311 14.0009C28.1547 13.9929 27.8794 14.0397 27.621 14.1385C27.3626 14.2373 27.1262 14.3862 26.9252 14.5767C26.7242 14.7671 26.5627 14.9955 26.4497 15.2486C26.3368 15.5017 26.2747 15.7746 26.267 16.0517C25.2789 49.6096 24.7107 83.1774 24.5625 116.755C24.5663 117.035 24.6255 117.312 24.7365 117.57C24.8476 117.827 25.0083 118.06 25.2094 118.254C25.4106 118.449 25.6482 118.602 25.9086 118.704C26.169 118.807 26.4469 118.856 26.7265 118.851C48.3668 117.84 70.1406 114.972 91.7068 112.98C102.853 111.94 114.073 110.558 125.264 109.904C125.799 109.862 126.297 109.618 126.658 109.22C127.019 108.822 127.215 108.301 127.206 107.764Z" stroke="#26572F" stroke-width="3" stroke-miterlimit="10"/>
<path d="M29.6016 17.6602C31.4543 18.7599 37.2247 22.6953 38.3364 23.4384C55.0409 24.0625 67.1654 23.9288 83.8848 23.9585H113.351C115.708 22.8736 118.713 21.0694 120.684 20.0291" stroke="#76AE71" stroke-width="2.5" stroke-miterlimit="10" stroke-linecap="round"/>
<path d="M29.1016 114.229C31.7251 112.55 34.5858 110.588 37.2241 108.849C37.2241 108.849 86.9227 104.703 116.182 102.904C118.094 103.737 120.954 104.955 122.659 105.877" stroke="#76AE71" stroke-width="2.5" stroke-miterlimit="10" stroke-linecap="round"/>
<path d="M37.2227 108.85L38.3343 23.4395" stroke="#76AE71" stroke-width="2.5" stroke-miterlimit="10" stroke-linecap="round"/>
<path d="M113.348 24.0176L116.179 102.904" stroke="#76AE71" stroke-width="2.5" stroke-miterlimit="10" stroke-linecap="round"/>
<path d="M75.1522 123.242C73.2182 122.215 70.6443 122.8 68.6819 123.428C66.6464 124.136 64.6919 125.06 62.8515 126.183C59.467 128.153 55.983 130.809 51.9586 131.223C51.3187 131.294 50.0815 131.437 49.5411 130.937C49.0007 130.438 49.2567 128.939 49.3136 128.225C49.5729 125.555 50.3201 122.956 51.5178 120.559C52.7265 118.089 49.0434 115.919 47.8347 118.403C46.6765 120.685 45.8527 123.123 45.3888 125.641C44.9906 127.939 44.4644 130.852 45.7301 132.964C48.1191 136.947 53.9637 135.548 57.3908 134.078C61.2019 132.465 64.5011 129.795 68.2553 128.153C68.888 127.876 69.5389 127.642 70.2035 127.454C69.4345 129.497 69.2909 131.724 69.7911 133.849C69.895 134.206 70.0889 134.529 70.3539 134.788C70.6189 135.047 70.9461 135.233 71.3037 135.328C71.6613 135.423 72.0373 135.423 72.3951 135.329C72.753 135.235 73.4115 135.047 73.6771 134.788C75.5757 133.349 76.6511 131.357 77.3706 129.081C77.6914 127.999 77.6479 126.84 77.2469 125.785C76.8459 124.729 76.1097 123.836 75.1522 123.242Z" fill="#2F0908"/>
<path d="M101.101 114.073C101.174 116.749 100.561 119.398 99.3192 121.767C98.0779 124.135 96.2277 125.892 93.9898 127.347C93.426 127.713 92.7415 128.026 92.2262 128.026C91.7108 128.026 91.0597 127.913 90.5585 127.597C88.9233 126.627 87.4238 125.748 85.2702 125.699C81.7406 125.619 80.637 129.515 80.6658 132.416C80.6859 132.796 80.8038 133.164 81.008 133.485C81.2122 133.806 81.4956 134.069 81.8308 134.247C82.166 134.425 82.5414 134.513 82.9205 134.503C83.2996 134.492 83.55 134.391 83.9941 134.186C84.4382 133.981 85.1804 133.417 85.8986 132.014C86.6168 130.611 87.8828 131.389 88.1351 131.488L89.2809 132.014C90.1136 132.463 91.0393 132.709 91.9839 132.734C92.9285 132.759 93.8658 132.562 94.7207 132.158C96.09 131.491 97.3634 130.641 98.5064 129.632C100.752 127.696 102.539 125.281 103.737 122.563C104.935 119.845 105.514 116.894 105.432 113.923C105.412 113.346 105.164 112.801 104.744 112.407C104.324 112.014 103.765 111.804 103.191 111.824C102.616 111.844 102.073 112.092 101.682 112.514C101.29 112.936 101.081 113.497 101.101 114.073Z" fill="#2F0908"/>
<path d="M62.8248 53.9026C62.7673 53.7338 62.6133 53.4102 62.6133 53.4102C62.6133 53.4102 62.3356 52.8891 62.1184 52.6793C61.9012 52.4695 61.6254 52.3312 61.3278 52.2827C61.135 52.2532 60.9384 52.262 60.7491 52.3088C60.5598 52.3556 60.3815 52.4394 60.2246 52.5554C60.0676 52.6713 59.935 52.8172 59.8343 52.9846C59.7337 53.152 59.667 53.3377 59.638 53.5311C59.3632 55.0395 59.4087 56.5891 59.7714 58.0788C59.8285 58.4018 59.9778 58.7012 60.2013 58.9407C60.4171 59.1801 60.7118 59.3331 61.0313 59.3717C61.3528 59.4184 61.6808 59.3579 61.9646 59.1995C62.2485 59.041 62.4726 58.7935 62.6025 58.4949C62.9062 57.8296 63.0869 57.1146 63.136 56.3845C63.1808 55.5452 63.0754 54.7047 62.8248 53.9026Z" fill="#2F0908"/>
<path d="M87.8678 53.1214C87.8103 52.9525 87.6562 52.6289 87.6562 52.6289C87.6562 52.6289 87.3785 52.1078 87.1614 51.8981C86.9442 51.6883 86.6684 51.5499 86.3707 51.5014C86.178 51.4719 85.9813 51.4808 85.792 51.5276C85.6027 51.5744 85.4245 51.6581 85.2675 51.7741C85.1106 51.8901 84.978 52.0359 84.8773 52.2033C84.7767 52.3708 84.71 52.5565 84.681 52.7498C84.4062 54.2583 84.4516 55.8079 84.8144 57.2975C84.8714 57.6205 85.0208 57.9199 85.2442 58.1595C85.46 58.3988 85.7548 58.5519 86.0743 58.5905C86.3958 58.6372 86.7237 58.5766 87.0076 58.4182C87.2915 58.2598 87.5156 58.0122 87.6454 57.7136C87.9491 57.0483 88.1299 56.3333 88.179 55.6033C88.2238 54.764 88.1183 53.9234 87.8678 53.1214Z" fill="#2F0908"/>
<path d="M75.1688 64.8717C75.1688 65.3622 75.1298 65.8234 75.026 66.3138C74.9222 66.8043 74.7889 67.4731 74.0329 67.4731C73.277 67.4731 72.7138 67.1907 72.6693 66.6408C72.2671 64.8978 72.2418 63.0887 72.5952 61.3351C72.8175 60.711 73.2177 60.1611 74.0774 60.3097C74.9371 60.4583 74.863 61.023 74.9815 61.6026C75.2324 62.6588 75.2189 63.7691 75.1688 64.8717Z" fill="#2F0908"/>
<path d="M79.0022 71.8349C75.7691 71.7254 70.0201 71.8084 69.3083 71.9735C68.5966 72.1387 68.3498 72.4992 68.0576 72.8433C67.9214 73.0038 67.8334 73.2552 67.7963 73.455C67.7592 73.6548 67.7767 73.8598 67.8474 74.052C68.0938 74.4621 68.4653 74.6668 68.9371 74.8528C69.4089 75.0388 69.8057 75.0035 70.4459 75.0035H70.9864H71.2157H72.2649C73.0183 75.0035 73.777 74.9746 74.5304 74.9597C76.021 74.9597 77.5116 74.9597 79.0022 74.9597C80.116 74.9597 81.1807 74.2455 81.1316 73.4717C81.0816 73.0005 80.831 72.5657 80.4333 72.26C80.0355 71.9542 79.522 71.8017 79.0022 71.8349Z" fill="#2F0908"/>
<path d="M63.8886 51.0843C62.6099 50.6663 61.3395 50.6899 59.9396 50.8467C59.8367 50.8637 59.7367 50.8833 59.6096 50.9036C59.4627 50.927 59.3157 50.9582 59.1798 50.9817C58.4637 51.1051 58.1029 51.1338 57.4614 51.4067C57.1347 51.5214 56.8461 51.7335 56.6301 52.0177C56.4111 52.3071 56.2874 52.6648 56.2783 53.0359C56.2659 53.419 56.3761 53.7953 56.5909 54.1035C56.8058 54.4116 57.1126 54.6335 57.4614 54.7329C59.5827 55.2012 61.7804 55.1021 63.8566 54.4444C64.2054 54.345 64.5122 54.1231 64.7271 53.815C64.9419 53.5068 65.0521 53.1305 65.0397 52.7474C65.0467 52.3744 64.9378 52.0094 64.7297 51.7088C64.5216 51.4081 64.2261 51.1887 63.8886 51.0843Z" fill="#2F0908"/>
<path d="M89.7949 50.3187C88.5162 49.9007 87.2457 49.9243 85.8459 50.0811C85.743 50.0981 85.6429 50.1177 85.5159 50.1379C85.3689 50.1614 85.222 50.1926 85.086 50.2161C84.37 50.3395 84.0091 50.3682 83.3676 50.6411C83.041 50.7557 82.7524 50.9678 82.5363 51.252C82.3173 51.5415 82.1937 51.8991 82.1845 52.2703C82.1722 52.6534 82.2824 53.0297 82.4972 53.3378C82.712 53.646 83.0188 53.8679 83.3676 53.9673C85.4889 54.4356 87.6867 54.3365 89.7629 53.6788C90.1117 53.5794 90.4185 53.3575 90.6333 53.0493C90.8482 52.7412 90.9584 52.3649 90.946 51.9818C90.953 51.6088 90.844 51.2438 90.636 50.9431C90.4279 50.6425 90.1323 50.423 89.7949 50.3187Z" fill="#2F0908"/>
<path d="M127.678 69.9871C138.892 71.9045 148.678 61.5653 151.376 51.4663C151.511 50.9117 151.426 50.3259 151.138 49.8333C150.85 49.3407 150.383 48.98 149.835 48.8276C149.286 48.6753 148.7 48.7433 148.201 49.0174C147.702 49.2914 147.329 49.7498 147.161 50.2954C146.064 54.4104 143.83 58.1298 140.715 61.0238C137.595 63.9511 133.059 66.5124 128.655 65.766C128.105 65.6248 127.521 65.6971 127.021 65.9683C126.521 66.2396 126.141 66.6899 125.957 67.2296C125.813 67.7921 125.892 68.389 126.177 68.8942C126.463 69.3995 126.933 69.7735 127.489 69.9373L127.678 69.9871Z" fill="#2F0908"/>
<path d="M48.642 82.3337C51.3458 93.3848 64.725 98.2475 75.0636 96.7036C75.6263 96.6072 76.1298 96.2959 76.4672 95.836C76.8047 95.376 76.9495 94.8035 76.8711 94.2398C76.7926 93.6762 76.4971 93.1658 76.0471 92.817C75.597 92.4681 75.028 92.3082 74.4606 92.3712C70.2491 93.0026 65.9476 92.4327 62.0533 90.7273C58.1259 89.0293 53.9712 85.8878 52.9035 81.5505C52.8138 80.9891 52.5153 80.4826 52.0675 80.1319C51.6197 79.7812 51.0554 79.6119 50.4871 79.6579C49.9135 79.7491 49.3973 80.0591 49.0475 80.5222C48.6977 80.9854 48.5417 81.5655 48.6124 82.1402L48.642 82.3337Z" fill="#2F0908"/>
<path d="M95.2943 88.1498C95.4598 87.5208 95.4793 86.8625 95.3516 86.2249C95.2239 85.5872 94.9523 84.9871 94.5573 84.47C94.1623 83.953 93.6543 83.5326 93.0722 83.241C92.49 82.9494 91.8489 82.7942 91.1976 82.7871C89.0883 82.916 87.0008 83.2861 84.976 83.8902C84.5691 83.9326 84.1589 83.9326 83.752 83.8902L84.466 83.992C83.4294 83.7775 82.3502 83.94 81.4232 84.4502C80.4747 85.016 79.7762 85.9195 79.4683 86.9788C79.3323 87.6566 79.3323 88.3545 79.4683 89.0322L79.2983 89.185H79.1284C78.1743 89.5035 77.3636 90.1484 76.8395 91.0057C76.3154 91.863 76.1117 92.8777 76.2642 93.8704C76.4167 94.8632 76.9157 95.7702 77.673 96.4313C78.4304 97.0924 79.3974 97.4651 80.4033 97.4835H81.6782C81.9561 97.9387 82.2997 98.3505 82.6981 98.7054C83.612 99.4604 84.7079 99.9635 85.8769 100.165C87.0239 100.793 88.3689 100.957 89.6337 100.623C90.6304 100.344 91.5414 99.8207 92.2836 99.1004C93.0259 98.3802 93.5758 97.486 93.8834 96.4992C94.6318 94.1635 95.1053 91.7488 95.2943 89.3038C95.3516 88.9953 95.3516 88.6789 95.2943 88.3704C95.2998 88.297 95.2998 88.2232 95.2943 88.1498Z" fill="#D1703D"/>
<path d="M78.1953 87.8532C78.1953 92.9444 79.7762 99.9108 85.5898 101.353C86.8838 101.784 88.2639 101.892 89.6093 101.667C90.9547 101.442 92.2244 100.892 93.3073 100.064C95.7056 97.8743 96.3913 95.256 96.5886 92.8035C96.726 91.0964 97.0241 86.8378 95.1883 84.394C94.5253 83.5455 93.0634 84.394 93.7094 85.2595C94.8906 87.0561 94.9929 89.1432 94.8882 91.2898C94.7565 93.9922 94.1546 95.8767 92.9674 97.8743C92.2371 98.7888 91.2499 99.4647 90.1323 99.8154C89.0148 100.166 87.8178 100.176 86.6948 99.8429C85.5831 99.6574 84.5349 99.1989 83.6447 98.5087C82.7546 97.8185 82.0503 96.9182 81.5951 95.8888C80.4143 93.3202 79.833 90.5175 79.8952 87.692C79.8952 87.467 79.8056 87.2512 79.6462 87.092C79.4868 86.9329 79.2707 86.8435 79.0453 86.8435C78.8198 86.8435 78.6036 86.9329 78.4442 87.092C78.2848 87.2512 78.1953 87.467 78.1953 87.692V87.8532Z" fill="#432717"/>
<path d="M79.0941 89.2365C78.0993 89.227 77.131 89.5568 76.3494 90.1712C75.5678 90.7857 75.0198 91.6481 74.7958 92.6158C74.5718 93.5834 74.6853 94.5985 75.1176 95.493C75.5499 96.3875 76.2751 97.1079 77.1732 97.5351C78.4208 98.0887 79.7971 98.2883 81.151 98.1121C81.3764 98.1121 81.5925 98.0227 81.7519 97.8635C81.9113 97.7044 82.0009 97.4886 82.0009 97.2635C82.0009 97.0385 81.9113 96.8227 81.7519 96.6636C81.5925 96.5044 81.3764 96.415 81.151 96.415C79.994 96.6021 78.8073 96.4303 77.7512 95.9229C77.4115 95.726 77.1175 95.4593 76.8889 95.1403C76.6603 94.8214 76.5023 94.4576 76.4252 94.0731C76.3491 93.7092 76.3553 93.333 76.4436 92.9718C76.5318 92.6107 76.6997 92.2737 76.9352 91.9857C77.1928 91.6599 77.5207 91.3961 77.8945 91.2139C78.2682 91.0318 78.6782 90.936 79.0941 90.9336C79.3195 90.9336 79.5357 90.8442 79.6951 90.685C79.8545 90.5259 79.944 90.3101 79.944 90.0851C79.944 89.86 79.8545 89.6442 79.6951 89.4851C79.5357 89.3259 79.3195 89.2365 79.0941 89.2365Z" fill="#432717"/>
<path d="M85.4513 79.7498C85.0521 79.4618 84.7334 79.0768 84.5251 78.6313C84.3168 78.1858 84.226 77.6946 84.2614 77.2042C84.3341 76.1949 85.0811 75.6569 85.8083 75.1677C87.1852 74.1834 89.1061 73.7422 89.905 72.741C90.7697 71.8149 91.0315 70.7414 91.333 69.3469C91.4654 68.7341 91.4562 68.0992 91.306 67.4904C91.1558 66.8817 90.8685 66.3152 90.466 65.834C91.2565 66.0918 91.9589 66.5655 92.4936 67.2013C93.0284 67.8372 93.3742 68.6098 93.4917 69.4317C93.6206 70.2956 93.5531 71.1774 93.2941 72.0117C93.0351 72.8461 92.5915 73.6115 91.9959 74.2513C91.4092 74.8695 90.7189 75.3806 89.9561 75.7617L87.2532 76.6611C86.6615 76.8996 86.149 77.2995 85.7743 77.8151C85.5588 78.0829 85.4158 78.4015 85.3593 78.7403C85.3027 79.0791 85.3344 79.4267 85.4513 79.7498Z" fill="#D4CBBA"/>
<path d="M79.2027 87.6495C78.9802 86.1262 82.1077 84.2803 84.9021 83.5113C87.7095 82.6479 91.0992 82.9076 92.4306 83.1991C94.2938 83.6071 94.3525 84.2207 94.1101 84.9998C93.8677 85.779 89.5737 87.4758 87.4613 88.0818C85.349 88.6878 79.481 89.5535 79.2027 87.6495Z" stroke="#432717" stroke-width="2"/>
</svg>
