<svg width="120" height="150" viewBox="0 0 120 150" fill="none" xmlns="http://www.w3.org/2000/svg">
<g clip-path="url(#clip0_347_14408)">
<path d="M33.827 9.74026C10.9559 20.6918 6.04478 47.185 6.44809 59.0627C8.26074 81.2062 20.3383 98.5227 23.962 103.354C27.5858 108.186 50.3348 138.384 72.0772 127.513C93.8197 116.641 99.2553 84.4304 102.476 53.4273C105.697 22.4242 97.1663 13.6919 91.4038 9.74026C85.6414 5.7886 62.4159 -3.94919 33.827 9.74026Z" fill="#E53C33" stroke="#A62D28" stroke-width="3" stroke-linecap="round" stroke-linejoin="round"/>
<path d="M29.3487 53.6281C29.0035 52.372 28.311 51.2383 27.3504 50.357C27.1479 50.1551 26.896 50.0098 26.6197 49.9353C26.3435 49.8609 26.0525 49.8601 25.7758 49.9329C25.4991 50.0057 25.2463 50.1496 25.0427 50.3502C24.839 50.5509 24.6915 50.8013 24.6149 51.0766C24.4132 51.7172 24.2913 52.3658 24.1831 53.0391C24.1409 53.3015 24.0983 53.5442 24.0744 53.8081C23.9596 55.0867 23.9596 56.373 24.0744 57.6517C24.0924 58.4436 24.3814 59.2055 24.8934 59.8106C25.2523 60.1537 25.7131 60.3711 26.2064 60.4301C26.6998 60.4891 27.1989 60.3865 27.6288 60.1377C28.1446 59.7749 28.5755 59.3048 28.8922 58.76C29.2089 58.2151 29.4037 57.6082 29.4634 56.9811C29.6773 55.869 29.6381 54.7231 29.3487 53.6281Z" fill="#DE9540"/>
<path d="M29.1983 74.6944C29 73.8002 28.5837 72.9687 27.9862 72.2738C27.7178 72.0066 27.3874 71.81 27.0244 71.7016C26.6614 71.5931 26.2771 71.5762 25.9059 71.6522C25.5451 71.747 25.2183 71.9416 24.9633 72.2136C24.7083 72.4856 24.5354 72.8239 24.4644 73.1897C24.3907 73.5458 24.4062 73.875 24.4258 74.2734C24.4307 74.3737 24.4258 74.462 24.4258 74.5742C24.4258 74.6864 24.2515 77.9656 24.1532 79.683C24.0358 80.2198 24.0823 80.7795 24.2867 81.2898C24.4911 81.8 24.844 82.2373 25.2998 82.5452C25.7989 82.7982 26.3664 82.8839 26.9181 82.7897C27.4698 82.6954 27.9764 82.4262 28.3629 82.0218C28.9348 81.3411 29.3037 80.5137 29.4276 79.6339C29.6107 78.8074 29.6878 77.961 29.6569 77.1151C29.6034 76.2925 29.4494 75.4796 29.1983 74.6944Z" fill="#DE9540"/>
<path d="M85.5011 43.5876C85.4092 42.0432 84.7462 39.8532 84.6141 39.5138C84.482 39.1743 84.2048 38.6079 83.951 38.3637C83.6973 38.1196 83.4669 37.9003 83.1392 37.7389C82.7778 37.5609 82.5863 37.4571 82.2743 37.3724C81.8572 37.2565 81.4112 37.3102 81.0337 37.5216C80.6562 37.7331 80.3778 38.0852 80.2595 38.5009C79.3809 40.8913 79.4336 43.5239 80.4069 45.8774C80.6406 46.6575 81.0756 47.3625 81.6682 47.9219C82.0709 48.2349 82.5666 48.4048 83.0769 48.4048C83.5872 48.4048 84.0829 48.2349 84.4856 47.9219C85.6649 46.9078 85.5994 45.0269 85.5011 43.5876Z" fill="#DE9540"/>
<path d="M39.2244 99.9779C38.8671 98.4726 38.8704 96.1844 38.8991 95.8213C38.9277 95.4582 39.0298 94.8359 39.2023 94.5289C39.3749 94.222 39.5322 93.9456 39.7995 93.6966C40.0942 93.4219 40.2477 93.2673 40.522 93.0962C40.8879 92.865 41.3305 92.7878 41.7529 92.8814C42.1754 92.975 42.5434 93.2319 42.7766 93.5959C44.3072 95.6313 45.0159 98.1674 44.7625 100.702C44.7637 101.516 44.5505 102.316 44.1444 103.023C43.849 103.439 43.4234 103.744 42.9348 103.891C42.4461 104.039 41.9225 104.019 41.4467 103.835C40.025 103.204 39.5453 101.384 39.2244 99.9779Z" fill="#DE9540"/>
<path d="M91.6406 59.7656C91.4181 59.5159 91.3477 59.4102 91.0547 59.1641L90.918 59.043C90.5469 58.7422 90.3036 58.619 89.8739 58.6172C89.6583 58.616 89.4446 58.6572 89.245 58.7386C89.0454 58.82 88.8639 58.9399 88.7109 59.0915C88.4252 59.4136 88.2578 59.8231 88.2359 60.2528C88.0721 61.5449 87.9246 62.8534 87.7608 64.1455C87.5006 65.248 87.6399 66.4069 88.1539 67.4167C88.3609 67.7588 88.6511 68.0432 88.9976 68.2433C89.3442 68.4435 89.7357 68.553 90.1359 68.5616C90.5662 68.5538 90.9877 68.4391 91.3624 68.2278C91.737 68.0165 92.053 67.7152 92.2817 67.3512C92.5853 66.8491 92.791 66.2942 92.8878 65.7156C92.9966 65.0894 93.0405 64.4536 93.0188 63.8184C92.9418 62.3657 92.4431 60.9797 91.6406 59.7656Z" fill="#DE9540"/>
<path d="M87.2802 80.9221C87.118 80.6429 86.8767 80.418 86.5867 80.2755C86.2967 80.133 85.971 80.0793 85.6505 80.1213C85.33 80.1633 85.0292 80.299 84.7858 80.5113C84.5424 80.7237 84.3673 81.0032 84.2827 81.3146C84.1596 81.6561 84.0746 81.9565 84.0014 82.3119L83.9553 82.5005C83.6368 83.5941 83.2455 84.626 83.0542 85.747C82.8249 87.1373 82.4645 89.0182 83.9714 89.9014C84.3183 90.0902 84.7038 90.1972 85.0985 90.2142C85.4931 90.2312 85.8864 90.1578 86.2483 89.9996C86.599 89.8428 86.9146 89.6172 87.1763 89.3363C87.438 89.0553 87.6405 88.7246 87.7716 88.364C88.2051 87.2785 88.4006 86.1129 88.3449 84.9456C88.2705 83.5456 87.9081 82.176 87.2802 80.9221Z" fill="#DE9540"/>
<path d="M50.0204 61.4935C49.8566 62.6711 50.348 64.552 48.7428 64.6011C47.1376 64.6501 46.0892 63.129 46.1384 61.3299C46.1384 60.9374 46.1384 60.5448 46.1384 60.1523C46.1384 58.8929 46.6298 57.9279 47.9893 57.8461C49.3488 57.7643 49.6273 58.8602 49.8894 59.8742C49.972 60.4101 50.0158 60.9513 50.0204 61.4935Z" fill="#490B0A"/>
<path d="M67.3017 61.4935C67.1379 62.6711 67.6457 64.552 66.0241 64.6011C64.4025 64.6501 63.3705 63.129 63.4196 61.3299C63.4196 60.9374 63.4196 60.5448 63.4196 60.1523C63.4196 58.8929 63.8947 57.9279 65.2542 57.8461C66.6138 57.7643 66.8922 58.8602 67.1543 59.8742C67.25 60.4087 67.2993 60.9505 67.3017 61.4935Z" fill="#490B0A"/>
<path d="M57.0273 65.4194C57.0273 67.1531 57.0273 68.8868 57.0273 70.6205C57.0273 70.8374 57.1136 71.0454 57.2672 71.1988C57.4208 71.3521 57.6291 71.4383 57.8463 71.4383C58.061 71.4302 58.2646 71.3414 58.4165 71.1898C58.5684 71.0381 58.6572 70.8348 58.6653 70.6205C58.6653 68.8868 58.6653 67.1531 58.6653 65.4194C58.6612 65.2038 58.5735 64.9982 58.4208 64.8457C58.2681 64.6932 58.0622 64.6057 57.8463 64.6016C57.6291 64.6016 57.4208 64.6877 57.2672 64.8411C57.1136 64.9945 57.0273 65.2025 57.0273 65.4194Z" fill="#490B0A"/>
<path d="M46.5554 128.307C46.7935 125.492 50.949 125.846 50.7109 128.661L50.6515 131.614C50.4479 134.021 50.3183 136.419 50.1583 138.829C50.0571 140.025 49.9547 141.235 49.8535 142.431L49.7302 143.89C50.1298 143.88 50.5293 143.913 50.9217 143.99C52.1034 144.3 53.1679 144.952 53.9828 145.865C54.2221 146.161 54.3816 146.514 54.4457 146.89C54.5099 147.266 54.4767 147.652 54.3493 148.012C54.2219 148.371 54.0046 148.692 53.7182 148.943C53.4319 149.193 53.0861 149.366 52.7141 149.445C50.9547 149.891 49.0952 149.703 47.4612 148.912C47.0391 148.717 46.6537 148.473 46.3361 148.093C46.0726 147.853 45.8395 147.457 45.634 147.104C45.4285 146.751 45.3475 146.352 45.3119 145.945C45.2634 144.44 45.517 141.447 45.517 141.447L45.8762 136.337L46.5554 128.307Z" fill="#2F0908"/>
<path d="M10.6151 80.8229C6.27336 86.5661 5.91424 94.2144 5.59881 101.125C5.61186 101.709 5.40203 102.276 5.01195 102.71C4.62187 103.144 4.08078 103.413 3.49852 103.462C2.91032 103.488 2.33474 103.282 1.89622 102.888C1.45769 102.494 1.19144 101.944 1.15502 101.356C1.53499 93.1287 2.16494 84.6677 7.29886 77.8428C7.69299 77.4042 8.24566 77.1406 8.83531 77.1099C9.42496 77.0792 10.0033 77.2839 10.4431 77.6791C10.8828 78.0743 11.148 78.6275 11.1803 79.2171C11.2125 79.8066 11.0093 80.3843 10.6151 80.8229Z" fill="#2F0908"/>
<path d="M101.93 69.2514C108.122 72.9239 111.35 79.8672 114.257 86.1439C114.466 86.6896 114.875 87.1347 115.4 87.3888C115.926 87.643 116.528 87.6871 117.086 87.5123C117.64 87.3141 118.095 86.9054 118.352 86.3747C118.609 85.844 118.647 85.2338 118.458 84.676C114.992 77.2047 111.206 69.6117 103.871 65.2378C103.34 64.981 102.729 64.9462 102.171 65.141C101.614 65.3357 101.156 65.7442 100.899 66.2764C100.641 66.8087 100.605 67.4211 100.799 67.979C100.992 68.5369 101.399 68.9946 101.93 69.2514Z" fill="#2F0908"/>
<path d="M88.704 132.428C87.5532 133.223 86.5504 134.212 85.7404 135.35C83.3169 131.17 82.1781 128.87 78.6087 125.555C77.6638 124.678 76.4139 124.855 75.6624 125.603C74.8727 126.388 74.9245 127.982 75.9356 128.924C79.6894 132.422 81.2041 135.33 83.5617 139.877C83.6864 140.106 83.75 140.257 83.9922 140.499C84.1874 140.694 84.2854 140.732 84.4263 140.837C84.5672 140.943 84.73 141.016 84.9029 141.051C85.0758 141.087 85.4258 141.041 85.4258 141.041C85.5971 140.998 85.7146 140.947 85.8916 140.859C87.1514 140.239 87.8062 139.409 88.5756 138.405C89.5552 137.236 90.0974 135.856 90.4426 134.734C90.9563 133.515 89.8235 131.681 88.704 132.428Z" fill="#2F0908"/>
<path d="M49.6978 59.1171C49.6404 58.9483 49.4863 58.6246 49.4863 58.6246C49.4863 58.6246 49.2086 58.1036 48.9914 57.8938C48.7743 57.684 48.4985 57.5457 48.2008 57.4972C48.0081 57.4676 47.8114 57.4765 47.6221 57.5233C47.4328 57.5701 47.2546 57.6539 47.0976 57.7698C46.9406 57.8858 46.808 58.0316 46.7074 58.1991C46.6067 58.3665 46.54 58.5522 46.5111 58.7455C46.2363 60.254 46.2817 61.8036 46.6445 63.2932C46.7015 63.6162 46.8508 63.9157 47.0743 64.1552C47.2901 64.3945 47.5849 64.5476 47.9044 64.5862C48.2259 64.6329 48.5538 64.5724 48.8377 64.4139C49.1216 64.2555 49.3457 64.008 49.4755 63.7094C49.7792 63.0441 49.96 62.329 50.0091 61.599C50.0538 60.7597 49.9484 59.9192 49.6978 59.1171Z" fill="#080606"/>
<path d="M66.9967 59.1171C66.9392 58.9483 66.7852 58.6246 66.7852 58.6246C66.7852 58.6246 66.5074 58.1036 66.2903 57.8938C66.0731 57.684 65.7973 57.5457 65.4996 57.4972C65.3069 57.4676 65.1102 57.4765 64.9209 57.5233C64.7316 57.5701 64.5534 57.6539 64.3964 57.7698C64.2395 57.8858 64.1069 58.0316 64.0062 58.1991C63.9056 58.3665 63.8389 58.5522 63.8099 58.7455C63.5351 60.254 63.5805 61.8036 63.9433 63.2932C64.0003 63.6162 64.1497 63.9157 64.3731 64.1552C64.5889 64.3945 64.8837 64.5476 65.2032 64.5862C65.5247 64.6329 65.8526 64.5724 66.1365 64.4139C66.4204 64.2555 66.6445 64.008 66.7743 63.7094C67.078 63.0441 67.2588 62.329 67.3079 61.599C67.3527 60.7597 67.2472 59.9192 66.9967 59.1171Z" fill="#080606"/>
<path d="M58.9085 69.2468C58.9085 69.6393 58.8788 70.1988 58.7998 70.5914C58.7208 70.9839 58.6192 71.5191 58.0434 71.5191C57.4676 71.5191 57.0386 71.2931 57.0047 70.853C56.6984 69.4581 56.6791 66.7637 56.9483 65.3602C57.1176 64.8607 57.4225 64.4206 58.0773 64.5395C58.7321 64.6585 58.6756 65.1105 58.7659 65.5743C58.957 66.4196 58.9467 68.3644 58.9085 69.2468Z" fill="#080606"/>
<path fill-rule="evenodd" clip-rule="evenodd" d="M47.8968 73.9906C48.6237 73.5931 49.5351 73.8602 49.9326 74.587C50.5811 75.7729 51.9992 77.2813 53.7058 78.5039C55.4438 79.7489 57.1621 80.4691 58.3422 80.4691C59.0733 80.4691 59.6787 80.1043 60.1929 79.3254C60.7288 78.5139 61.0723 77.362 61.1667 76.1897C61.2332 75.364 61.9565 74.7485 62.7823 74.815C63.608 74.8815 64.2235 75.6048 64.157 76.4305C64.034 77.9578 63.5833 79.6353 62.6964 80.9784C61.788 82.3542 60.3423 83.4691 58.3422 83.4691C56.214 83.4691 53.8609 82.3053 51.9587 80.9427C50.0253 79.5577 48.2347 77.7348 47.3004 76.0264C46.9029 75.2995 47.17 74.3881 47.8968 73.9906Z" fill="#080606"/>
<path d="M42.2595 65.1738C36.5808 65.1738 36.5587 74.036 42.2595 74.036C47.9604 74.036 47.9604 65.1738 42.2595 65.1738Z" fill="#DA0A17"/>
<path d="M70.8806 65.1738C65.2019 65.1738 65.1798 74.036 70.8806 74.036C76.5815 74.036 76.5815 65.1738 70.8806 65.1738Z" fill="#DA0A17"/>
<path d="M18.8498 20.5515C29.8443 2.81764 52.203 0.716942 62.008 1.88332C81.5054 5.61781 81.0784 20.8297 77.9531 25.971C76.4295 28.4773 70.9546 28.4301 68.0996 25.1759C65.9897 22.771 60.3223 23.455 59.5406 27.1681C58.2549 33.275 49.1487 32.1663 46.8578 29.5764C43.9063 26.2398 35.6981 26.4376 34.8928 31.7206C32.3808 48.2 10.4514 36.3039 18.8498 20.5515Z" fill="#631114" stroke="#490B0A" stroke-width="4" stroke-linecap="round" stroke-linejoin="round"/>
</g>
<defs>
<clipPath id="clip0_347_14408">
<rect width="120" height="150" fill="white"/>
</clipPath>
</defs>
</svg>
