<svg width="131" height="150" viewBox="0 0 131 150" fill="none" xmlns="http://www.w3.org/2000/svg">
<g clip-path="url(#clip0_347_14470)">
<path d="M33.8216 32.6794C28.4731 36.0909 23.4178 39.937 18.7074 44.1784C11.6002 50.9048 5.7524 59.2568 3.60822 68.7573C1.68806 77.4461 2.98854 86.5324 7.27017 94.343C11.5518 102.154 18.5263 108.163 26.9093 111.263C46.6417 118.601 72.1319 114.395 91.5194 107.878C101.026 104.686 110.112 99.6748 116.755 92.2027C135.587 71.069 122.408 46.341 104.924 29.7413C96.3926 21.6577 86.7213 14.8269 77.095 8.11538C72.0569 4.58067 66.8839 1.6127 61.5909 6.62394C59.6061 8.75902 57.8289 11.0761 56.283 13.5442C50.3752 21.6576 42.1434 27.1312 33.8216 32.6794Z" fill="#F0E5BC"/>
<path d="M33.8216 32.6794C28.4731 36.0909 23.4178 39.937 18.7074 44.1784C11.6002 50.9048 5.7524 59.2568 3.60822 68.7573C1.68806 77.4461 2.98854 86.5324 7.27017 94.343C11.5518 102.154 18.5263 108.163 26.9093 111.263C46.6417 118.601 72.1319 114.395 91.5194 107.878C101.026 104.686 110.112 99.6748 116.755 92.2027C135.587 71.069 122.408 46.341 104.924 29.7413C96.3926 21.6577 86.7213 14.8269 77.095 8.11538C72.0569 4.58067 66.8839 1.6127 61.5909 6.62394C59.6061 8.75902 57.8289 11.0761 56.283 13.5442C50.3752 21.6576 42.1434 27.1312 33.8216 32.6794Z" stroke="#C6B98E" stroke-width="3" stroke-miterlimit="10"/>
<path d="M27.7786 32.3081C23.1604 36.6183 19.9066 44.8361 23.4753 50.7273C28.1685 58.4679 37.045 51.8757 41.6932 47.7444C44.0174 45.6862 46.1915 43.4342 48.4257 41.3312C48.9355 40.854 49.4453 40.3767 49.9251 39.9293C52.3092 37.9009 50.2849 39.5863 50.3149 39.5564C51.6794 37.8413 50.5399 39.6608 50.5698 39.3476L48.9055 37.7518C47.8259 35.798 47.2261 35.4699 47.1062 36.7973C46.9374 37.207 46.8069 37.6314 46.7163 38.065C46.4164 38.9151 46.0716 39.7354 45.8017 40.5855C44.7071 44.1501 44.992 48.3261 47.8709 51.0256C49.3511 52.2625 51.16 53.0462 53.0787 53.2817C54.9974 53.5173 56.9435 53.1947 58.6817 52.353C62.3418 50.5978 65.7382 48.344 68.7728 45.6564C70.2723 44.4036 71.7717 43.0911 73.2711 41.7339C74.7705 40.3767 75.7602 38.9002 77.0946 37.901L74.8305 38.5124H75.3403L72.1615 37.2L72.5514 37.5579L71.3818 35.5892C71.2619 35.2163 71.1119 36.5139 71.037 36.7525C70.7821 37.5877 70.4372 38.3931 70.2123 39.2283C69.5971 41.2461 69.5971 43.4 70.2123 45.4178C70.8746 47.1 72.0286 48.5462 73.5253 49.5697C75.022 50.5932 76.7928 51.1471 78.6091 51.1598C84.7267 51.3388 88.5202 46.775 92.5087 42.942C92.8986 42.5691 93.3034 42.1813 93.7383 41.8234C93.3184 42.1664 94.6079 41.2716 94.7429 41.1672C95.2827 40.9285 95.2827 40.8838 94.7429 41.0479C92.6887 37.5877 91.744 36.7227 91.744 38.4229C91.834 37.8263 91.834 37.8562 91.744 38.4229L91.5641 39.1239C90.7844 42.1068 90.8444 45.388 93.1685 47.7295C98.5964 53.1882 106.903 47.64 110.727 43.0911C111.538 42.2359 111.989 41.1048 111.989 39.9293C111.989 38.7538 111.538 37.6227 110.727 36.7674C110.309 36.3503 109.812 36.0193 109.265 35.7935C108.719 35.5677 108.132 35.4514 107.54 35.4514C106.948 35.4514 106.362 35.5677 105.815 35.7935C105.269 36.0193 104.772 36.3503 104.354 36.7674C103.141 38.491 101.505 39.8772 99.601 40.7943C99.8259 40.7048 98.8363 41.033 99.1662 40.9136C99.0918 40.4612 98.7613 40.7198 99.1662 41.1523C99.4462 41.4379 99.7066 41.7418 99.9459 42.062C99.9459 42.584 100.036 42.5691 100.021 42.062C99.9459 42.4946 100.021 42.4349 100.021 41.8681C100.438 40.8177 100.641 39.6952 100.618 38.5661C100.594 37.4369 100.346 36.3236 99.8859 35.2909C98.1016 32.0396 94.1431 31.6518 91.0243 33.0687C87.0058 34.9031 84.7267 38.6467 81.353 41.2567C81.9528 40.8093 80.7232 41.6594 80.7382 41.6444C80.7532 41.6295 79.4187 42.2858 80.1385 42.0024C79.6893 42.1787 79.5752 42.2539 79.0908 42.2539C79.8255 42.1346 79.038 41.8474 78.9619 42.0547C78.8779 41.6599 78.8905 41.744 78.7705 42.0273C79.0704 40.7149 79.3138 39.9591 79.6737 38.6616C80.5733 35.3953 80.2584 30.9657 76.2999 29.877C72.3415 28.7882 70.0773 32.2782 67.6483 34.59C64.0888 38.2851 60.0076 41.4453 55.5329 43.9711C55.0381 44.2246 54.0335 44.4931 53.9286 44.5676L53.4038 44.4334C53.6587 44.4334 53.8536 44.5378 53.9735 44.8958C54.1685 44.9853 53.9735 44.2694 53.9735 44.6422C54.0751 43.6649 54.328 42.709 54.7232 41.8085C55.3892 40.2619 55.8091 38.6215 55.9678 36.9464C56.0184 36.1365 55.9048 35.3247 55.6338 34.5593C55.3628 33.7939 54.9399 33.0905 54.3902 32.4909C53.8405 31.8913 53.1753 31.4077 52.434 31.0688C51.6927 30.7299 50.8905 30.5427 50.075 30.5183C46.9862 30.4437 44.6021 32.5765 42.473 34.5004C38.4995 38.0799 34.9758 42.3752 30.2677 44.9405C30.2677 44.9405 29.233 45.5073 29.2181 45.4924C29.6198 45.4542 30.0243 45.5264 30.3876 45.7012C31.1523 46.5811 31.3172 46.7004 30.8824 46.0442L30.9574 46.2828C30.8614 45.9902 30.7862 45.6911 30.7325 45.388C30.8374 46.0591 30.7325 44.2843 30.8374 44.0457C31.2161 41.9766 32.2701 40.0894 33.8363 38.6765C38.0796 34.7242 32.2938 28.112 28.0655 32.0494L27.7786 32.3081Z" fill="#AE8633"/>
<path d="M30.7636 29.7416L27.3449 37.7804C26.1753 40.5396 26.2203 43.7462 29.1592 45.4465C34.4821 48.5487 39.4452 41.7029 42.654 38.5262C45.3829 35.8565 48.6517 33.0675 52.0554 32.635C52.5652 32.635 52.4003 32.799 52.4152 32.635C52.4302 32.4709 51.9954 31.8147 52.0704 31.8296C52.1454 31.8445 51.3656 34.4396 51.2757 34.7379C50.2496 37.2152 49.7395 39.874 49.7763 42.5531C49.7766 43.2423 49.937 43.9221 50.2449 44.5395C50.5528 45.1569 51 45.6952 51.5515 46.1124C52.103 46.5296 52.744 46.8144 53.4244 46.9447C54.1048 47.0749 54.8063 47.0471 55.4741 46.8633C61.4718 45.0587 65.2353 40.5247 69.1188 35.9758C70.7822 33.8411 72.819 32.0222 75.1315 30.6066C75.7163 30.2785 77.4256 29.9802 77.6505 29.7416C78.3382 27.2581 75.1915 27.8177 75.8662 28.2502V28.8616C75.8211 29.6912 75.8211 30.5227 75.8662 31.3523C75.6713 34.5291 75.2964 38.5113 77.6355 41.0467C81.0093 44.7306 85.4476 41.9267 87.9966 38.9587C89.5714 36.8997 91.5901 35.2179 93.9043 34.0369C94.7699 33.6561 95.675 33.3711 96.6033 33.1868C97.353 33.0824 98.1926 33.2912 98.9124 33.1868C98.5825 33.1272 98.6725 33.157 99.1823 33.2763C98.2976 32.6052 98.0877 32.5306 98.5825 33.0824L97.4279 31.1137C97.158 30.4426 97.8778 29.6223 97.5329 30.0101C97.295 30.3491 97.1081 30.7209 96.9781 31.1137C96.2918 32.4516 96.0754 33.9794 96.3634 35.4538C96.5926 36.482 97.0475 37.447 97.6955 38.2798C98.3436 39.1127 99.1687 39.7927 100.112 40.2712C104.61 42.5829 108.914 40.1071 112.107 36.7663C116.051 32.5604 109.693 26.2218 105.75 30.4426C105.27 30.9646 104.58 31.5313 104.25 31.934C105.27 32.5306 103.89 31.7998 104.37 32.2621C104.475 32.3665 104.64 32.4262 104.76 32.5306C105.36 33.0824 104.88 34.9914 105.075 35.1108C105.53 34.2725 105.94 33.4113 106.305 32.5306C106.652 31.4322 106.683 30.2588 106.395 29.1437C106.106 28.0285 105.508 27.0163 104.67 26.2218C103.003 24.8663 100.915 24.1284 98.7624 24.1338C94.9439 24.024 91.1811 25.0637 87.9666 27.1167C86.3848 28.0901 84.9208 29.241 83.6033 30.547C82.9435 31.1883 82.3737 31.8892 81.774 32.5902C81.4741 32.9482 80.5294 33.9773 80.4995 33.9773H82.8985L82.4187 33.8431L84.4129 34.9915L84.1281 34.6783L85.2826 36.6469C84.7672 34.9141 84.6696 33.0849 84.9977 31.3076C85.3386 28.7996 84.9646 26.2468 83.9181 23.9399C81.0842 18.9734 74.2768 20.6587 70.2584 23.0749C66.8849 25.3267 63.9191 28.1304 61.4868 31.3673C59.1926 34.0966 56.6886 37.1689 53.2999 38.1831L58.9827 42.5083C58.6679 38.1832 61.9816 34.4844 61.0069 30.0101C59.8074 24.7154 54.1696 23.0152 49.3714 23.8951C45.278 24.6409 41.7693 27.3254 38.7405 29.9951C37.1361 31.3971 35.6367 32.978 34.2422 34.4694C33.1627 35.6029 32.0681 37.0347 30.9585 37.2734H33.1477H32.6528L34.6321 38.4218L34.3472 38.213L35.5018 40.1817C35.8616 41.1213 35.1719 42.2697 35.7117 40.9572C36.0265 40.1668 36.3714 39.3912 36.7013 38.6007L38.5606 34.2607C39.1228 33.2252 39.2683 32.0159 38.9676 30.8777C38.6669 29.7395 37.9425 28.7576 36.9412 28.1308C35.0519 27.0421 31.7382 27.5044 30.7936 29.7416H30.7636Z" fill="#3A2B12"/>
<path d="M47.9453 75.5293C44.0768 75.5293 44.0768 81.4951 47.9453 81.4951C51.8138 81.4951 51.8138 75.5293 47.9453 75.5293Z" fill="#D36055"/>
<path d="M74.9944 75.1113C71.1409 75.1113 71.1259 81.0771 74.9944 81.0771C78.8629 81.0771 78.8629 75.1113 74.9944 75.1113Z" fill="#D36055"/>
<path d="M58.4848 86.7604C60.9413 86.9604 63.4141 86.7844 65.817 86.2384C66.2007 86.1336 66.5269 85.8814 66.7237 85.5374C66.9206 85.1934 66.9719 84.7857 66.8665 84.4039C66.7612 84.0222 66.5077 83.6978 66.1618 83.502C65.8159 83.3062 65.406 83.2551 65.0223 83.3599C64.4675 83.4792 63.8977 83.5836 63.3429 83.6731C63.3811 83.6731 63.2666 83.6731 63.3429 83.6731L62.7325 83.7205L61.9064 83.7852C60.7687 83.8747 59.6226 83.8371 58.4848 83.7477C58.0871 83.7477 57.7057 83.9048 57.4245 84.1845C57.1433 84.4642 56.9854 84.8436 56.9854 85.2391C56.9854 85.6347 57.1433 86.014 57.4245 86.2937C57.7057 86.5734 58.0237 86.6723 58.4848 86.7604Z" fill="#040000"/>
<path d="M1.45061 89.0681C0.32963 96.5827 0.192932 104.209 1.04393 111.755C1.35562 114.619 5.80335 113.947 5.49166 111.083C4.6968 103.931 4.83788 96.7045 5.91139 89.5853C6.344 86.7294 1.881 86.1974 1.44839 89.0533L1.45061 89.0681Z" fill="#1F0E0B"/>
<path d="M124.672 76.7794C125.809 84.6194 125.938 92.5705 125.057 100.441C124.74 103.305 129.229 103.599 129.545 100.75C130.451 92.4771 130.294 84.122 129.077 75.8867C128.673 73.0334 124.253 73.925 124.672 76.7794Z" fill="#1F0E0B"/>
<path d="M52.793 117.253C52.793 114.429 48.4181 114.429 48.4181 117.253L48.1994 128.021C48.1994 130.436 48.1264 132.837 48.0827 135.252C48.0827 136.452 48.0827 137.667 48.0827 138.867V140.331C47.6852 140.287 47.2843 140.287 46.8869 140.331C45.6833 140.54 44.5676 141.1 43.6786 141.941C43.4152 142.216 43.2266 142.554 43.1309 142.923C43.0353 143.292 43.0358 143.68 43.1324 144.049C43.2291 144.418 43.4186 144.755 43.6828 145.029C43.947 145.304 44.277 145.505 44.6411 145.614C46.3565 146.208 48.2253 146.177 49.9201 145.527C50.3572 145.367 50.7618 145.157 51.1103 144.805C51.3931 144.588 51.6588 144.213 51.8933 143.879C52.1278 143.545 52.2421 143.154 52.3119 142.752C52.4871 141.256 52.4867 138.252 52.4867 138.252L52.5596 133.13L52.793 117.253Z" fill="#1F0E0B"/>
<path d="M82.1403 113.656C82.0267 110.833 77.6553 111.009 77.769 113.832L78.1447 125.597C78.2418 128.01 78.2655 130.411 78.319 132.826C78.3673 134.025 78.4162 135.239 78.4645 136.438L78.5234 137.901C78.1245 137.873 77.7239 137.889 77.3286 137.949C76.1344 138.206 75.0421 138.811 74.1877 139.687C73.9355 139.972 73.7607 140.317 73.68 140.69C73.5992 141.063 73.6153 141.45 73.7268 141.815C73.8382 142.18 74.0411 142.509 74.3162 142.773C74.5912 143.036 74.929 143.224 75.2972 143.319C77.0351 143.843 78.9011 143.736 80.5684 143.018C80.9987 142.842 81.3946 142.615 81.7286 142.25C82.0024 142.022 82.2528 141.636 82.4737 141.293C82.6945 140.95 82.793 140.555 82.8466 140.15C82.9615 138.648 82.8402 135.647 82.8402 135.647L82.707 130.525L82.1403 113.656Z" fill="#1F0E0B"/>
<path d="M50.4195 67.7698C50.3621 67.601 50.208 67.2773 50.208 67.2773C50.208 67.2773 49.9303 66.7563 49.7131 66.5465C49.496 66.3367 49.2201 66.1984 48.9225 66.1499C48.7297 66.1203 48.5331 66.1292 48.3438 66.176C48.1545 66.2228 47.9762 66.3066 47.8193 66.4225C47.6623 66.5385 47.5297 66.6843 47.4291 66.8518C47.3284 67.0192 47.2617 67.2049 47.2328 67.3983C46.9579 68.9067 47.0034 70.4563 47.3662 71.9459C47.4232 72.2689 47.5725 72.5684 47.796 72.8079C48.0118 73.0472 48.3066 73.2003 48.626 73.2389C48.9476 73.2856 49.2755 73.2251 49.5594 73.0667C49.8432 72.9082 50.0673 72.6607 50.1972 72.3621C50.5009 71.6968 50.6817 70.9818 50.7308 70.2517C50.7755 69.4124 50.6701 68.5719 50.4195 67.7698Z" fill="#080606"/>
<path d="M75.4625 68.262C75.405 68.0932 75.251 67.7695 75.251 67.7695C75.251 67.7695 74.9733 67.2485 74.7561 67.0387C74.5389 66.8289 74.2631 66.6906 73.9655 66.6421C73.7727 66.6125 73.5761 66.6214 73.3868 66.6682C73.1975 66.715 73.0192 66.7988 72.8622 66.9147C72.7053 67.0307 72.5727 67.1765 72.472 67.344C72.3714 67.5114 72.3047 67.6971 72.2757 67.8904C72.0009 69.3989 72.0464 70.9485 72.4091 72.4381C72.4662 72.7611 72.6155 73.0606 72.839 73.3001C73.0547 73.5394 73.3495 73.6925 73.669 73.7311C73.9905 73.7778 74.3185 73.7173 74.6023 73.5588C74.8862 73.4004 75.1103 73.1529 75.2402 72.8543C75.5439 72.189 75.7246 71.4739 75.7737 70.7439C75.8185 69.9046 75.7131 69.064 75.4625 68.262Z" fill="#080606"/>
<path d="M62.7752 77.985C62.7752 78.4754 62.7362 78.9367 62.6324 79.4271C62.5287 79.9176 62.3953 80.5863 61.6394 80.5863C60.8834 80.5863 60.3202 80.304 60.2757 79.7541C59.8735 78.0111 59.8482 76.202 60.2016 74.4484C60.424 73.8242 60.8242 73.2743 61.6838 73.423C62.5435 73.5716 62.4694 74.1363 62.588 74.7159C62.8388 75.7721 62.8253 76.8824 62.7752 77.985Z" fill="#080606"/>
</g>
<defs>
<clipPath id="clip0_347_14470">
<rect width="130" height="150" fill="white" transform="translate(0.105469)"/>
</clipPath>
</defs>
</svg>
