<svg width="180" height="150" viewBox="0 0 180 150" fill="none" xmlns="http://www.w3.org/2000/svg">
<path d="M3.92639 62.9683C15.8102 35.3618 33.5342 38.9825 40.9108 44.2437L39.6729 92.5249C37.197 93.4534 31.688 95.1866 29.4597 94.6914C27.2313 94.1962 25.6426 89.3269 25.1268 86.9541C24.9205 87.5731 22.9604 88.9039 16.7705 89.2753C9.03324 89.7395 9.96232 80.6095 9.96232 78.7526C5.93893 80.1453 1.14181 76.7409 3.92639 62.9683Z" fill="white"/>
<path d="M176.081 60.9683C164.198 33.3618 146.474 36.9825 139.097 42.2437L140.335 90.5249C142.811 91.4534 148.32 93.1866 150.548 92.6914C152.776 92.1962 154.365 87.3269 154.881 84.9541C155.087 85.5731 157.047 86.9039 163.237 87.2753C170.975 87.7395 170.045 78.6095 170.045 76.7526C174.069 78.1453 178.866 74.7409 176.081 60.9683Z" fill="white"/>
<path d="M141.251 43.2543C143.507 38.8481 150.248 38.9862 154.347 40.0222C159.377 41.3555 163.821 44.335 166.975 48.4892C170.174 52.8453 172.355 57.8682 173.358 63.1857C174.031 65.5018 174.237 67.9296 173.963 70.3267C173.441 72.7991 171.212 72.4676 169.204 71.9842C168.678 71.8394 168.12 71.855 167.603 72.029C167.086 72.2029 166.631 72.5275 166.298 72.9613C165.965 73.3951 165.768 73.9186 165.731 74.4652C165.695 75.0119 165.822 75.557 166.095 76.0313C166.686 77.3434 167.47 78.9457 166.824 80.3822C166.276 81.454 165.348 82.2816 164.224 82.7027C161.239 83.932 157.814 82.2745 155.282 80.7413C153.632 79.7606 150.908 80.9899 151.156 83.1309C151.339 84.1732 151.167 85.247 150.668 86.1792C150.168 87.1113 149.371 87.8476 148.404 88.2691C147.404 88.5917 146.322 88.5545 145.346 88.1638C144.369 87.7732 143.559 87.0534 143.053 86.1282C141.265 83.0618 136.519 85.8381 138.294 88.8907C139.385 90.889 141.132 92.4461 143.238 93.297C145.344 94.1479 147.678 94.2402 149.844 93.5581C152.01 92.8761 153.874 91.4618 155.119 89.5558C156.364 87.6497 156.912 85.3696 156.672 83.1032L152.545 85.4928C157.112 88.2553 163 90.0095 167.897 86.9984C170.017 85.7514 171.593 83.7498 172.313 81.3905C173.097 78.5037 172.065 75.8655 170.937 73.2273L167.746 77.3434C170.497 78.0064 173.454 78.3241 175.931 76.7633C176.943 76.0599 177.786 75.1378 178.398 74.0647C179.01 72.9916 179.375 71.7946 179.466 70.5615C179.683 67.8926 179.469 65.206 178.833 62.6055C178.319 59.8943 177.559 57.2359 176.563 54.6634C172.436 44.0968 163.825 35.3259 152.174 34.1104C146.52 33.4751 139.325 34.9806 136.505 40.5056C134.882 43.6687 139.628 46.4726 141.251 43.2681V43.2543Z" fill="#894C23"/>
<path d="M43.893 43.7734C41.5407 38.8286 35.6393 37.0191 30.5082 36.8672C25.0393 36.8711 19.7072 38.5849 15.2526 41.7706C10.5997 45.0695 6.87895 49.5241 4.45397 54.6991C1.94913 59.6865 0.453034 65.1227 0.0520126 70.6939C-0.0918854 72.0674 0.0636643 73.4559 0.50788 74.763C0.952096 76.0701 1.67433 77.2645 2.62442 78.2631C5.12805 80.5975 8.60835 80.4041 11.7173 79.7411L8.60838 75.694C7.35656 78.2355 6.25605 80.929 6.99888 83.8158C7.67821 86.1845 9.20718 88.2168 11.2908 89.5203C16.1192 92.6557 22.0482 90.9982 26.684 88.3877L22.6535 85.2799C22.1851 87.5746 22.5456 89.9619 23.6703 92.0141C24.7949 94.0664 26.6104 95.6497 28.7916 96.4806C30.9729 97.3114 33.3774 97.3356 35.5747 96.5487C37.7721 95.7619 39.6188 94.2154 40.7841 92.1861C42.655 89.1612 37.9091 86.3711 36.0383 89.4236C33.6997 93.1806 27.2893 91.4955 27.9496 86.7578C28.0938 86.2294 28.0783 85.6699 27.905 85.1505C27.7317 84.631 27.4086 84.1749 26.9765 83.8403C26.5445 83.5057 26.0231 83.3076 25.4787 83.2713C24.9343 83.2349 24.3914 83.362 23.919 83.6362C21.3191 85.0174 17.8525 86.6059 14.9087 85.2384C13.8445 84.7788 12.9803 83.9503 12.4739 82.9041C11.8411 81.4124 12.7077 79.824 13.3542 78.498C13.6319 78.0234 13.762 77.4765 13.728 76.9272C13.694 76.378 13.4973 75.8514 13.1633 75.4151C12.8293 74.9788 12.3731 74.6526 11.8532 74.4784C11.3333 74.3041 10.7734 74.2897 10.2454 74.4371C8.18194 74.8791 6.02222 75.0448 5.60953 72.5448C5.42428 70.1358 5.7141 67.7139 6.46241 65.4175C7.61922 60.1266 9.97259 55.1738 13.3405 50.9421C16.6403 46.9035 21.1765 44.0726 26.2438 42.8894C30.3707 41.9778 37.0562 42.1435 39.1884 46.6188C40.7016 49.8233 45.4475 47.0332 43.9343 43.8563L43.893 43.7734Z" fill="#894C23"/>
<path d="M142.26 104.764C140.778 75.0401 139.859 45.3166 139.296 15.5931C139.289 15.0527 139.073 14.536 138.695 14.151C138.316 13.7661 137.804 13.5426 137.265 13.5273C105.991 12.6059 74.7605 11.9223 43.4858 11.0009C43.2093 10.9929 42.9341 11.0397 42.6757 11.1385C42.4173 11.2373 42.1809 11.3862 41.9799 11.5767C41.7789 11.7671 41.6173 11.9955 41.5044 12.2486C41.3915 12.5017 41.3294 12.7746 41.3217 13.0517C40.3336 46.6096 39.7654 80.1774 39.6172 113.755C39.621 114.035 39.6802 114.312 39.7912 114.57C39.9022 114.827 40.063 115.06 40.2641 115.254C40.4653 115.449 40.7029 115.602 40.9633 115.704C41.2236 115.807 41.5016 115.856 41.7812 115.851C63.4215 114.84 85.1953 111.972 106.761 109.98C117.908 108.94 129.128 107.558 140.319 106.904C140.853 106.862 141.352 106.618 141.713 106.22C142.074 105.822 142.27 105.301 142.26 104.764Z" fill="#F1DFD8"/>
<path d="M142.26 104.764C140.778 75.0401 139.859 45.3166 139.296 15.5931C139.289 15.0527 139.073 14.536 138.695 14.151C138.316 13.7661 137.804 13.5426 137.265 13.5273C105.991 12.6059 74.7605 11.9223 43.4858 11.0009C43.2093 10.9929 42.9341 11.0397 42.6757 11.1385C42.4173 11.2373 42.1809 11.3862 41.9799 11.5767C41.7789 11.7671 41.6173 11.9955 41.5044 12.2486C41.3915 12.5017 41.3294 12.7746 41.3217 13.0517C40.3336 46.6096 39.7654 80.1774 39.6172 113.755C39.621 114.035 39.6802 114.312 39.7912 114.57C39.9022 114.827 40.063 115.06 40.2641 115.254C40.4653 115.449 40.7029 115.602 40.9633 115.704C41.2236 115.807 41.5016 115.856 41.7812 115.851C63.4215 114.84 85.1953 111.972 106.761 109.98C117.908 108.94 129.128 107.558 140.319 106.904C140.853 106.862 141.352 106.618 141.713 106.22C142.074 105.822 142.27 105.301 142.26 104.764Z" stroke="#D8B9A6" stroke-width="3" stroke-miterlimit="10"/>
<path d="M44.6562 14.6602C46.509 15.7599 52.2794 19.6953 53.3911 20.4384C70.0956 21.0625 82.2201 20.9288 98.9395 20.9585H128.406C130.763 19.8736 133.767 18.0694 135.739 17.0291" stroke="#FAF2ED" stroke-width="2.5" stroke-miterlimit="10" stroke-linecap="round"/>
<path d="M43.2266 111.986C45.8501 110.306 49.6418 107.588 52.2801 105.849C52.2801 105.849 100.451 101.946 130.083 99.0547C131.995 99.8869 136.702 102.574 138.406 103.495" stroke="#FAF2ED" stroke-width="2.5" stroke-miterlimit="10" stroke-linecap="round"/>
<path d="M52.2773 105.85L53.389 20.4395" stroke="#FAF2ED" stroke-width="2.5" stroke-miterlimit="10" stroke-linecap="round"/>
<path d="M128.402 21.0176L130.324 98.8172" stroke="#FAF2ED" stroke-width="2.5" stroke-miterlimit="10" stroke-linecap="round"/>
<path d="M38.9582 63.2748C32.7655 66.9474 29.5381 73.8906 26.6305 80.1674C26.4215 80.7131 26.0128 81.1581 25.4874 81.4123C24.962 81.6664 24.3594 81.7106 23.8018 81.5357C23.2474 81.3375 22.7927 80.9289 22.5359 80.3981C22.2792 79.8674 22.2411 79.2572 22.4298 78.6995C25.8957 71.2281 29.6814 63.6351 37.0166 59.2613C37.5475 59.0045 38.1588 58.9696 38.7162 59.1644C39.2736 59.3592 39.7314 59.7676 39.9889 60.2999C40.2463 60.8321 40.2824 61.4445 40.0891 62.0024C39.8958 62.5603 39.489 63.0181 38.9582 63.2748Z" fill="#2F0908"/>
<path d="M142.324 60.2748C148.517 63.9474 151.744 70.8906 154.652 77.1674C154.861 77.7131 155.269 78.1581 155.795 78.4123C156.32 78.6664 156.923 78.7106 157.48 78.5357C158.035 78.3375 158.49 77.9289 158.746 77.3981C159.003 76.8674 159.041 76.2572 158.852 75.6995C155.387 68.2281 151.601 60.6351 144.266 56.2613C143.735 56.0045 143.123 55.9696 142.566 56.1644C142.009 56.3592 141.551 56.7676 141.293 57.2999C141.036 57.8321 141 58.4445 141.193 59.0024C141.386 59.5603 141.793 60.0181 142.324 60.2748Z" fill="#2F0908"/>
<path d="M83.0158 115.045C83.1757 112.225 78.8079 111.977 78.6479 114.797L78.103 120.544C77.9663 122.955 77.7576 125.347 77.5772 127.756C77.5092 128.954 77.4405 130.167 77.3725 131.365L77.2897 132.827C76.8954 132.761 76.4951 132.738 76.0958 132.759C74.8823 132.9 73.7367 133.396 72.8015 134.185C72.523 134.444 72.3155 134.771 72.1991 135.135C72.0827 135.498 72.0613 135.885 72.1369 136.259C72.2125 136.632 72.3826 136.98 72.6309 137.269C72.8791 137.558 73.1972 137.777 73.5545 137.907C75.2335 138.597 77.1011 138.672 78.83 138.118C79.2754 137.984 79.6913 137.797 80.0591 137.465C80.3538 137.265 80.6403 136.905 80.8933 136.585C81.1463 136.265 81.2825 135.881 81.3751 135.483C81.6347 134 81.8043 131.001 81.8043 131.001L82.1671 125.891L83.0158 115.045Z" fill="#2F0908"/>
<path d="M107.045 112.099C106.807 109.284 102.448 109.653 102.686 112.468L102.954 118.234C103.158 120.64 103.288 123.038 103.448 125.448C103.549 126.644 103.651 127.855 103.752 129.051L103.876 130.509C103.476 130.499 103.076 130.533 102.684 130.61C101.502 130.92 100.438 131.572 99.623 132.485C99.3837 132.781 99.2243 133.134 99.1601 133.51C99.0959 133.886 99.1291 134.272 99.2565 134.631C99.3839 134.991 99.6012 135.311 99.8876 135.562C100.174 135.813 100.52 135.986 100.892 136.064C102.651 136.511 104.511 136.322 106.145 135.532C106.567 135.336 106.952 135.092 107.27 134.712C107.533 134.472 107.766 134.076 107.972 133.724C108.177 133.371 108.258 132.972 108.294 132.565C108.342 131.06 108.089 128.067 108.089 128.067L107.73 122.956L107.045 112.099Z" fill="#2F0908"/>
<path d="M82.7109 58.5532C82.0792 58.4815 81.8646 59.0349 81.8363 59.3206C81.7827 59.6973 81.2284 61.4658 80.8369 62.3993C80.4455 63.3328 81.0989 63.7469 81.7388 63.5512C82.3787 63.3554 83.1692 59.9752 83.1993 59.8773C83.2294 59.7795 83.5004 58.6428 82.7109 58.5532Z" fill="#CF6F53"/>
<path d="M79.4726 58.2938C78.8409 58.2152 78.6263 58.8221 78.598 59.1354C78.5444 59.5486 77.9901 61.4883 77.5987 62.5121C77.2072 63.536 77.8606 63.9901 78.5005 63.7754C79.1404 63.5607 79.9309 59.8534 79.961 59.7461C79.9911 59.6387 80.2622 58.3921 79.4726 58.2938Z" fill="#CF6F53"/>
<path d="M101.388 60.2407C100.921 60.2004 100.772 60.6709 100.757 60.9111C100.634 61.5815 100.402 62.1032 100.058 62.5592C99.7151 63.0152 99.9234 63.7188 100.83 63.6118C101.736 63.5049 101.995 62.0751 102.119 61.3546C102.243 60.634 101.972 60.291 101.388 60.2407Z" fill="#CF6F53"/>
<path d="M97.4738 59.9539L96.5232 62.4246C96.4731 62.618 96.5016 62.8235 96.6024 62.9959C96.7032 63.1682 96.8681 63.2933 97.0607 63.3436C97.2534 63.3939 97.458 63.3653 97.6297 63.2641C97.8013 63.1629 97.9259 62.9973 97.976 62.8039L98.9348 60.1635C98.9843 59.976 98.9588 59.7764 98.8638 59.6075C98.7688 59.4385 98.6118 59.3135 98.4263 59.2591C98.2416 59.2137 98.0466 59.2414 97.8816 59.3365C97.7166 59.4315 97.5944 59.5866 97.5402 59.7697L97.4738 59.9539Z" fill="#CF6F53"/>
<path d="M81.7214 71.0749C84.2212 72.242 86.8958 72.65 89.7053 72.5715C92.6224 72.49 95.5427 72.0461 98.3707 71.3229C98.5548 71.2722 98.7271 71.1855 98.8779 71.0678C99.0286 70.9502 99.1548 70.8039 99.2492 70.6373C99.3437 70.4707 99.4045 70.287 99.4282 70.0968C99.452 69.9066 99.4382 69.7135 99.3876 69.5287C99.337 69.3438 99.2507 69.1708 99.1336 69.0194C99.0164 68.868 98.8707 68.7413 98.7048 68.6465C98.5388 68.5517 98.3559 68.4906 98.1665 68.4668C97.9771 68.4429 97.7848 68.4568 97.6007 68.5075C95.1215 69.1559 92.5758 69.5085 90.0086 69.6322C87.642 69.7463 85.338 69.4819 83.1888 68.5513C81.5326 67.676 80.0653 70.1997 81.736 71.0603L81.7214 71.0749Z" fill="#080606"/>
<path d="M83.7383 51.5926C83.6818 51.4265 83.5303 51.1082 83.5303 51.1082C83.5303 51.1082 83.2571 50.5957 83.0435 50.3893C82.8299 50.183 82.5586 50.0469 82.2659 49.9992C82.0763 49.9702 81.8829 49.9789 81.6967 50.0249C81.5105 50.0709 81.3352 50.1533 81.1808 50.2674C81.0264 50.3815 80.896 50.5249 80.797 50.6896C80.698 50.8543 80.6324 51.037 80.6039 51.2271C80.3336 52.7108 80.3783 54.235 80.7351 55.7002C80.7912 56.0179 80.9381 56.3124 81.1579 56.548C81.3701 56.7834 81.6601 56.934 81.9743 56.9719C82.2905 57.0179 82.6131 56.9583 82.8923 56.8025C83.1715 56.6467 83.392 56.4032 83.5197 56.1095C83.8184 55.4551 83.9962 54.7518 84.0445 54.0338C84.0885 53.2082 83.9848 52.3815 83.7383 51.5926Z" fill="#080606"/>
<path d="M99.6544 51.5926C99.5979 51.4265 99.4463 51.1082 99.4463 51.1082C99.4463 51.1082 99.1732 50.5957 98.9596 50.3893C98.746 50.183 98.4747 50.0469 98.1819 49.9992C97.9923 49.9702 97.7989 49.9789 97.6127 50.0249C97.4265 50.0709 97.2512 50.1533 97.0968 50.2674C96.9424 50.3815 96.812 50.5249 96.713 50.6896C96.614 50.8543 96.5484 51.037 96.5199 51.2271C96.2496 52.7108 96.2943 54.235 96.6511 55.7002C96.7072 56.0179 96.8541 56.3124 97.0739 56.548C97.2861 56.7834 97.5761 56.934 97.8903 56.9719C98.2066 57.0179 98.5291 56.9583 98.8083 56.8025C99.0875 56.6467 99.308 56.4032 99.4357 56.1095C99.7344 55.4551 99.9122 54.7518 99.9605 54.0338C100.005 53.2082 99.9008 52.3815 99.6544 51.5926Z" fill="#080606"/>
<path d="M91.0316 62.9281C91.0316 63.3206 91.0019 63.8801 90.9228 64.2726C90.8438 64.6652 90.7422 65.2004 90.1664 65.2004C89.5907 65.2004 89.1617 64.9744 89.1278 64.5343C88.8214 63.1394 88.8022 60.445 89.0713 59.0415C89.2407 58.542 89.5455 58.1019 90.2003 58.2208C90.8551 58.3397 90.7987 58.7917 90.889 59.2556C91.08 60.1009 91.0698 62.0457 91.0316 62.9281Z" fill="#080606"/>
</svg>
