<svg width="140" height="150" viewBox="0 0 140 150" fill="none" xmlns="http://www.w3.org/2000/svg">
<g clip-path="url(#clip0_347_14275)">
<path d="M121.622 104.764C120.14 75.0401 119.221 45.3166 118.657 15.5931C118.65 15.0527 118.435 14.536 118.056 14.151C117.678 13.7661 117.166 13.5426 116.627 13.5273C85.352 12.6059 54.1218 11.9223 22.8471 11.0009C22.5707 10.9929 22.2954 11.0397 22.037 11.1385C21.7786 11.2373 21.5422 11.3862 21.3412 11.5767C21.1402 11.7671 20.9787 11.9955 20.8657 12.2486C20.7528 12.5017 20.6907 12.7746 20.6831 13.0517C19.6949 46.6096 19.1267 80.1774 18.9785 113.755C18.9824 114.035 19.0415 114.312 19.1525 114.57C19.2636 114.827 19.4243 115.06 19.6255 115.254C19.8266 115.449 20.0642 115.602 20.3246 115.704C20.585 115.807 20.863 115.856 21.1425 115.851C42.7829 114.84 64.5566 111.972 86.1228 109.98C97.269 108.94 108.489 107.558 119.68 106.904C120.215 106.862 120.713 106.618 121.074 106.22C121.435 105.822 121.631 105.301 121.622 104.764Z" fill="#532011"/>
<path d="M121.622 104.764C120.14 75.0401 119.221 45.3166 118.657 15.5931C118.65 15.0527 118.435 14.536 118.056 14.151C117.678 13.7661 117.166 13.5426 116.627 13.5273C85.352 12.6059 54.1218 11.9223 22.8471 11.0009C22.5707 10.9929 22.2954 11.0397 22.037 11.1385C21.7786 11.2373 21.5422 11.3862 21.3412 11.5767C21.1402 11.7671 20.9787 11.9955 20.8657 12.2486C20.7528 12.5017 20.6907 12.7746 20.6831 13.0517C19.6949 46.6096 19.1267 80.1774 18.9785 113.755C18.9824 114.035 19.0415 114.312 19.1525 114.57C19.2636 114.827 19.4243 115.06 19.6255 115.254C19.8266 115.449 20.0642 115.602 20.3246 115.704C20.585 115.807 20.863 115.856 21.1425 115.851C42.7829 114.84 64.5566 111.972 86.1228 109.98C97.269 108.94 108.489 107.558 119.68 106.904C120.215 106.862 120.713 106.618 121.074 106.22C121.435 105.822 121.631 105.301 121.622 104.764Z" stroke="#1F0E0B" stroke-width="3" stroke-miterlimit="10"/>
<path d="M24.0176 14.6602C25.8703 15.7599 31.6407 19.6953 32.7524 20.4384C49.4569 21.0625 61.5815 20.9288 78.3008 20.9585H107.767C110.124 19.8736 113.129 18.0694 115.1 17.0291" stroke="#5C2E17" stroke-width="2.5" stroke-miterlimit="10" stroke-linecap="round"/>
<path d="M22.5879 111.986C25.2114 110.306 29.0031 107.588 31.6414 105.849C31.6414 105.849 79.812 101.946 109.444 99.0547C111.356 99.8869 116.063 102.574 117.768 103.495" stroke="#5C2E17" stroke-width="2.5" stroke-miterlimit="10" stroke-linecap="round"/>
<path d="M31.6387 105.85L32.7503 20.4395" stroke="#5C2E17" stroke-width="2.5" stroke-miterlimit="10" stroke-linecap="round"/>
<path d="M107.764 21.0176L109.685 98.8172" stroke="#5C2E17" stroke-width="2.5" stroke-miterlimit="10" stroke-linecap="round"/>
<path d="M18.3146 65.2748C12.122 68.9474 8.89459 75.8906 5.98696 82.1674C5.77792 82.7131 5.36921 83.1581 4.84384 83.4123C4.31847 83.6664 3.71583 83.7106 3.15825 83.5357C2.60383 83.3375 2.14911 82.9289 1.89237 82.3981C1.63563 81.8674 1.59751 81.2572 1.78624 80.6995C5.25211 73.2281 9.03782 65.6351 16.3731 61.2613C16.9039 61.0045 17.5152 60.9696 18.0726 61.1644C18.63 61.3592 19.0878 61.7676 19.3453 62.2999C19.6028 62.8321 19.6388 63.4445 19.4455 64.0024C19.2522 64.5603 18.8454 65.0181 18.3146 65.2748Z" fill="#1F0E0B"/>
<path d="M121.681 62.2748C127.874 65.9474 131.102 72.8906 134.009 79.1674C134.218 79.7131 134.627 80.1581 135.152 80.4123C135.678 80.6664 136.28 80.7106 136.838 80.5357C137.392 80.3375 137.847 79.9289 138.104 79.3981C138.36 78.8674 138.399 78.2572 138.21 77.6995C134.744 70.2281 130.958 62.6351 123.623 58.2613C123.092 58.0045 122.481 57.9696 121.923 58.1644C121.366 58.3592 120.908 58.7676 120.651 59.2999C120.393 59.8321 120.357 60.4445 120.551 61.0024C120.744 61.5603 121.151 62.0181 121.681 62.2748Z" fill="#1F0E0B"/>
<path d="M54.9588 115.121C54.0931 119.133 53.7917 123.126 53.7034 127.231C53.68 129.297 53.5444 131.376 53.7013 133.436C53.7188 133.524 53.8096 133.975 53.7949 133.903C53.8301 134.077 53.3336 134.541 54.3178 133.57C55.0756 132.827 54.9304 133.008 54.2791 132.926C54.0597 132.891 53.8383 132.869 53.6162 132.862C52.4394 132.816 51.2687 133.051 50.2012 133.548C49.818 133.753 49.5021 134.065 49.2916 134.445C49.081 134.826 48.9849 135.26 49.0146 135.694C49.0444 136.129 49.1988 136.546 49.4593 136.894C49.7199 137.243 50.0753 137.509 50.483 137.66C51.3674 137.989 52.3088 138.135 53.2506 138.089C54.1924 138.043 55.1149 137.806 55.9626 137.393C59.1591 135.972 56.5661 132.194 53.9687 133.413C53.6481 133.56 53.3004 133.639 52.9476 133.645C52.5948 133.651 52.2446 133.583 51.9192 133.446L52.198 137.543C53.0086 137.271 53.8784 137.227 54.7125 137.417C55.349 137.465 55.8231 137.464 56.3789 137.15C56.9346 136.836 57.3931 136.487 57.7965 135.65C58.1751 134.579 58.1142 132.292 58.1142 132.292C58.1142 132.292 58.1991 130.294 58.1977 129.284C58.1284 124.978 58.3152 120.696 59.1845 116.479C59.3568 115.921 59.3112 115.318 59.0568 114.792C58.8024 114.266 58.3582 113.857 57.8143 113.647C57.2541 113.459 56.6432 113.5 56.1129 113.759C55.5827 114.019 55.1754 114.477 54.9788 115.035L54.9588 115.121Z" fill="#1F0E0B"/>
<path d="M85.3405 112.524C86.4311 116.481 87.1879 122.688 87.5075 126.781C87.6474 128.843 87.9001 130.911 87.8597 132.977C87.8471 133.065 87.782 133.521 87.7925 133.448C87.7673 133.624 88.2891 134.059 87.2517 133.146C86.4532 132.446 86.6083 132.618 87.254 132.5C87.471 132.453 87.6909 132.419 87.9122 132.399C89.0845 132.286 90.2666 132.455 91.3605 132.891C91.7547 133.074 92.0876 133.367 92.3193 133.736C92.551 134.104 92.6714 134.532 92.6662 134.967C92.661 135.403 92.5303 135.827 92.2899 136.19C92.0495 136.553 91.7096 136.839 91.3111 137.013C90.4467 137.391 89.5149 137.59 88.5721 137.597C87.6292 137.604 86.6948 137.42 85.8252 137.055C82.5536 135.816 84.9294 131.898 87.5914 132.969C87.9198 133.098 88.2714 133.157 88.6239 133.143C88.9765 133.129 89.3223 133.041 89.6394 132.886L89.5922 136.993C88.7675 136.767 87.8967 136.772 87.0746 137.008C86.4418 137.092 85.9684 137.118 85.3958 136.836C84.8232 136.554 84.3458 136.231 83.8958 135.418C83.4575 134.37 83.3892 132.084 83.3892 132.084C83.3892 132.084 83.1918 130.094 83.1362 129.085C82.9625 124.781 82.3039 118.279 81.1981 114.118C80.9946 113.571 81.0062 112.966 81.2305 112.427C81.4548 111.887 81.8751 111.453 82.4063 111.213C82.9551 110.994 83.5673 111 84.1114 111.23C84.6554 111.459 85.0879 111.893 85.3156 112.439L85.3405 112.524Z" fill="#1F0E0B"/>
<path d="M68.7398 61.207C68.3463 61.207 67.9688 61.3638 67.6905 61.6429C67.4122 61.9219 67.2559 62.3004 67.2559 62.695V66.4745C67.2559 66.8692 67.4122 67.2477 67.6905 67.5267C67.9688 67.8058 68.3463 67.9625 68.7398 67.9625C69.1334 67.9625 69.5109 67.8058 69.7892 67.5267C70.0675 67.2477 70.2238 66.8692 70.2238 66.4745V62.695C70.2238 62.3004 70.0675 61.9219 69.7892 61.6429C69.5109 61.3638 69.1334 61.207 68.7398 61.207Z" fill="#1F0E0B"/>
<path d="M72.5971 73.29C69.668 73.1805 64.4596 73.2635 63.8148 73.4286C63.1699 73.5938 62.9463 73.9543 62.6816 74.2984C62.5582 74.4588 62.4786 74.7102 62.4449 74.91C62.4113 75.1099 62.4272 75.3149 62.4912 75.5071C62.7144 75.9172 63.051 76.1219 63.4784 76.3079C63.9058 76.4939 64.2653 76.4585 64.8453 76.4585H65.3351H65.5428H66.4933C67.1759 76.4585 67.8632 76.4296 68.5458 76.4148C69.8962 76.4148 71.2467 76.4148 72.5971 76.4148C73.6062 76.4148 74.5708 75.7005 74.5263 74.9268C74.481 74.4556 74.254 74.0208 73.8936 73.715C73.5332 73.4093 73.068 73.2568 72.5971 73.29Z" fill="#1F0E0B"/>
<path d="M54.3886 55.4745C54.2106 55.531 53.8692 55.6826 53.8692 55.6826C53.8692 55.6826 53.3197 55.9557 53.0984 56.1693C52.8772 56.383 52.7313 56.6542 52.6801 56.947C52.649 57.1366 52.6583 57.33 52.7077 57.5162C52.757 57.7024 52.8454 57.8777 52.9677 58.0321C53.09 58.1865 53.2438 58.3169 53.4204 58.4159C53.597 58.5149 53.7929 58.5805 53.9968 58.609C55.5877 58.8793 57.2221 58.8346 58.7932 58.4778C59.1339 58.4217 59.4497 58.2748 59.7023 58.055C59.9548 57.8428 60.1162 57.5528 60.1569 57.2386C60.2062 56.9223 60.1423 56.5998 59.9752 56.3206C59.8082 56.0414 59.5471 55.8209 59.2321 55.6932C58.5304 55.3945 57.7763 55.2167 57.0063 55.1684C56.1211 55.1244 55.2346 55.2281 54.3886 55.4745Z" fill="#1F0E0B"/>
<path d="M78.1543 54.5175C77.9762 54.574 77.6349 54.7255 77.6349 54.7255C77.6349 54.7255 77.0853 54.9987 76.8641 55.2123C76.6428 55.4259 76.4969 55.6972 76.4457 55.99C76.4146 56.1796 76.4239 56.373 76.4733 56.5592C76.5226 56.7454 76.611 56.9207 76.7333 57.0751C76.8556 57.2295 77.0094 57.3599 77.186 57.4589C77.3626 57.5579 77.5585 57.6235 77.7624 57.652C79.3534 57.9223 80.9877 57.8776 82.5589 57.5208C82.8995 57.4647 83.2153 57.3178 83.468 57.098C83.7204 56.8857 83.8819 56.5958 83.9225 56.2816C83.9718 55.9653 83.908 55.6428 83.7409 55.3636C83.5738 55.0843 83.3127 54.8639 82.9977 54.7362C82.296 54.4375 81.5419 54.2597 80.772 54.2114C79.8868 54.1673 79.0002 54.271 78.1543 54.5175Z" fill="#1F0E0B"/>
</g>
<defs>
<clipPath id="clip0_347_14275">
<rect width="140" height="150" fill="white"/>
</clipPath>
</defs>
</svg>
