<svg width="110" height="150" viewBox="0 0 110 150" fill="none" xmlns="http://www.w3.org/2000/svg">
<path d="M106.62 105.764C105.138 76.0401 104.219 46.3166 103.655 16.5931C103.648 16.0527 103.433 15.536 103.054 15.151C102.676 14.7661 102.164 14.5426 101.625 14.5273C70.3501 13.6059 39.1198 12.9223 7.84514 12.0009C7.56871 11.9929 7.29344 12.0397 7.03505 12.1385C6.77667 12.2373 6.54023 12.3862 6.33926 12.5767C6.13829 12.7671 5.97672 12.9955 5.86379 13.2486C5.75086 13.5017 5.68879 13.7746 5.68111 14.0517C4.69297 47.6096 4.12478 81.1774 3.97656 114.755C3.98041 115.035 4.03955 115.312 4.15059 115.57C4.26162 115.827 4.42235 116.06 4.6235 116.254C4.82466 116.449 5.06227 116.602 5.32265 116.704C5.58302 116.807 5.86101 116.856 6.14059 116.851C27.7809 115.84 49.5546 112.972 71.1208 110.98C82.2671 109.94 93.4874 108.558 104.678 107.904C105.213 107.862 105.711 107.618 106.072 107.22C106.433 106.822 106.629 106.301 106.62 105.764Z" fill="#855724"/>
<path d="M106.62 105.764C105.138 76.0401 104.219 46.3166 103.655 16.5931C103.648 16.0527 103.433 15.536 103.054 15.151C102.676 14.7661 102.164 14.5426 101.625 14.5273C70.3501 13.6059 39.1198 12.9223 7.84514 12.0009C7.56871 11.9929 7.29344 12.0397 7.03505 12.1385C6.77667 12.2373 6.54023 12.3862 6.33926 12.5767C6.13829 12.7671 5.97672 12.9955 5.86379 13.2486C5.75086 13.5017 5.68879 13.7746 5.68111 14.0517C4.69297 47.6096 4.12478 81.1774 3.97656 114.755C3.98041 115.035 4.03955 115.312 4.15059 115.57C4.26162 115.827 4.42235 116.06 4.6235 116.254C4.82466 116.449 5.06227 116.602 5.32265 116.704C5.58302 116.807 5.86101 116.856 6.14059 116.851C27.7809 115.84 49.5546 112.972 71.1208 110.98C82.2671 109.94 93.4874 108.558 104.678 107.904C105.213 107.862 105.711 107.618 106.072 107.22C106.433 106.822 106.629 106.301 106.62 105.764Z" stroke="#67421F" stroke-width="3" stroke-miterlimit="10"/>
<path d="M9.01562 15.6602C10.8684 16.7599 16.6388 20.6953 17.7504 21.4384C34.455 22.0625 46.5795 21.9288 63.2989 21.9585H92.7652C95.122 20.8736 98.1266 19.0694 100.098 18.0291" stroke="#B06F20" stroke-width="2.5" stroke-miterlimit="10" stroke-linecap="round"/>
<path d="M7.58594 112.986C10.2095 111.306 14.0011 108.588 16.6395 106.849C16.6395 106.849 64.81 102.946 94.4421 100.055C96.3542 100.887 101.061 103.574 102.766 104.495" stroke="#B06F20" stroke-width="2.5" stroke-miterlimit="10" stroke-linecap="round"/>
<path d="M16.6367 106.85L17.7484 21.4395" stroke="#B06F20" stroke-width="2.5" stroke-miterlimit="10" stroke-linecap="round"/>
<path d="M92.7617 22.0176L94.6831 99.8172" stroke="#B06F20" stroke-width="2.5" stroke-miterlimit="10" stroke-linecap="round"/>
<path d="M39.8426 115.056C38.3888 118.894 37.4956 122.798 36.7966 126.843C36.4656 128.883 36.0217 130.919 35.8697 132.979C35.8741 133.069 35.8965 133.529 35.8929 133.454C35.9015 133.633 35.3415 134.017 36.4594 133.204C37.3195 132.582 37.1491 132.739 36.5172 132.561C36.3055 132.493 36.0897 132.439 35.8712 132.399C34.7144 132.178 33.5218 132.236 32.3921 132.569C31.9826 132.714 31.6238 132.975 31.3589 133.32C31.094 133.665 30.9342 134.08 30.8989 134.514C30.8636 134.948 30.9542 135.383 31.1598 135.767C31.3655 136.15 31.6773 136.466 32.0579 136.677C32.8834 137.134 33.7926 137.418 34.7307 137.513C35.6688 137.608 36.6163 137.511 37.5161 137.229C40.8887 136.3 38.8877 132.178 36.1377 132.996C35.7987 133.094 35.4431 133.12 35.0934 133.073C34.7437 133.026 34.4076 132.907 34.1062 132.723L33.7712 136.816C34.6133 136.668 35.4799 136.755 36.2765 137.066C36.8987 137.209 37.3677 137.279 37.964 137.051C38.5603 136.823 39.0657 136.546 39.5893 135.779C40.1233 134.776 40.4039 132.506 40.4039 132.506C40.4039 132.506 40.7856 130.543 40.9348 129.543C41.508 125.275 42.3308 121.069 43.8188 117.029C44.0724 116.503 44.1171 115.9 43.9439 115.342C43.7707 114.784 43.3925 114.313 42.886 114.024C42.36 113.755 41.7499 113.704 41.1868 113.882C40.6238 114.059 40.1529 114.452 39.8753 114.974L39.8426 115.056Z" fill="#1F0E0B"/>
<path d="M70.6233 112.472C72.3614 116.19 74.1477 122.183 75.1487 126.165C75.632 128.174 76.2276 130.17 76.534 132.214C76.5364 132.303 76.5486 132.764 76.5466 132.689C76.5514 132.868 77.1387 133.209 75.9628 132.482C75.0584 131.926 75.2402 132.07 75.857 131.845C76.063 131.762 76.2741 131.692 76.489 131.635C77.6258 131.328 78.8194 131.296 79.9709 131.543C80.3902 131.657 80.7676 131.89 81.0577 132.215C81.3478 132.539 81.5382 132.94 81.606 133.37C81.6739 133.801 81.6162 134.241 81.44 134.639C81.2638 135.038 80.9766 135.376 80.6129 135.614C79.824 136.132 78.9387 136.484 78.0104 136.649C77.0821 136.814 76.13 136.789 75.2116 136.575C71.7787 135.902 73.4643 131.641 76.2681 132.251C76.6135 132.323 76.97 132.322 77.3152 132.249C77.6604 132.176 77.9866 132.032 78.2733 131.826L78.9148 135.882C78.064 135.798 77.2064 135.949 76.4355 136.32C75.8258 136.509 75.3633 136.613 74.7516 136.431C74.1398 136.249 73.6151 136.011 73.0352 135.285C72.4275 134.325 71.977 132.082 71.977 132.082C71.977 132.082 71.4489 130.153 71.2251 129.168C70.3327 124.955 68.5939 118.655 66.8065 114.738C66.5142 114.232 66.4243 113.634 66.5551 113.065C66.6859 112.496 67.0275 111.997 67.5109 111.671C68.0153 111.364 68.6199 111.267 69.1946 111.402C69.7694 111.537 70.2685 111.893 70.5845 112.392L70.6233 112.472Z" fill="#1F0E0B"/>
<path d="M34.1016 53.1411C34.1895 54.823 34.8468 56.0533 36.0401 57.2377C37.3705 58.5029 39.106 59.2519 40.9363 59.3505C41.7698 59.3728 42.5991 59.2253 43.3743 58.9169C44.1494 58.6086 44.8541 58.1457 45.446 57.5564C46.0379 56.967 46.5045 56.2634 46.8178 55.488C47.1311 54.7126 47.2846 53.8815 47.2688 53.0449C47.2688 52.7409 47.1484 52.4493 46.9342 52.2343C46.7199 52.0193 46.4293 51.8984 46.1263 51.8984C45.8233 51.8984 45.5328 52.0193 45.3185 52.2343C45.1043 52.4493 44.9839 52.7409 44.9839 53.0449C45.0025 53.5811 44.9102 54.1153 44.7127 54.6139C44.5153 55.1125 44.2169 55.5645 43.8366 55.9416C43.4563 56.3186 43.0022 56.6125 42.503 56.8046C42.0038 56.9967 41.4704 57.0828 40.9363 57.0576C39.7231 56.989 38.5704 56.5031 37.6722 55.6818C37.2431 55.2961 37.0043 54.88 36.7776 54.3487C36.6633 54.0836 36.559 53.8623 36.4886 53.5823C36.4252 53.358 36.4292 53.2973 36.3865 53.061C36.3438 52.8247 36.2502 52.4762 36.0385 52.2637C35.8268 52.0513 35.5432 51.9266 35.244 51.9145C34.941 51.9145 34.6504 52.0353 34.4362 52.2504C34.2219 52.4654 34.1016 52.7569 34.1016 53.061V53.1411Z" fill="#080606"/>
<path d="M62.2796 53.4046C62.4578 54.9304 63.128 56.0119 64.2833 57.0203C65.5681 58.0943 67.1917 58.6747 68.8634 58.6576C69.6234 58.6293 70.3697 58.4466 71.0572 58.1206C71.7448 57.7947 72.3593 57.3322 72.8636 56.7612C73.3679 56.1902 73.7517 55.5225 73.9916 54.7984C74.2315 54.0743 74.3226 53.3088 74.2594 52.5483C74.2417 52.2715 74.1151 52.0131 73.9075 51.8299C73.6999 51.6467 73.4284 51.5537 73.1526 51.5714C72.8768 51.5891 72.6193 51.716 72.4368 51.9242C72.2544 52.1325 72.1618 52.4049 72.1796 52.6817C72.2278 53.1686 72.175 53.6603 72.0244 54.1257C71.8737 54.591 71.6286 55.0199 71.3044 55.3853C70.9802 55.7508 70.584 56.0448 70.1409 56.2487C69.6977 56.4527 69.2172 56.5623 68.7296 56.5705C67.6212 56.5789 66.5436 56.2039 65.678 55.5087C65.265 55.1828 65.0233 54.8179 64.7859 54.3475C64.6664 54.1129 64.5586 53.9176 64.4782 53.6668C64.4074 53.4663 64.4074 53.4109 64.3547 53.1983C64.3021 52.9856 64.1965 52.6739 63.9915 52.4929C63.7864 52.3119 63.5209 52.2149 63.2479 52.2214C62.9721 52.2391 62.7146 52.366 62.5322 52.5742C62.3497 52.7824 62.2572 53.0549 62.2749 53.3317L62.2796 53.4046Z" fill="#080606"/>
<path d="M51.8242 58.0441C51.8242 59.7801 51.9221 61.5162 51.9058 63.2523C51.9058 63.6867 52.0778 64.1033 52.3839 64.4104C52.6899 64.7176 53.1051 64.8901 53.5379 64.8901C53.9708 64.8901 54.3859 64.7176 54.692 64.4104C54.9981 64.1033 55.17 63.6867 55.17 63.2523C55.17 61.5162 55.17 59.7801 55.0884 58.0441C55.0884 57.6097 54.9164 57.1931 54.6104 56.886C54.3043 56.5788 53.8892 56.4062 53.4563 56.4062C53.0235 56.4062 52.6083 56.5788 52.3022 56.886C51.9962 57.1931 51.8242 57.6097 51.8242 58.0441Z" fill="#080606"/>
<path d="M48.737 73.8831C53.4265 73.7412 58.0997 73.5283 62.7566 73.2444C63.1895 73.2444 63.6046 73.0718 63.9107 72.7647C64.2168 72.4575 64.3887 72.0409 64.3887 71.6066C64.3887 71.1722 64.2168 70.7556 63.9107 70.4485C63.6046 70.1413 63.1895 69.9688 62.7566 69.9688C58.0889 70.2417 53.4156 70.4547 48.737 70.6075C46.6479 70.6075 46.6316 73.8831 48.737 73.8831Z" fill="#080606"/>
<path d="M38.3903 63.0234C34.1958 63.0234 34.1795 66.2991 38.3903 66.2991C42.601 66.2991 42.601 63.0234 38.3903 63.0234Z" fill="#D36055"/>
<path d="M71.1464 61.8613C66.9356 61.8613 66.9356 65.1369 71.1464 65.1369C75.3572 65.1369 75.3408 61.8613 71.1464 61.8613Z" fill="#D36055"/>
<path d="M79.746 75.187C73.2285 78.2463 58.733 78.6622 51.907 77.5407C51.3382 77.407 50.7403 77.4951 50.2349 77.7869C49.7295 78.0787 49.3544 78.5524 49.1857 79.1119C49.0382 79.6819 49.1207 80.2876 49.4155 80.7982C49.7103 81.3088 50.1936 81.6832 50.761 81.8404C58.8889 83.1713 74.2356 82.6586 81.9752 79.0482C82.4859 78.7534 82.8582 78.2673 83.0103 77.6967C83.1623 77.1262 83.0817 76.518 82.7861 76.006C82.4904 75.4939 82.0041 75.12 81.434 74.9665C80.8638 74.8129 80.2566 74.8922 79.746 75.187Z" fill="#1F0E0B"/>
<path d="M29.3673 81.0054C32.8775 82.6531 38.2603 84.2532 43.9544 84.5401C48.8326 84.7859 54.0567 83.8765 57.2063 83.3591C57.7751 83.2254 58.3729 83.3134 58.8784 83.6052C59.3838 83.897 59.7589 84.3707 59.9276 84.9302C60.0751 85.5002 59.9926 86.106 59.6978 86.6166C59.403 87.1272 58.9197 87.5015 58.3522 87.6588C54.7066 88.2557 49.1669 89.201 43.9544 88.943C37.5459 88.6258 31.4061 86.8576 27.138 84.8666C26.6274 84.5718 26.2551 84.0856 26.103 83.5151C25.9509 82.9445 26.0316 82.3364 26.3272 81.8243C26.6228 81.3123 27.1092 80.9384 27.6793 80.7848C28.2495 80.6312 28.8566 80.7106 29.3673 81.0054Z" fill="#1F0E0B"/>
</svg>
