<svg width="146" height="150" viewBox="0 0 146 150" fill="none" xmlns="http://www.w3.org/2000/svg">
<g clip-path="url(#clip0_1217_30844)">
<path d="M76.923 25.4442C72.9507 34.605 71.1632 44.9127 66.4674 53.7621C63.0645 60.3925 58.9447 66.6312 54.1816 72.3669C49.4716 77.8606 44.0523 82.8304 39.5551 88.494C36.8029 91.9488 34.7316 96.3239 35.5402 100.657C36.4089 104.185 38.5505 107.27 41.5554 109.322C45.4424 112.139 49.8622 114.139 54.5469 115.2C59.2316 116.261 64.0835 116.362 68.8082 115.495C77.7601 113.64 87.9462 106.674 94.4437 100.671C109.255 86.979 118.292 68.1051 122.59 48.5374C124.917 37.9324 126.35 24.7787 120.789 14.8533C113.355 1.57216 95.2523 3.04469 85.3216 12.6869C81.7014 16.3409 78.8464 20.6776 76.923 25.4442Z" fill="#F1E7C7"/>
<path d="M76.923 25.4442C72.9508 34.605 71.1632 44.9127 66.4674 53.7621C63.0645 60.3925 58.9447 66.6312 54.1816 72.3669C49.4716 77.8606 44.0523 82.8304 39.5551 88.494C36.8029 91.9488 34.7316 96.3239 35.5402 100.657C36.4089 104.185 38.5505 107.27 41.5554 109.322C45.4424 112.139 49.8622 114.139 54.5469 115.2C59.2316 116.261 64.0835 116.362 68.8082 115.495C77.7601 113.64 89.1946 107.17 95.6921 101.18C110.503 87.4746 118.292 68.1051 122.647 48.5374C124.974 37.9324 126.407 24.7787 120.845 14.8533C113.411 1.57216 95.3091 3.04469 85.3784 12.6869C81.7378 16.3358 78.8633 20.6728 76.923 25.4442V25.4442Z" stroke="#D2C49A" stroke-width="3" stroke-miterlimit="10"/>
<path d="M89.4621 31.0867C85.5655 42.2134 80.6942 52.6536 74.8227 62.8805C69.7155 71.7298 64.1543 80.9331 56.9616 88.2675C53.0214 92.4023 48.2429 95.6509 42.945 97.7965C41.271 98.4619 41.9945 101.195 43.6969 100.529C53.4149 96.7345 60.565 89.4002 66.5234 81.0747C77.4178 65.8648 86.0305 49.4814 92.186 31.823C92.796 30.0956 90.058 29.3593 89.4621 31.0584V31.0867Z" fill="#F8F3E1"/>
<path d="M76.6397 60.9258C72.9795 60.9258 72.9795 66.5894 76.6397 66.5894C80.2999 66.5894 80.2999 60.9258 76.6397 60.9258Z" fill="#D15B15"/>
<path d="M99.7515 61.2383C96.1055 61.2383 96.0914 66.9019 99.7515 66.9019C103.412 66.9019 103.412 61.2383 99.7515 61.2383Z" fill="#D15B15"/>
<path d="M92.9847 137.895C92.2375 127.814 91.845 118.489 91.8072 108.38C91.8072 107.816 91.583 107.276 91.1839 106.878C90.7848 106.48 90.2435 106.256 89.6791 106.256C89.1148 106.256 88.5735 106.48 88.1744 106.878C87.7753 107.276 87.5511 107.816 87.5511 108.38C87.5511 117.998 87.9105 126.832 88.6293 136.422C86.1325 137.371 83.7633 138.9 83.2383 141.689C83.1526 142.05 83.161 142.427 83.2628 142.783C83.3645 143.14 83.5563 143.464 83.8196 143.725C84.083 143.987 84.4091 144.176 84.7669 144.276C85.1246 144.376 85.502 144.382 85.8629 144.295C87.1823 144.079 88.4395 143.581 89.5487 142.836C90.6578 142.09 91.6148 141.123 92.3116 139.984C92.4926 139.703 92.6875 139.43 92.8125 139.094C92.9062 138.942 92.9975 138.308 92.9847 137.895Z" fill="#1F0E0B"/>
<path d="M66.5545 143.829C66.2136 133.726 66.0684 128.159 66.4374 118.056C66.4601 117.493 66.2578 116.945 65.8751 116.531C65.4924 116.116 64.9605 115.871 64.3966 115.848C63.8327 115.826 63.2828 116.028 62.868 116.409C62.4533 116.791 62.2075 117.322 62.1848 117.885C61.7978 127.496 61.9296 132.571 62.2619 142.182C59.7289 143.03 57.3001 144.462 56.6633 147.228C56.5631 147.585 56.5564 147.962 56.6437 148.322C56.7311 148.682 56.9096 149.014 57.1622 149.286C57.4148 149.558 57.7331 149.76 58.0865 149.874C58.44 149.988 58.8168 150.01 59.1809 149.937C60.508 149.774 61.7842 149.328 62.9224 148.628C64.0606 147.928 65.0558 146.999 65.7979 145.89C65.99 145.616 66.1957 145.351 66.3342 145.02C66.434 144.872 66.5506 144.242 66.5545 143.829Z" fill="#1F0E0B"/>
<path d="M81.3353 71.0075C81.9933 72.254 83.0821 73.2199 84.3996 73.726C85.807 74.4014 87.3494 74.7499 88.911 74.7454C90.3083 74.733 91.6801 74.3698 92.8999 73.6894C94.1196 73.0089 95.1482 72.0331 95.8909 70.8517C96.8556 69.2942 94.4013 67.8642 93.4508 69.4358C92.9599 70.1938 92.2882 70.8183 91.4958 71.2532C90.7035 71.6882 89.8153 71.92 88.911 71.9278C87.8583 71.9396 86.8147 71.7322 85.8467 71.319C84.9663 71.0244 84.2309 70.4069 83.7896 69.5916C83.6957 69.4305 83.5709 69.2895 83.4224 69.1767C83.2738 69.0639 83.1044 68.9814 82.9238 68.934C82.7433 68.8867 82.5551 68.8754 82.3701 68.9007C82.1852 68.9261 82.0071 68.9877 81.846 69.0819C81.6846 69.1755 81.5434 69.3001 81.4303 69.4484C81.3173 69.5966 81.2347 69.7657 81.1872 69.9459C81.1398 70.1261 81.1284 70.3139 81.1538 70.4985C81.1792 70.6831 81.2409 70.8609 81.3353 71.0216V71.0075Z" fill="#080606"/>
<path d="M46.4366 49.3244C46.0728 44.2268 45.6363 37.8948 40.616 35.1064C40.2987 34.9303 39.9678 34.7798 39.6265 34.6562C39.578 33.9603 39.2616 33.3101 38.7435 32.8418C38.2254 32.3734 37.5459 32.1233 36.8472 32.1437C29.0912 32.1437 24.3184 38.1708 19.3854 43.2393C17.0799 45.6239 14.5345 47.7652 11.7895 49.6294C10.3822 50.6002 8.92511 51.497 7.42407 52.3161C5.96892 53.0713 4.51376 53.6377 3.14592 54.5236C0.235623 56.4988 -0.637452 60.9428 2.7967 62.976C4.4405 63.7519 6.2316 64.1679 8.04977 64.1959C9.65011 64.3779 11.266 64.3779 12.8664 64.1959C12.6952 64.5792 12.4855 64.9441 12.2406 65.2852C11.1098 66.463 9.8336 67.4927 8.44269 68.3495C7.72723 68.8613 7.16251 69.5553 6.80742 70.3591C6.45233 71.163 6.31991 72.0473 6.42396 72.9196C6.52802 73.792 6.86472 74.6205 7.39898 75.3187C7.93323 76.0169 8.64542 76.5592 9.46127 76.889C12.7062 78.4429 17.0281 78.167 20.4768 77.5571C22.367 77.2048 24.2086 76.6296 25.9627 75.8433C26.5157 75.611 27.0541 75.335 27.5925 75.0591C27.4927 76.2024 27.7198 77.3506 28.2473 78.3703C28.8394 79.3611 29.7338 80.1368 30.7995 80.5836C31.8652 81.0305 33.0462 81.1252 34.1697 80.8538C38.055 80.084 39.7284 76.8745 41.7656 73.3309C43.0551 71.0257 44.0988 68.5919 44.8796 66.0694C46.4833 60.6416 47.0121 54.954 46.4366 49.3244Z" fill="#B79421"/>
<path d="M42.7852 47.0873C42.7852 46.7021 42.6319 46.3328 42.359 46.0604C42.0861 45.788 41.716 45.635 41.3301 45.635C40.9441 45.635 40.574 45.788 40.3011 46.0604C40.0282 46.3328 39.8749 46.7021 39.8749 47.0873C39.8749 47.6101 39.8749 48.1184 39.8749 48.6413C39.8667 48.6845 39.8667 48.7288 39.8749 48.772C39.5548 51.4297 39.1037 54.0583 38.5653 56.6725C38.0331 58.4406 37.3516 60.1605 36.5281 61.8136C34.3599 66.1705 29.7034 70.1498 30.3728 75.3345C30.3728 75.5908 30.4408 75.8426 30.5699 76.0642C30.699 76.2858 30.8846 76.4693 31.1078 76.5962C31.331 76.7231 31.5838 76.7887 31.8407 76.7865C32.0975 76.7842 32.3491 76.7142 32.57 76.5835C36.6154 74.1727 38.1433 69.5398 39.4093 65.2701C40.195 62.5978 40.8644 59.9063 41.4174 57.1953C42.3532 53.9082 42.8138 50.5044 42.7852 47.0873Z" fill="#C6A726"/>
<path d="M16.8395 61.6965C16.9229 61.6641 17.0013 61.6201 17.0723 61.5658C21.2486 58.5159 23.5623 54.0429 25.4103 49.381C25.7014 48.8727 25.9633 48.3353 26.2397 47.827C26.9766 46.7243 27.7733 45.6626 28.6262 44.6465C28.9422 44.359 29.2724 44.0876 29.6157 43.8332C31.4637 42.3809 33.5039 41.7662 34.9154 39.8491C35.0162 39.7122 35.1002 39.58 35.1661 39.3109C35.1944 39.0952 35.2346 38.9836 35.2607 38.5774C35.2607 38.179 35.27 38.0239 35.2346 37.7466C35.1992 37.4693 35.0889 37.2068 34.9154 36.9874C34.7419 36.768 34.5118 36.5998 34.2498 36.501C33.9878 36.4022 33.7037 36.3764 33.4282 36.4265C29.3538 37.2253 26.0506 40.4929 23.8824 43.8332C21.7942 47.1837 19.0647 50.0905 15.85 52.3873C14.2808 53.4678 12.6148 54.4013 10.8734 55.1757C9.41822 55.8147 7.17728 56.1342 6.59522 57.906C6.38708 58.4736 6.41328 59.1004 6.66801 59.6487C6.72632 59.8696 6.836 60.0736 6.98814 60.2442C7.583 60.8048 8.28554 61.2393 9.05336 61.5214C9.82119 61.8034 10.6384 61.9272 11.4555 61.8853C13.027 61.8853 14.5986 61.8853 16.1701 61.8853C16.4039 61.869 16.6318 61.8047 16.8395 61.6965Z" fill="#C6A726"/>
<path d="M34.8916 40.6475C34.5752 40.7881 34.3999 40.9604 34.1866 41.19C26.096 50.2087 21.5996 61.6383 14.3529 71.267C14.2213 71.4886 14.1511 71.7411 14.1494 71.9987C14.1478 72.2562 14.2149 72.5096 14.3437 72.7328C14.4726 72.956 14.6585 73.141 14.8826 73.2687C15.1067 73.3965 15.3608 73.4625 15.6189 73.46C22.7928 73.0824 27.2601 67.2296 30.5633 61.5221C34.0702 55.4515 37.4316 48.9743 37.4752 41.8145C37.474 41.529 37.3886 41.2502 37.2295 41.0129C37.0705 40.7756 36.8449 40.5904 36.5809 40.4803C36.3169 40.3703 36.0264 40.3404 35.7455 40.3943C35.4645 40.4482 35.2002 40.4608 34.8916 40.6475Z" fill="#C6A726"/>
<path d="M61.248 61.3873C60.9036 52.2885 58.7732 43.3456 54.9775 35.0658C53.2325 31.5119 49.9979 28.227 45.7703 28.2129C42.1101 28.2129 38.8758 31.3476 38.9748 35.1791C38.9892 35.7379 39.218 36.2698 39.614 36.665C40.01 37.0602 40.543 37.2886 41.1028 37.3029C41.6649 37.2956 42.2019 37.0695 42.5994 36.6728C42.9969 36.2761 43.2235 35.7401 43.2308 35.1791C43.2308 32.1193 46.4229 32.0641 48.2955 33.3243C50.8491 35.0658 51.9273 38.464 52.9204 41.225C55.2346 47.7174 56.6057 54.5071 56.992 61.3873C57.148 64.1058 61.4041 64.1342 61.248 61.3873Z" fill="#1F0E0B"/>
<path d="M81.8717 53.5452C81.8142 53.3764 81.6602 53.0527 81.6602 53.0527C81.6602 53.0527 81.3824 52.5317 81.1653 52.3219C80.9481 52.1121 80.6723 51.9738 80.3746 51.9253C80.1819 51.8957 79.9852 51.9046 79.7959 51.9514C79.6066 51.9982 79.4284 52.082 79.2714 52.1979C79.1145 52.3139 78.9819 52.4597 78.8812 52.6272C78.7806 52.7946 78.7139 52.9803 78.6849 53.1736C78.4101 54.6821 78.4555 56.2317 78.8183 57.7213C78.8753 58.0443 79.0247 58.3438 79.2481 58.5833C79.4639 58.8226 79.7587 58.9757 80.0782 59.0143C80.3997 59.061 80.7276 59.0005 81.0115 58.842C81.2954 58.6836 81.5195 58.4361 81.6493 58.1375C81.953 57.4722 82.1338 56.7572 82.1829 56.0271C82.2277 55.1878 82.1222 54.3473 81.8717 53.5452Z" fill="#080606"/>
<path d="M98.5318 54.3577C98.4744 54.1889 98.3203 53.8652 98.3203 53.8652C98.3203 53.8652 98.0426 53.3442 97.8254 53.1344C97.6083 52.9246 97.3324 52.7863 97.0348 52.7378C96.8421 52.7082 96.6454 52.7171 96.4561 52.7639C96.2668 52.8107 96.0885 52.8945 95.9316 53.0104C95.7746 53.1264 95.642 53.2722 95.5414 53.4397C95.4407 53.6071 95.374 53.7928 95.3451 53.9861C95.0702 55.4946 95.1157 57.0442 95.4785 58.5338C95.5355 58.8568 95.6848 59.1563 95.9083 59.3958C96.1241 59.6351 96.4189 59.7882 96.7383 59.8268C97.0599 59.8735 97.3878 59.813 97.6717 59.6545C97.9555 59.4961 98.1796 59.2486 98.3095 58.95C98.6132 58.2847 98.794 57.5697 98.8431 56.8396C98.8878 56.0003 98.7824 55.1598 98.5318 54.3577Z" fill="#080606"/>
<path d="M89.0009 63.3796C89.0221 63.8448 89.0031 64.284 88.9207 64.7539C88.8382 65.2237 88.7339 65.8641 87.9787 65.8985C87.2236 65.9329 86.6487 65.6908 86.5805 65.1713C86.1033 63.5366 85.9999 61.8219 86.277 60.1427C86.4722 59.5406 86.8482 59.0009 87.7134 59.1027C88.5786 59.2045 88.529 59.7434 88.6725 60.2877C88.9687 61.278 89.0033 62.3317 89.0009 63.3796Z" fill="#080606"/>
<path d="M116.027 78.2798C120.541 85.6648 122.73 94.2465 122.309 102.906C122.333 103.484 122.135 104.05 121.757 104.487C121.379 104.924 120.849 105.2 120.275 105.259C119.698 105.294 119.13 105.101 118.695 104.72C118.259 104.339 117.99 103.802 117.947 103.224C118.399 95.3256 116.46 87.4784 112.384 80.713C110.918 78.3134 114.549 75.863 116.027 78.2798Z" fill="#1F0E0B"/>
<path d="M98.2484 2.37899C106.193 1.18964 116.237 3.63913 121.274 10.7611C124.636 15.5327 125.7 21.2954 126.863 27.0156C128.026 32.7358 127.655 40.2255 127.442 43.3318C127.261 47.4943 126.351 53.3594 125.341 57.4017C124.677 60.0554 124.361 60.8095 123.458 62.328C122.635 63.5882 120.209 66.3633 117.925 64.3811C117.377 63.7983 116.507 62.8661 116.507 58.3493C116.606 52.3884 116.819 53.4079 116.805 48.7496C116.86 47.8433 116.764 46.9342 116.521 46.0594C116.387 45.6258 116.145 45.2333 115.817 44.9187C115.49 44.6042 115.088 44.3779 114.648 44.2612C113.026 43.9609 111.591 45.7393 110.103 46.2576C109.51 46.4638 108.83 46.3525 108.334 46.1497C107.977 46.0036 107.613 45.7266 107.344 45.3264C106.421 43.9806 106.052 42.4551 105.867 40.8347C105.272 36.1102 104.983 31.3524 105.001 26.5908C105.041 26.0771 104.974 25.5607 104.806 25.0736C104.638 24.5865 104.371 24.1391 104.022 23.759C103.621 23.4861 103.152 23.3285 102.666 23.3036C102.181 23.2786 101.698 23.3872 101.27 23.6174C100.423 24.0838 99.6449 24.6651 98.9577 25.3448C97.3229 26.8967 95.2645 27.9313 93.0418 28.3182C91.9327 28.4997 90.7951 28.3768 89.7506 27.9628C88.706 27.5488 87.7939 26.8592 87.1118 25.9678C86.3616 24.6772 85.9653 23.2122 85.9626 21.7201C85.8017 19.3098 85.8968 16.8893 86.2464 14.4991C86.4619 12.5898 87.287 10.8314 88.178 9.12824C89.3656 7.38559 90.6341 5.80409 92.4082 4.66098C94.1823 3.51787 96.1682 2.74188 98.2484 2.37899Z" fill="#8C5724" stroke="black" stroke-width="3"/>
<path d="M109.987 11.1682C111.529 20.6707 111.673 30.3475 110.415 39.8925C110.183 41.6884 112.976 42.2189 113.206 40.4089C114.512 30.6148 114.38 20.6835 112.814 10.9285C112.519 9.13459 109.691 9.3602 109.987 11.1682Z" fill="#84502A"/>
<path d="M90.2736 10.2094C91.1005 14.5516 91.3911 18.9786 91.1389 23.3914C91.0254 25.2038 93.8628 25.2038 93.9763 23.3914C94.2231 18.7207 93.8992 14.0374 93.0116 9.44482C92.9091 9.08491 92.668 8.78011 92.3411 8.59705C92.0141 8.41399 91.6278 8.36754 91.2666 8.46785C91.0868 8.51701 90.9184 8.60107 90.7711 8.71523C90.6238 8.82939 90.5006 8.9714 90.4083 9.13315C90.3161 9.2949 90.2567 9.47322 90.2336 9.65789C90.2105 9.84257 90.2241 10.03 90.2736 10.2094Z" fill="#84502A"/>
<path d="M100.586 5.5226C101.401 10.0286 101.686 14.614 101.437 19.186C101.352 20.9984 104.189 20.9984 104.274 19.186C104.519 14.3609 104.2 9.52374 103.324 4.77217C103.275 4.59274 103.19 4.42479 103.076 4.27788C102.961 4.13096 102.819 4.00796 102.657 3.91593C102.495 3.82389 102.316 3.76461 102.131 3.74147C101.946 3.71833 101.759 3.73178 101.579 3.78105C101.399 3.83032 101.231 3.91445 101.084 4.02864C100.936 4.14283 100.813 4.28485 100.721 4.44657C100.629 4.60828 100.569 4.78655 100.546 4.97118C100.523 5.1558 100.536 5.34317 100.586 5.5226Z" fill="#84502A"/>
<path d="M58.7891 111.5C64.9557 108.833 79.2891 99.4 87.2891 83" stroke="#F8F3E1" stroke-width="3" stroke-linecap="round"/>
</g>
<defs>
<clipPath id="clip0_1217_30844">
<rect width="146" height="150" fill="white"/>
</clipPath>
</defs>
</svg>
