<svg width="140" height="150" viewBox="0 0 140 150" fill="none" xmlns="http://www.w3.org/2000/svg">
<g clip-path="url(#clip0_347_14091)">
<path d="M121.983 107.764C120.501 78.0401 119.582 48.3166 119.019 18.5931C119.011 18.0527 118.796 17.536 118.417 17.151C118.039 16.7661 117.527 16.5426 116.988 16.5273C85.7134 15.6059 54.4831 14.9223 23.2084 14.0009C22.932 13.9929 22.6567 14.0397 22.3983 14.1385C22.1399 14.2373 21.9035 14.3862 21.7025 14.5767C21.5016 14.7671 21.34 14.9955 21.2271 15.2486C21.1141 15.5017 21.0521 15.7746 21.0444 16.0517C20.0562 49.6096 19.4881 83.1774 19.3398 116.755C19.3437 117.035 19.4028 117.312 19.5139 117.57C19.6249 117.827 19.7856 118.06 19.9868 118.254C20.1879 118.449 20.4256 118.602 20.6859 118.704C20.9463 118.807 21.2243 118.856 21.5039 118.851C43.1442 117.84 64.9179 114.972 86.4841 112.98C97.6304 111.94 108.851 110.558 120.041 109.904C120.576 109.862 121.075 109.618 121.436 109.22C121.796 108.822 121.992 108.301 121.983 107.764Z" fill="#885D96"/>
<path d="M121.983 107.764C120.501 78.0401 119.582 48.3166 119.019 18.5931C119.011 18.0527 118.796 17.536 118.417 17.151C118.039 16.7661 117.527 16.5426 116.988 16.5273C85.7134 15.6059 54.4831 14.9223 23.2084 14.0009C22.932 13.9929 22.6567 14.0397 22.3983 14.1385C22.1399 14.2373 21.9035 14.3862 21.7025 14.5767C21.5016 14.7671 21.34 14.9955 21.2271 15.2486C21.1141 15.5017 21.0521 15.7746 21.0444 16.0517C20.0562 49.6096 19.4881 83.1774 19.3398 116.755C19.3437 117.035 19.4028 117.312 19.5139 117.57C19.6249 117.827 19.7856 118.06 19.9868 118.254C20.1879 118.449 20.4256 118.602 20.6859 118.704C20.9463 118.807 21.2243 118.856 21.5039 118.851C43.1442 117.84 64.9179 114.972 86.4841 112.98C97.6304 111.94 108.851 110.558 120.041 109.904C120.576 109.862 121.075 109.618 121.436 109.22C121.796 108.822 121.992 108.301 121.983 107.764Z" stroke="#795289" stroke-width="3" stroke-miterlimit="10"/>
<path d="M24.375 17.6602C26.2278 18.7599 31.9982 22.6953 33.1098 23.4384C49.8144 24.0625 61.9389 23.9288 78.6582 23.9585H108.125C110.481 22.8736 113.486 21.0694 115.457 20.0291" stroke="#A284B0" stroke-width="2.5" stroke-miterlimit="10" stroke-linecap="round"/>
<path d="M23.8789 114.229C26.5024 112.55 29.3631 110.588 32.0014 108.849C32.0014 108.849 81.7 104.703 110.959 102.904C112.871 103.737 115.732 104.955 117.436 105.877" stroke="#A284B0" stroke-width="2.5" stroke-miterlimit="10" stroke-linecap="round"/>
<path d="M32 108.85L33.1117 23.4395" stroke="#A284B0" stroke-width="2.5" stroke-miterlimit="10" stroke-linecap="round"/>
<path d="M108.125 24.0176L110.956 102.904" stroke="#A284B0" stroke-width="2.5" stroke-miterlimit="10" stroke-linecap="round"/>
<path d="M18.315 70.816C12.0957 74.4432 8.81771 81.3627 5.86434 87.6181C5.65131 88.1622 5.23936 88.6043 4.71216 88.8546C4.18495 89.1049 3.582 89.1446 3.02571 88.9658C2.47276 88.7635 2.02103 88.3515 1.76817 87.8189C1.51531 87.2863 1.48164 86.6759 1.67444 86.1196C5.19476 78.6737 9.0358 71.1085 16.4028 66.7883C16.9355 66.5354 17.5471 66.5051 18.103 66.7039C18.659 66.9027 19.1138 67.3145 19.3674 67.8486C19.6209 68.3827 19.6525 68.9954 19.4551 69.5519C19.2578 70.1083 18.8477 70.5631 18.315 70.816Z" fill="#2F0908"/>
<path d="M121.681 70.816C127.9 74.4432 131.178 81.3627 134.132 87.6181C134.345 88.1622 134.757 88.6043 135.284 88.8546C135.811 89.1049 136.414 89.1446 136.97 88.9658C137.523 88.7635 137.975 88.3515 138.228 87.8189C138.481 87.2863 138.514 86.6759 138.322 86.1196C134.801 78.6737 130.96 71.1085 123.593 66.7883C123.061 66.5354 122.449 66.5051 121.893 66.7039C121.337 66.9027 120.882 67.3145 120.629 67.8486C120.375 68.3827 120.344 68.9954 120.541 69.5519C120.738 70.1083 121.148 70.5631 121.681 70.816Z" fill="#2F0908"/>
<path d="M69.9295 123.242C67.9955 122.215 65.4216 122.8 63.4592 123.428C61.4238 124.136 59.4693 125.06 57.6288 126.183C54.2444 128.153 50.7603 130.809 46.7359 131.223C46.096 131.294 44.8588 131.437 44.3185 130.937C43.7781 130.438 44.0341 128.939 44.0909 128.225C44.3502 125.555 45.0974 122.956 46.2951 120.559C47.5039 118.089 43.8208 115.919 42.612 118.403C41.4538 120.685 40.63 123.123 40.1661 125.641C39.7679 127.939 39.2418 130.852 40.5074 132.964C42.8964 136.947 48.741 135.548 52.1682 134.078C55.9793 132.465 59.2784 129.795 63.0326 128.153C63.6653 127.876 64.3162 127.642 64.9808 127.454C64.2119 129.497 64.0683 131.724 64.5684 133.849C64.6724 134.206 64.8662 134.529 65.1312 134.788C65.3963 135.047 65.7234 135.233 66.0811 135.328C66.4387 135.423 66.8146 135.423 67.1725 135.329C67.5303 135.235 68.1889 135.047 68.4545 134.788C70.3531 133.349 71.4284 131.357 72.1479 129.081C72.4687 127.999 72.4253 126.84 72.0243 125.785C71.6233 124.729 70.8871 123.836 69.9295 123.242Z" fill="#2F0908"/>
<path d="M95.8782 114.073C95.9515 116.749 95.3379 119.398 94.0966 121.767C92.8552 124.135 91.0051 125.892 88.7672 127.347C88.2034 127.713 87.5189 128.026 87.0035 128.026C86.4882 128.026 85.8371 127.913 85.3358 127.597C83.7006 126.627 82.2012 125.748 80.0475 125.699C76.5179 125.619 75.4143 129.515 75.4431 132.416C75.4633 132.796 75.5812 133.164 75.7853 133.485C75.9895 133.806 76.273 134.069 76.6081 134.247C76.9433 134.425 77.3187 134.513 77.6979 134.503C78.077 134.492 78.3274 134.391 78.7715 134.186C79.2155 133.981 79.9577 133.417 80.6759 132.014C81.3941 130.611 82.6602 131.389 82.9125 131.488L84.0582 132.014C84.8909 132.463 85.8166 132.709 86.7613 132.734C87.7059 132.759 88.6431 132.562 89.498 132.158C90.8674 131.491 92.1407 130.641 93.2837 129.632C95.5293 127.696 97.3162 125.281 98.5142 122.563C99.7123 119.845 100.291 116.894 100.209 113.923C100.189 113.346 99.9417 112.801 99.5213 112.407C99.101 112.014 98.5422 111.804 97.9679 111.824C97.3936 111.844 96.8508 112.092 96.4589 112.514C96.067 112.936 95.8581 113.497 95.8782 114.073Z" fill="#2F0908"/>
<path d="M63.3686 78.4717C65.4764 79.7279 67.929 80.0126 70.3906 80.0195C71.5236 80.0227 72.6271 79.7026 73.6623 79.2401C74.6974 78.7777 75.6234 78.1007 76.3795 77.2535C76.5234 77.1101 76.6377 76.9396 76.7157 76.7516C76.7937 76.5637 76.8339 76.3621 76.8339 76.1586C76.8339 75.955 76.7937 75.7534 76.7157 75.5655C76.6377 75.3776 76.5234 75.207 76.3795 75.0637C76.0917 74.7765 75.7023 74.6152 75.2965 74.6152C74.8907 74.6152 74.5014 74.7765 74.2136 75.0637C73.7251 75.6487 73.11 76.1139 72.4152 76.4239C71.7203 76.734 70.9992 76.8232 70.2043 76.8525C69.7127 76.8525 69.2212 76.8525 68.745 76.8525C68.3235 76.8506 67.9026 76.8197 67.4854 76.76C66.5651 76.647 65.6854 76.3138 64.9201 75.7885C64.7462 75.6616 64.5478 75.5727 64.3376 75.5276C64.1274 75.4825 63.9101 75.4822 63.6998 75.5267C63.4895 75.5712 63.2908 75.6595 63.1166 75.7859C62.9425 75.9123 62.7966 76.074 62.6886 76.2606C62.5806 76.4471 62.5127 76.6543 62.4895 76.8688C62.4662 77.0833 62.4881 77.3003 62.5536 77.5058C62.6192 77.7113 62.7269 77.9008 62.87 78.0618C63.013 78.2229 63.1406 78.3242 63.2617 78.4023L63.3686 78.4717Z" fill="#040000"/>
<path d="M59.6334 57.4397C59.5759 57.2709 59.4219 56.9473 59.4219 56.9473C59.4219 56.9473 59.1442 56.4262 58.927 56.2164C58.7098 56.0066 58.434 55.8683 58.1363 55.8198C57.9436 55.7903 57.747 55.7991 57.5577 55.8459C57.3683 55.8927 57.1901 55.9765 57.0331 56.0925C56.8762 56.2084 56.7436 56.3543 56.6429 56.5217C56.5423 56.6891 56.4756 56.8749 56.4466 57.0682C56.1718 58.5766 56.2173 60.1262 56.58 61.6159C56.6371 61.9389 56.7864 62.2383 57.0099 62.4778C57.2256 62.7172 57.5204 62.8703 57.8399 62.9088C58.1614 62.9555 58.4894 62.895 58.7732 62.7366C59.0571 62.5782 59.2812 62.3306 59.4111 62.032C59.7148 61.3667 59.8955 60.6517 59.9446 59.9217C59.9894 59.0824 59.884 58.2418 59.6334 57.4397Z" fill="#080606"/>
<path d="M80.6295 57.4241C80.572 57.2553 80.418 56.9316 80.418 56.9316C80.418 56.9316 80.1402 56.4106 79.9231 56.2008C79.7059 55.991 79.4301 55.8527 79.1324 55.8042C78.9397 55.7746 78.7431 55.7835 78.5537 55.8303C78.3644 55.8771 78.1862 55.9609 78.0292 56.0768C77.8723 56.1928 77.7397 56.3386 77.639 56.5061C77.5384 56.6735 77.4717 56.8592 77.4427 57.0526C77.1679 58.561 77.2134 60.1106 77.5761 61.6002C77.6332 61.9232 77.7825 62.2227 78.006 62.4622C78.2217 62.7015 78.5165 62.8546 78.836 62.8932C79.1575 62.9399 79.4854 62.8794 79.7693 62.721C80.0532 62.5625 80.2773 62.315 80.4071 62.0164C80.7108 61.3511 80.8916 60.6361 80.9407 59.906C80.9855 59.0667 80.8801 58.2262 80.6295 57.4241Z" fill="#080606"/>
<path d="M69.9461 67.8717C69.9461 68.3622 69.9071 68.8234 69.8033 69.3138C69.6996 69.8043 69.5662 70.4731 68.8103 70.4731C68.0543 70.4731 67.4911 70.1907 67.4466 69.6408C67.0444 67.8978 67.0191 66.0887 67.3725 64.3351C67.5949 63.711 67.995 63.1611 68.8547 63.3097C69.7144 63.4583 69.6403 64.023 69.7589 64.6026C70.0097 65.6588 69.9962 66.7691 69.9461 67.8717Z" fill="#080606"/>
<path d="M59.5038 66.1138C58.8722 66.0421 58.6576 66.5955 58.6292 66.8811C58.5756 67.2578 58.0214 69.0264 57.6299 69.9599C57.2384 70.8934 57.8919 71.3074 58.5318 71.1117C59.1717 70.916 59.9622 67.5357 59.9923 67.4379C60.0224 67.34 60.2934 66.2034 59.5038 66.1138Z" fill="#CF6F53"/>
<path d="M56.2382 65.8937C55.6065 65.8151 55.3919 66.422 55.3636 66.7353C55.31 67.1485 54.7558 69.0881 54.3643 70.112C53.9728 71.1358 54.6262 71.59 55.2661 71.3753C55.9061 71.1606 56.6965 67.4533 56.7266 67.3459C56.7568 67.2386 57.0278 65.992 56.2382 65.8937Z" fill="#CF6F53"/>
<path d="M80.1888 66.1802C79.7214 66.1399 79.5732 66.6103 79.5576 66.8505C79.4347 67.5209 79.2026 68.0427 78.8593 68.4987C78.5159 68.9546 78.7242 69.6582 79.6305 69.5513C80.5367 69.4443 80.7957 68.0145 80.9195 67.294C81.0434 66.5735 80.7732 66.2305 80.1888 66.1802Z" fill="#CF6F53"/>
<path d="M76.4514 66.4895L75.5007 68.9602C75.4506 69.1537 75.4791 69.3592 75.5799 69.5315C75.6807 69.7039 75.8456 69.829 76.0383 69.8792C76.2309 69.9295 76.4356 69.9009 76.6072 69.7997C76.7789 69.6985 76.9034 69.533 76.9535 69.3395L77.9124 66.6992C77.9618 66.5116 77.9363 66.3121 77.8414 66.1431C77.7464 65.9742 77.5894 65.8492 77.4039 65.7947C77.2191 65.7494 77.0241 65.7771 76.8591 65.8721C76.6942 65.9672 76.5719 66.1223 76.5177 66.3053L76.4514 66.4895Z" fill="#CF6F53"/>
<path d="M45.6639 35.061C45.1576 34.3387 44.5028 33.7339 43.7437 33.2876C42.9729 32.7637 42.1016 32.4978 41.1289 32.4983C40.8978 32.4987 40.7319 32.4908 40.534 32.5397C40.3361 32.5887 40.165 32.7131 40.057 32.8866C39.6494 33.8418 39.5267 34.8952 39.704 35.9191C39.8812 36.9429 40.3507 37.893 41.0555 38.6541C42.1769 39.9495 44.6808 41.7383 46.1093 39.8415C46.5336 39.0954 46.7184 38.236 46.6387 37.3806C46.559 36.5252 46.2186 35.7152 45.6639 35.061Z" fill="#462553"/>
<path d="M47.446 66.675C47.1778 66.1289 46.8827 65.7466 46.5248 65.317C46.1669 64.8874 45.4358 64.3641 45.2591 64.2296C45.2591 64.2296 45.2216 64.1904 45.0645 64.0874C45.0103 64.0519 44.9176 63.994 44.7631 63.8924C44.6497 63.8179 44.6439 63.8064 44.4626 63.7192C43.6546 63.364 42.8331 63.2131 41.9043 63.1256C41.0876 63.0486 40.2737 63.2943 39.6358 63.8105C39.3351 64.0961 39.1147 64.4561 38.9965 64.8544C38.8782 65.2528 38.8664 65.6755 38.9621 66.0802C39.1669 66.8895 39.6794 67.5867 40.3896 68.0222C41.0924 68.4469 41.8685 68.7348 42.6772 68.8708C43.5726 69.0759 44.4819 69.2137 45.3975 69.283C46.2987 69.353 47.3768 69.2381 47.7031 68.2246C47.7747 67.9711 47.776 67.7026 47.7069 67.4481C47.6377 67.1936 47.5942 66.9769 47.446 66.675Z" fill="#462553"/>
<path d="M49.1975 92.905C48.8872 92.7007 48.5241 92.5918 48.153 92.5918C47.7818 92.5918 47.4188 92.7007 47.1084 92.905C47.0041 92.9841 46.9354 93.0356 46.793 93.1387C46.3125 93.4863 45.9583 93.8602 45.5977 94.3457C45.3945 94.6191 45.1615 95.0042 45.0703 95.2285C44.9401 95.5486 44.7855 95.8912 44.6875 96.1777C44.6367 96.3262 44.6077 96.4863 44.5751 96.6465C44.5424 96.8066 44.3814 97.8835 44.4817 98.5645C44.5258 98.7428 44.6076 98.9094 44.7216 99.0531C44.8356 99.1968 44.979 99.3142 45.1422 99.3973C45.3658 99.4942 45.6092 99.5364 45.8522 99.5203C46.0953 99.5042 46.331 99.4303 46.54 99.3047C47.662 98.7591 48.5858 97.8747 49.1822 96.7757C49.7659 95.7424 50.4571 93.7532 49.1975 92.905Z" fill="#462553"/>
<path d="M98.1307 63.0595C97.9748 62.7222 97.7238 62.4383 97.4084 62.2425C97.0931 62.0468 96.7272 61.9478 96.3558 61.9577C96.2254 61.9699 96.1399 61.9774 95.9645 61.9898C95.373 62.0318 94.8748 62.1627 94.3124 62.3849C93.9956 62.5101 93.5945 62.7144 93.3987 62.8568C93.1193 63.0601 92.8073 63.2696 92.5728 63.4614C92.4514 63.5607 92.3423 63.6815 92.2301 63.8003C92.1179 63.9191 91.4132 64.7491 91.1391 65.3806C91.0826 65.5553 91.0642 65.7401 91.0853 65.9223C91.1063 66.1044 91.1663 66.2798 91.2611 66.4365C91.3999 66.6368 91.5845 66.801 91.7995 66.9155C92.0144 67.03 92.2537 67.0916 92.4975 67.0951C93.7385 67.2233 94.9898 66.9592 96.0762 66.34C97.117 65.77 98.7535 64.4445 98.1307 63.0595Z" fill="#462553"/>
<path d="M97.0155 32.9021C96.8744 32.5938 96.6279 32.3465 96.3207 32.2051C96.0135 32.0636 95.4883 32.002 95.3086 32.0299C95.3086 32.0299 95.1992 32.0388 95.0625 32.0651C94.9258 32.0913 94.8672 32.1053 94.7383 32.1326C94.5176 32.1793 94.4074 32.2154 94.3581 32.239C93.1002 32.839 92.0891 33.8593 91.4978 35.1252C90.9066 36.3911 90.7719 37.8239 91.1168 39.1785C91.1521 39.3075 91.2202 39.4252 91.3145 39.5198C91.4087 39.6145 91.5259 39.6828 91.6545 39.7182C92.8253 39.951 94.0405 39.7454 95.0706 39.1403C96.1008 38.5351 96.8746 37.5722 97.2459 36.4335C97.6251 35.2705 97.5426 34.0055 97.0155 32.9021Z" fill="#462553"/>
<path d="M98.3059 93.4451C98.1375 92.779 97.8261 92.1579 97.3936 91.6251C96.9611 91.0924 96.3048 90.3789 95.9922 90.1816C95.8808 90.1113 94.7836 89.4032 94.3427 89.2814C93.8981 89.1586 93.4242 89.2019 93.0089 89.4032C92.5936 89.6046 92.2652 89.9503 92.0846 90.3763C91.9581 90.8974 92.0293 91.4471 92.2843 91.9184C92.4727 92.3504 92.683 92.7725 92.9142 93.183C93.4169 94.0155 94.0206 94.7821 94.7114 95.4653C95.4334 96.1746 96.524 96.9149 97.5071 96.2209C97.8856 95.8796 98.1612 95.4385 98.3024 94.9478C98.4436 94.4571 98.4448 93.9365 98.3059 93.4451Z" fill="#462553"/>
</g>
<defs>
<clipPath id="clip0_347_14091">
<rect width="140" height="150" fill="white"/>
</clipPath>
</defs>
</svg>
