<svg width="121" height="150" viewBox="0 0 121 150" fill="none" xmlns="http://www.w3.org/2000/svg">
<g clip-path="url(#clip0_347_14430)">
<path d="M32.1894 13.6726C30.3296 17.4 28.6689 21.2226 27.2143 25.1245C19.6969 43.3357 16.4983 63.0272 17.8671 82.669C18.5907 93.3704 21.2291 104.117 26.9128 113.287C29.8341 118.347 33.9802 122.598 38.9737 125.655C56.1152 135.561 80.5235 126.795 92.313 112.612C111.445 89.6182 103.997 58.5796 91.2879 34.5651C87.0062 26.5053 82.0462 18.5655 75.2167 12.3818C67.6786 5.56774 57.8038 3.37643 47.7631 3.87173C44.532 3.8284 41.3476 4.64169 38.5365 6.22814C35.842 8.15652 33.6628 10.7124 32.1894 13.6726Z" fill="#7C241E" stroke="#5B2519" stroke-width="3" stroke-miterlimit="10"/>
<path d="M43.8507 113.994C43.9562 114.864 43.7603 115.404 43.1874 115.705C42.6145 116.005 42.0416 115.554 41.6044 115.224C40.2779 113.995 39.2959 112.443 38.755 110.722C36.1086 104.977 34.1893 98.9268 33.0411 92.7108C32.7471 90.1024 32.6271 87.5373 32.7578 84.8043C32.903 83.74 33.5236 82.7898 34.5487 82.8048C36.0563 82.8048 35.5588 84.1707 35.5287 85.0262C35.393 91.3149 37.2021 97.1685 39.4334 103.037C40.7299 106.399 42.1019 109.746 43.504 113.063C43.6698 113.378 43.7904 113.858 43.8507 113.994Z" fill="#D57544"/>
<path d="M74.5266 113.994C74.421 114.864 74.617 115.404 75.1899 115.705C75.7628 116.005 76.3357 115.554 76.7729 115.224C78.0994 113.995 79.0814 112.443 79.6223 110.722C82.2686 104.977 84.1879 98.9268 85.3361 92.7108C85.6301 90.1024 85.6301 87.4695 85.3361 84.8611C85.3361 83.9605 84.8537 82.7898 83.8285 82.8048C82.3209 82.8048 82.8184 84.1707 82.8486 85.0262C82.9843 91.3149 81.1751 97.1685 78.9439 103.037C77.6473 106.399 76.2754 109.746 74.8733 113.063C74.7075 113.378 74.5869 113.858 74.5266 113.994Z" fill="#D57544"/>
<path d="M57.1717 95.7538C57.2748 92.3934 57.3984 90.2929 57.472 87.8926C57.4918 87.2475 57.7298 86.3989 58.6339 86.4267C59.5381 86.4544 59.7886 87.1378 59.8236 87.9648C60.2264 95.1548 60.6193 102.34 61.0024 109.519C61.0691 110.76 61.0438 112.105 60.6049 113.269C60.4248 113.729 60.2994 114.242 59.5912 114.221C59.3312 114.215 59.0793 114.13 58.8704 113.975C58.6616 113.821 58.5063 113.605 58.4261 113.359C58.0834 112.632 57.8871 111.846 57.8485 111.044C57.5847 105.568 57.0309 100.281 57.1717 95.7538Z" fill="#D57544"/>
<path d="M56.4162 63.5331C54.9085 63.5331 53.6421 63.5331 52.4059 63.5331C51.6822 63.5331 51.1094 63.278 51.1094 62.4074C51.1094 61.3568 51.6289 61.4417 52.2401 61.3568C55.6867 60.8781 61.7773 60.8782 62.2266 60.9058C62.5043 60.9228 62.5467 60.956 62.6876 61.0014C62.8286 61.0467 62.9569 61.1243 63.0624 61.2278C63.1679 61.3313 63.2475 61.458 63.2951 61.5977C63.3426 61.7374 63.3566 61.8862 63.3361 62.0322C63.3361 62.7827 62.8386 62.9628 62.2054 63.0828C60.3025 63.4758 58.52 63.5331 56.4162 63.5331Z" fill="#080606"/>
<path d="M102.955 54.667C112.282 48.1521 111.981 33.9197 106.805 24.8379C106.512 24.3481 106.039 23.9912 105.489 23.8428C104.938 23.6944 104.352 23.7662 103.854 24.0431C103.357 24.3199 102.988 24.78 102.825 25.3257C102.663 25.8713 102.719 26.4597 102.983 26.9659C105.094 30.6646 106.117 34.8814 105.935 39.1288C105.771 43.4044 104.343 48.4136 100.685 50.9767C100.194 51.2632 99.8295 51.7246 99.6643 52.2689C99.4991 52.8131 99.5452 53.4005 99.7935 53.9138C100.086 54.4156 100.561 54.7849 101.12 54.9437C101.678 55.1024 102.275 55.0382 102.786 54.7647L102.955 54.667Z" fill="#2F0908"/>
<path d="M14.8103 62.8936C5.48338 56.3786 5.78481 42.1463 10.9608 33.0645C11.2541 32.5747 11.7263 32.2177 12.2771 32.0693C12.8279 31.9209 13.4141 31.9928 13.9113 32.2696C14.4085 32.5465 14.7775 33.0065 14.9402 33.5522C15.1028 34.0979 15.0462 34.6863 14.7824 35.1925C12.6716 38.8912 11.6484 43.1079 11.831 47.3553C11.9949 51.631 13.4225 56.6401 17.0808 59.2033C17.5718 59.4898 17.9361 59.9511 18.1013 60.4954C18.2665 61.0397 18.2204 61.627 17.9721 62.1403C17.6798 62.6422 17.2042 63.0115 16.6459 63.1702C16.0877 63.329 15.4903 63.2648 14.9801 62.9912L14.8103 62.8936Z" fill="#2F0908"/>
<path d="M46.1373 47.6386C46.0798 47.4911 45.9258 47.2085 45.9258 47.2085C45.9258 47.2085 45.6481 46.7535 45.4309 46.5703C45.2137 46.3871 44.9379 46.2662 44.6403 46.2239C44.4475 46.1981 44.2509 46.2058 44.0616 46.2467C43.8723 46.2876 43.694 46.3607 43.5371 46.462C43.3801 46.5633 43.2475 46.6906 43.1468 46.8369C43.0462 46.9831 42.9795 47.1453 42.9505 47.3141C42.6757 48.6314 42.7212 49.9847 43.0839 51.2856C43.141 51.5676 43.2903 51.8291 43.5138 52.0383C43.7296 52.2473 44.0243 52.381 44.3438 52.4147C44.6653 52.4555 44.9933 52.4026 45.2771 52.2643C45.561 52.1259 45.7851 51.9097 45.915 51.649C46.2187 51.0679 46.3994 50.4435 46.4485 49.806C46.4933 49.0731 46.3879 48.339 46.1373 47.6386Z" fill="#080606"/>
<path d="M66.5513 46.0892C66.4939 45.9476 66.3398 45.6763 66.3398 45.6763C66.3398 45.6763 66.0621 45.2395 65.845 45.0636C65.6278 44.8877 65.352 44.7718 65.0543 44.7311C64.8616 44.7063 64.6649 44.7138 64.4756 44.753C64.2863 44.7922 64.1081 44.8625 63.9511 44.9597C63.7942 45.0569 63.6615 45.1792 63.5609 45.3196C63.4603 45.4599 63.3935 45.6156 63.3646 45.7777C63.0898 47.0423 63.1352 48.3414 63.498 49.5903C63.555 49.8611 63.7044 50.1121 63.9278 50.3129C64.1436 50.5136 64.4384 50.6419 64.7579 50.6743C65.0794 50.7134 65.4073 50.6627 65.6912 50.5299C65.9751 50.3971 66.1992 50.1895 66.329 49.9392C66.6327 49.3814 66.8135 48.782 66.8626 48.1699C66.9074 47.4663 66.8019 46.7616 66.5513 46.0892Z" fill="#080606"/>
<path d="M57.0477 54.8581C57.0477 55.3485 57.0087 55.8097 56.9049 56.3002C56.8012 56.7906 56.6678 57.4594 55.9118 57.4594C55.1559 57.4594 54.5927 57.177 54.5482 56.6271C54.146 54.8842 54.1207 53.075 54.4741 51.3215C54.6964 50.6973 55.0966 50.1474 55.9563 50.296C56.816 50.4446 56.7419 51.0094 56.8604 51.589C57.1113 52.6451 57.0978 53.7555 57.0477 54.8581Z" fill="#080606"/>
<path d="M37.168 127.676C35.5292 131.439 34.4473 135.294 33.5524 139.301C33.1225 141.322 32.5801 143.334 32.3281 145.385C32.3281 145.474 32.3281 145.934 32.3281 145.86C32.3281 146.038 31.7501 146.395 32.9062 145.637C33.7955 145.058 33.6177 145.206 32.9951 144.998C32.787 144.92 32.5741 144.856 32.3578 144.805C31.2132 144.528 30.0192 144.528 28.8746 144.805C28.4585 144.93 28.0875 145.173 27.8061 145.505C27.5247 145.837 27.345 146.243 27.2886 146.675C27.2322 147.107 27.3015 147.546 27.4883 147.939C27.675 148.333 27.9711 148.664 28.341 148.892C29.1433 149.388 30.0376 149.717 30.97 149.857C31.9024 149.998 32.8534 149.947 33.7659 149.709C37.1797 148.945 35.3815 144.731 32.5949 145.414C32.2516 145.496 31.8951 145.505 31.5482 145.441C31.2012 145.377 30.8712 145.241 30.5791 145.043L30.0455 149.115C30.8938 149.008 31.7552 149.136 32.5356 149.486C33.1502 149.659 33.6152 149.751 34.2219 149.553C34.8286 149.355 35.3468 149.103 35.9072 148.361C36.4893 147.386 36.88 145.132 36.88 145.132C36.88 145.132 37.3567 143.19 37.5543 142.199C38.3344 137.963 39.3608 133.802 41.0436 129.839C41.3224 129.326 41.3963 128.726 41.2505 128.16C41.1046 127.595 40.7498 127.106 40.258 126.792C39.7456 126.499 39.1387 126.418 38.5677 126.568C37.9967 126.718 37.5072 127.087 37.2046 127.595L37.168 127.676Z" fill="#2F0908"/>
<path d="M79.3881 125.621C81.6347 129.056 84.2641 132.076 87.1227 135.023C88.5766 136.491 89.9607 138.049 91.537 139.385C91.6115 139.434 91.9967 139.686 91.9346 139.646C92.0837 139.743 92.0647 140.422 92.0655 139.04C92.0689 137.978 92.0955 138.209 91.5799 138.615C91.4006 138.746 91.2299 138.889 91.0688 139.042C90.2087 139.846 89.5535 140.845 89.1575 141.954C89.0339 142.37 89.0336 142.814 89.1566 143.231C89.2796 143.649 89.5207 144.022 89.8508 144.306C90.1809 144.59 90.5859 144.773 91.0172 144.833C91.4484 144.892 91.8875 144.826 92.2814 144.642C93.1367 144.244 93.902 143.677 94.531 142.974C95.1601 142.272 95.6399 141.449 95.9415 140.556C97.176 137.283 92.6658 136.473 91.7083 139.178C91.5878 139.51 91.3997 139.812 91.1559 140.067C90.912 140.322 90.6177 140.524 90.2915 140.659L93.403 143.34C93.779 142.572 94.3591 141.922 95.08 141.462C95.5614 141.043 95.894 140.705 96.061 140.089C96.2281 139.473 96.3018 138.901 95.9894 138.026C95.4935 137.004 93.8234 135.441 93.8234 135.441C93.8234 135.441 92.4614 133.976 91.7415 133.267C88.6286 130.291 85.7131 127.15 83.3233 123.568C83.0474 123.054 82.5863 122.663 82.0334 122.474C81.4804 122.286 80.877 122.314 80.3452 122.553C79.8183 122.82 79.4179 123.284 79.23 123.843C79.0422 124.403 79.082 125.015 79.3407 125.546L79.3881 125.621Z" fill="#2F0908"/>
<path d="M45.3902 2.79301C30.1946 3.82067 24.3947 21.979 23.3941 30.9297C22.5353 37.9772 23.3941 42.7264 30.002 42.7264C36.6099 42.7264 35.9108 32.8253 37.1884 29.791C38.4659 26.7568 38.8652 30.9297 44.8538 30.9297C50.8424 30.9297 48.7664 20.4488 51.8804 22.1256C53.7968 23.0336 57.2438 23.217 59.2433 21.2175C61.2427 19.2181 64.3848 1.50842 45.3902 2.79301Z" fill="#510B10" stroke="#390104" stroke-width="4" stroke-linecap="round" stroke-linejoin="round"/>
</g>
<defs>
<clipPath id="clip0_347_14430">
<rect width="120" height="150" fill="white" transform="translate(0.707031)"/>
</clipPath>
</defs>
</svg>
