<svg width="150" height="150" viewBox="0 0 150 150" fill="none" xmlns="http://www.w3.org/2000/svg">
<path d="M127.712 105.764C126.229 76.0401 125.31 46.3166 124.747 16.5931C124.74 16.0527 124.524 15.536 124.146 15.151C123.768 14.7661 123.255 14.5426 122.717 14.5273C91.4419 13.6059 60.2116 12.9223 28.9369 12.0009C28.6605 11.9929 28.3852 12.0397 28.1268 12.1385C27.8685 12.2373 27.632 12.3862 27.4311 12.5767C27.2301 12.7671 27.0685 12.9955 26.9556 13.2486C26.8427 13.5017 26.7806 13.7746 26.7729 14.0517C25.7848 47.6096 25.2166 81.1774 25.0684 114.755C25.0722 115.035 25.1314 115.312 25.2424 115.57C25.3534 115.827 25.5141 116.06 25.7153 116.254C25.9165 116.449 26.1541 116.602 26.4144 116.704C26.6748 116.807 26.9528 116.856 27.2324 116.851C48.8727 115.84 70.6464 112.972 92.2126 110.98C103.359 109.94 114.579 108.558 125.77 107.904C126.305 107.862 126.803 107.618 127.164 107.22C127.525 106.822 127.721 106.301 127.712 105.764Z" fill="#E2DDD3"/>
<path d="M127.712 105.764C126.229 76.0401 125.31 46.3166 124.747 16.5931C124.74 16.0527 124.524 15.536 124.146 15.151C123.768 14.7661 123.255 14.5426 122.717 14.5273C91.4419 13.6059 60.2116 12.9223 28.9369 12.0009C28.6605 11.9929 28.3852 12.0397 28.1268 12.1385C27.8685 12.2373 27.632 12.3862 27.4311 12.5767C27.2301 12.7671 27.0685 12.9955 26.9556 13.2486C26.8427 13.5017 26.7806 13.7746 26.7729 14.0517C25.7848 47.6096 25.2166 81.1774 25.0684 114.755C25.0722 115.035 25.1314 115.312 25.2424 115.57C25.3534 115.827 25.5141 116.06 25.7153 116.254C25.9165 116.449 26.1541 116.602 26.4144 116.704C26.6748 116.807 26.9528 116.856 27.2324 116.851C48.8727 115.84 70.6464 112.972 92.2126 110.98C103.359 109.94 114.579 108.558 125.77 107.904C126.305 107.862 126.803 107.618 127.164 107.22C127.525 106.822 127.721 106.301 127.712 105.764Z" stroke="#CFCABD" stroke-width="3" stroke-miterlimit="10"/>
<path d="M30.1055 15.6599C31.9582 16.7597 37.7286 20.695 38.8403 21.4381C55.5448 22.0623 67.6693 21.9286 84.3887 21.9583H113.855C116.212 20.8734 119.216 19.0692 121.188 18.0289" stroke="#F9F7ED" stroke-width="2.5" stroke-miterlimit="10" stroke-linecap="round"/>
<path d="M29.6074 112.229C32.2309 110.55 35.0916 108.588 37.73 106.849C37.73 106.849 87.4286 102.703 116.687 100.904C118.6 101.737 121.46 102.955 123.165 103.877" stroke="#F9F7ED" stroke-width="2.5" stroke-miterlimit="10" stroke-linecap="round"/>
<path d="M37.7285 106.85L38.8402 21.4395" stroke="#F9F7ED" stroke-width="2.5" stroke-miterlimit="10" stroke-linecap="round"/>
<path d="M113.854 22.0176L116.685 100.904" stroke="#F9F7ED" stroke-width="2.5" stroke-miterlimit="10" stroke-linecap="round"/>
<path d="M61.9934 63.8848C58.1841 63.8848 58.1693 69.8295 61.9934 69.8295C65.8175 69.8295 65.8175 63.8848 61.9934 63.8848Z" fill="#D36055"/>
<path d="M88.73 63.4824C84.9207 63.4824 84.9207 69.4271 88.73 69.4271C92.5393 69.4271 92.5541 63.4824 88.73 63.4824Z" fill="#D36055"/>
<path d="M65.2135 57.4241C65.156 57.2553 65.002 56.9316 65.002 56.9316C65.002 56.9316 64.7242 56.4106 64.5071 56.2008C64.2899 55.991 64.0141 55.8527 63.7164 55.8042C63.5237 55.7746 63.327 55.7835 63.1377 55.8303C62.9484 55.8771 62.7702 55.9609 62.6132 56.0768C62.4563 56.1928 62.3237 56.3386 62.223 56.5061C62.1224 56.6735 62.0557 56.8592 62.0267 57.0526C61.7519 58.561 61.7973 60.1106 62.1601 61.6002C62.2171 61.9232 62.3665 62.2227 62.5899 62.4622C62.8057 62.7015 63.1005 62.8546 63.42 62.8932C63.7415 62.9399 64.0694 62.8794 64.3533 62.721C64.6372 62.5625 64.8613 62.315 64.9911 62.0164C65.2948 61.3511 65.4756 60.6361 65.5247 59.906C65.5695 59.0667 65.464 58.2262 65.2135 57.4241Z" fill="#080606"/>
<path d="M89.2447 56.6507C89.1873 56.4818 89.0332 56.1582 89.0332 56.1582C89.0332 56.1582 88.7555 55.6371 88.5383 55.4274C88.3211 55.2176 88.0453 55.0792 87.7477 55.0307C87.5549 55.0012 87.3583 55.0101 87.169 55.0569C86.9797 55.1036 86.8014 55.1874 86.6445 55.3034C86.4875 55.4194 86.3549 55.5652 86.2543 55.7326C86.1536 55.9001 86.0869 56.0858 86.0579 56.2791C85.7831 57.7876 85.8286 59.3372 86.1913 60.8268C86.2484 61.1498 86.3977 61.4492 86.6212 61.6888C86.837 61.9281 87.1318 62.0812 87.4512 62.1198C87.7728 62.1665 88.1007 62.1059 88.3846 61.9475C88.6684 61.7891 88.8925 61.5415 89.0224 61.2429C89.3261 60.5776 89.5069 59.8626 89.556 59.1326C89.6007 58.2933 89.4953 57.4527 89.2447 56.6507Z" fill="#080606"/>
<path d="M76.659 66.276C76.659 66.7665 76.62 67.2277 76.5162 67.7181C76.4125 68.2086 76.2791 68.8774 75.5232 68.8774C74.7672 68.8774 74.204 68.595 74.1595 68.0451C73.7573 66.3021 73.732 64.493 74.0854 62.7394C74.3077 62.1153 74.7079 61.5654 75.5676 61.714C76.4273 61.8626 76.3532 62.4273 76.4718 63.0069C76.7226 64.0631 76.7091 65.1734 76.659 66.276Z" fill="#080606"/>
<path d="M53.1816 116.486C51.5429 120.249 50.4609 124.105 49.566 128.111C49.1362 130.133 48.5938 132.144 48.3418 134.195C48.3418 134.284 48.3418 134.745 48.3418 134.671C48.3418 134.849 47.7637 135.206 48.9199 134.448C49.8092 133.868 49.6313 134.017 49.0088 133.809C48.8007 133.731 48.5878 133.666 48.3715 133.616C47.2269 133.338 46.0328 133.338 44.8882 133.616C44.4722 133.741 44.1011 133.984 43.8197 134.316C43.5384 134.648 43.3587 135.054 43.3023 135.486C43.2459 135.918 43.3152 136.357 43.5019 136.75C43.6887 137.143 43.9848 137.474 44.3547 137.703C45.157 138.199 46.0513 138.527 46.9837 138.668C47.916 138.808 48.8671 138.758 49.7796 138.52C53.1934 137.756 51.3952 133.541 48.6086 134.225C48.2653 134.306 47.9088 134.315 47.5618 134.251C47.2148 134.187 46.8849 134.052 46.5928 133.853L46.0592 137.925C46.9075 137.818 47.7689 137.947 48.5493 138.297C49.1638 138.469 49.6289 138.562 50.2356 138.364C50.8423 138.165 51.3605 137.913 51.9209 137.172C52.5029 136.196 52.8937 133.942 52.8937 133.942C52.8937 133.942 53.3704 132 53.568 131.009C54.3481 126.774 55.3745 122.613 57.0572 118.65C57.336 118.137 57.41 117.537 57.2641 116.971C57.1183 116.405 56.7635 115.916 56.2717 115.603C55.7593 115.309 55.1524 115.228 54.5814 115.379C54.0104 115.529 53.5209 115.897 53.2183 116.406L53.1816 116.486Z" fill="#2F0908"/>
<path d="M95.4018 114.432C97.6483 117.867 100.278 120.887 103.136 123.833C104.59 125.302 105.974 126.859 107.551 128.195C107.625 128.244 108.01 128.497 107.948 128.456C108.097 128.554 108.078 129.233 108.079 127.851C108.083 126.789 108.109 127.019 107.594 127.425C107.414 127.557 107.244 127.699 107.082 127.852C106.222 128.657 105.567 129.655 105.171 130.764C105.048 131.181 105.047 131.625 105.17 132.042C105.293 132.459 105.534 132.832 105.864 133.117C106.195 133.401 106.6 133.584 107.031 133.643C107.462 133.703 107.901 133.637 108.295 133.453C109.15 133.055 109.916 132.487 110.545 131.785C111.174 131.082 111.654 130.26 111.955 129.366C113.19 126.093 108.679 125.284 107.722 127.988C107.601 128.32 107.413 128.623 107.17 128.878C106.926 129.133 106.631 129.334 106.305 129.47L109.417 132.15C109.793 131.382 110.373 130.733 111.094 130.272C111.575 129.853 111.908 129.515 112.075 128.899C112.242 128.283 112.316 127.712 112.003 126.836C111.507 125.815 109.837 124.251 109.837 124.251C109.837 124.251 108.475 122.787 107.755 122.078C104.642 119.102 101.727 115.96 99.337 112.379C99.0611 111.864 98.6 111.473 98.047 111.285C97.4941 111.096 96.8907 111.125 96.3589 111.364C95.832 111.631 95.4315 112.094 95.2437 112.654C95.0558 113.213 95.0956 113.825 95.3544 114.357L95.4018 114.432Z" fill="#2F0908"/>
<path d="M22.8435 69.8588C15.6696 69.2495 9.74076 64.4045 4.38997 60.0203C3.96417 59.6201 3.40243 59.3975 2.81882 59.3975C2.23521 59.3975 1.67348 59.6201 1.24768 60.0203C0.834908 60.4402 0.603516 61.0061 0.603516 61.5957C0.603516 62.1852 0.834908 62.7511 1.24768 63.171C7.62119 68.3875 14.3356 73.5742 22.8435 74.3173C23.4332 74.3173 23.9987 74.0825 24.4156 73.6644C24.8326 73.2463 25.0668 72.6793 25.0668 72.088C25.0668 71.4968 24.8326 70.9298 24.4156 70.5118C23.9987 70.0937 23.4332 69.8588 22.8435 69.8588Z" fill="#2F0908"/>
<path d="M127.697 71.4936C131.269 72.5934 134.885 71.0923 138.191 69.7994C141.641 68.4485 145.011 66.9003 148.285 65.1625C150.819 63.8249 148.581 59.9758 146.046 61.3133C143.216 62.8215 140.307 64.1759 137.331 65.3705C134.826 66.3663 131.625 68.0308 128.882 67.1986C126.14 66.3663 124.955 70.6614 127.697 71.4936Z" fill="#2F0908"/>
<path d="M49.8091 96.7287C49.708 96.4585 49.5497 96.2136 49.3449 96.0109C49.1402 95.8082 48.894 95.6524 48.6233 95.5545C48.3672 95.4072 48.073 95.3399 47.7784 95.3613L47.1855 95.4357C46.803 95.5389 46.4582 95.7504 46.1925 96.045L45.8367 96.4908C45.644 96.836 45.542 97.2247 45.5403 97.6203V98.9282C45.5212 99.228 45.5881 99.5272 45.733 99.7902C45.8233 100.063 45.9814 100.309 46.1925 100.504C46.3799 100.723 46.6271 100.883 46.9039 100.964C47.1687 101.103 47.4651 101.17 47.7636 101.157H48.3565C48.7249 101.047 49.0607 100.848 49.3348 100.578L49.6757 100.132C49.8794 99.7906 49.987 99.4003 49.9869 99.0025V97.5312C49.9872 97.2538 49.9264 96.9798 49.8091 96.7287Z" fill="#080606"/>
<path d="M52.8458 75.4018C52.7485 75.0303 52.5541 74.6917 52.2825 74.4209L51.3043 73.44C51.1066 73.2289 50.8632 73.0662 50.5928 72.9645C50.3262 72.8321 50.0302 72.7707 49.7331 72.7861C49.4359 72.7686 49.1393 72.8301 48.8734 72.9645C48.5992 73.0586 48.3541 73.2225 48.162 73.44L47.8062 73.8859C47.6097 74.2296 47.5075 74.6192 47.5098 75.0153V75.595C47.6102 75.9728 47.8098 76.3166 48.0879 76.5907L49.0661 77.5716C49.2591 77.7848 49.5044 77.9436 49.7776 78.0323C50.0449 78.164 50.3395 78.2302 50.6373 78.2255C50.9349 78.2291 51.2293 78.1629 51.497 78.0323C51.7667 77.9364 52.0103 77.7786 52.2084 77.5716L52.5493 77.1109C52.7547 76.7757 52.8625 76.3896 52.8606 75.9963L52.8458 75.4018Z" fill="#080606"/>
<path d="M35.9511 47.417C35.8465 47.0487 35.653 46.7118 35.3879 46.4361L34.3355 45.5147C34.1481 45.295 33.9008 45.1349 33.624 45.054C33.3593 44.9152 33.0628 44.8486 32.7643 44.8608C32.1814 44.892 31.6268 45.1228 31.1932 45.5147L30.8523 45.9606C30.6486 46.3019 30.541 46.6923 30.541 47.0901L30.63 47.6845C30.7346 48.0529 30.928 48.3898 31.1932 48.6654L32.1715 49.6463C32.3686 49.8617 32.6192 50.0207 32.8977 50.107C33.1539 50.2543 33.4481 50.3216 33.7426 50.3002C34.0417 50.3193 34.34 50.2523 34.6023 50.107C34.8808 50.0207 35.1315 49.8617 35.3286 49.6463L35.6695 49.2005C35.8687 48.8579 35.9712 48.4674 35.9659 48.0709L35.9511 47.417Z" fill="#080606"/>
<path d="M33.1463 85.2408C33.476 85.0367 33.7468 84.7498 33.9319 84.4085L34.5989 83.2047C34.7467 82.9563 34.8331 82.6761 34.8509 82.3873C34.9249 82.0998 34.9249 81.798 34.8509 81.5105C34.7854 81.2197 34.6418 80.9526 34.4358 80.7377C34.274 80.4932 34.0485 80.2979 33.7837 80.1729L33.2649 79.9649C32.8815 79.8607 32.4773 79.8607 32.0939 79.9649L31.5455 80.2027C31.2199 80.4071 30.954 80.6943 30.7748 81.035L30.093 82.2388C29.9498 82.4883 29.8685 82.7686 29.8558 83.0561C29.7746 83.3427 29.7746 83.6463 29.8558 83.9329C30.0371 84.4899 30.4101 84.9641 30.9082 85.2705L31.4418 85.4786C31.8202 85.5823 32.2195 85.5823 32.5979 85.4786L33.1463 85.2408Z" fill="#080606"/>
<path d="M119.693 47.2545C119.923 47.1118 120.112 46.9122 120.242 46.6749L120.716 45.8278C120.821 45.6526 120.877 45.4525 120.879 45.2482C120.93 45.0484 120.93 44.8387 120.879 44.6389C120.828 44.4376 120.726 44.2532 120.583 44.1038C120.468 43.9366 120.316 43.7991 120.138 43.7026L119.767 43.5539C119.5 43.4872 119.22 43.4872 118.952 43.5539L118.567 43.7323C118.337 43.8676 118.147 44.0627 118.018 44.297L117.559 45.159C117.366 45.5187 117.318 45.9391 117.425 46.3331C117.474 46.5365 117.57 46.7252 117.707 46.883C117.824 47.0496 117.983 47.1828 118.167 47.2694L118.537 47.418C118.799 47.4916 119.076 47.4916 119.337 47.418L119.693 47.2545Z" fill="#080606"/>
<path d="M121.486 79.9791C121.716 79.8364 121.904 79.6367 122.035 79.3995L122.509 78.5523C122.614 78.3772 122.67 78.1771 122.672 77.9728C122.723 77.773 122.723 77.5633 122.672 77.3634C122.621 77.1622 122.519 76.9778 122.375 76.8284C122.261 76.6612 122.109 76.5236 121.931 76.4271L121.56 76.2785C121.293 76.2118 121.013 76.2118 120.745 76.2785L120.36 76.4569C120.129 76.5922 119.94 76.7873 119.811 77.0216L119.337 77.8836C119.232 78.0533 119.175 78.2486 119.174 78.4483C119.122 78.6481 119.122 78.8579 119.174 79.0577C119.299 79.4497 119.563 79.7825 119.915 79.994L120.286 80.1426C120.552 80.219 120.834 80.219 121.101 80.1426L121.486 79.9791Z" fill="#080606"/>
<path d="M67.653 87.4983C67.6397 87.202 67.5475 86.9147 67.3862 86.6661C67.2518 86.4153 67.0585 86.2011 66.823 86.0419C66.6054 85.8513 66.3466 85.7139 66.0671 85.6406H65.4742C65.0794 85.6404 64.6912 85.7428 64.3477 85.9379L63.903 86.2945C63.6283 86.5654 63.429 86.9035 63.325 87.2754L62.9989 88.2563C62.9249 88.5489 62.9249 88.8554 62.9989 89.148C63.015 89.4438 63.1069 89.7304 63.2657 89.9802C63.4011 90.235 63.6003 90.4502 63.8438 90.6045C64.0572 90.801 64.3175 90.9392 64.5997 91.0057L65.1926 91.08C65.5827 91.0804 65.9661 90.978 66.3042 90.7828L66.7637 90.4261C67.0289 90.1504 67.2223 89.8136 67.327 89.4452C67.4455 89.1183 67.5493 88.7914 67.653 88.4644C67.7483 88.1495 67.7483 87.8133 67.653 87.4983Z" fill="#080606"/>
<path d="M91.206 94.7816L90.539 93.8155C90.403 93.5611 90.2039 93.3461 89.9609 93.1913C89.7433 93.0008 89.4845 92.8634 89.205 92.79C88.9132 92.7158 88.6075 92.7158 88.3157 92.79C88.0207 92.8062 87.7348 92.8984 87.4856 93.0575L87.041 93.4142C86.7604 93.6804 86.5601 94.0203 86.4629 94.3951V94.9896C86.4625 95.3807 86.5647 95.7652 86.7593 96.1042L87.4263 97.0851C87.5707 97.3334 87.7681 97.5466 88.0044 97.7093C88.222 97.8999 88.4808 98.0373 88.7603 98.1106C89.0511 98.1924 89.3588 98.1924 89.6497 98.1106C89.9423 98.0929 90.2266 98.0062 90.4797 97.8579L90.9244 97.5012C91.1991 97.2304 91.3984 96.8923 91.5024 96.5204V95.9259C91.5032 95.5252 91.4011 95.1312 91.206 94.7816Z" fill="#080606"/>
<path d="M112.253 92.0917C112.186 91.8088 112.049 91.5478 111.853 91.3337C111.699 91.0897 111.484 90.8899 111.23 90.7541L110.696 90.5312C110.308 90.4271 109.899 90.4271 109.511 90.5312L108.977 90.7541C108.649 90.9472 108.378 91.2241 108.191 91.5566L107.865 92.2105C107.704 92.4592 107.612 92.7465 107.599 93.0428C107.517 93.3293 107.517 93.6332 107.599 93.9197C107.665 94.2026 107.803 94.4636 107.999 94.6776C108.153 94.9217 108.367 95.1214 108.621 95.2572L109.155 95.4801C109.543 95.5842 109.952 95.5842 110.341 95.4801L110.874 95.2572C111.204 95.0608 111.479 94.7849 111.675 94.4547L112.001 93.8008C112.166 93.5547 112.253 93.2649 112.253 92.9685C112.334 92.6819 112.334 92.3783 112.253 92.0917Z" fill="#080606"/>
<path d="M105.555 72.6233L104.903 71.3155C104.779 71.0573 104.584 70.8406 104.34 70.6913C104.122 70.5007 103.863 70.3634 103.584 70.29C103.292 70.2158 102.986 70.2158 102.694 70.29C102.399 70.3035 102.112 70.3958 101.864 70.5575L101.42 70.8993C101.142 71.1734 100.942 71.5173 100.842 71.8951L100.768 72.4896C100.767 72.8807 100.869 73.2652 101.064 73.6042L101.716 74.9121C101.852 75.1665 102.051 75.3814 102.294 75.5362C102.501 75.7416 102.764 75.8811 103.05 75.9374C103.341 76.0185 103.649 76.0185 103.94 75.9374C104.235 75.9213 104.52 75.8291 104.77 75.6699L105.214 75.3282C105.479 75.0525 105.673 74.7157 105.777 74.3473L105.866 73.7528C105.869 73.3547 105.761 72.9637 105.555 72.6233Z" fill="#080606"/>
<path d="M60.2417 28.6617C60.1514 28.3887 59.9933 28.1431 59.7822 27.9483C59.5948 27.7286 59.3476 27.5685 59.0708 27.4876C58.806 27.3488 58.5096 27.2821 58.2111 27.2944L57.6182 27.3687C57.2498 27.479 56.914 27.678 56.6399 27.9483L56.299 28.3942C56.0953 28.7355 55.9877 29.1259 55.9878 29.5237V31.4854C55.9755 31.7847 56.042 32.082 56.1804 32.3474C56.2689 32.6213 56.4273 32.8673 56.6399 33.0608C56.8342 33.2724 57.0791 33.431 57.3514 33.5215C57.6143 33.6652 57.9121 33.7322 58.2111 33.7147L58.804 33.6404C59.1778 33.543 59.5168 33.3421 59.7822 33.0608L60.138 32.6149C60.3307 32.2697 60.4327 31.881 60.4344 31.4854V29.5237C60.4535 29.2238 60.3866 28.9247 60.2417 28.6617Z" fill="#080606"/>
<path d="M50.8898 46.273C50.7857 45.9011 50.5864 45.5629 50.3117 45.2921L49.0074 43.6573C48.8199 43.4376 48.5727 43.2775 48.2959 43.1966C48.0312 43.0578 47.7347 42.9911 47.4362 43.0034C47.1378 42.9925 46.8417 43.0591 46.5765 43.1966C46.3042 43.2871 46.0594 43.4457 45.8651 43.6573L45.5242 44.1031C45.3204 44.4445 45.2129 44.8349 45.2129 45.2326L45.3018 45.8271C45.4029 46.1969 45.5968 46.5347 45.8651 46.808L47.1694 48.4428C47.3637 48.6544 47.6086 48.813 47.8809 48.9035C48.1438 49.0473 48.4416 49.1142 48.7406 49.0967C49.0396 49.1158 49.3379 49.0488 49.6002 48.9035C49.877 48.8226 50.1243 48.6625 50.3117 48.4428L50.6674 47.997C50.862 47.6525 50.9642 47.2633 50.9639 46.8674L50.8898 46.273Z" fill="#080606"/>
<path d="M101.716 54.596C102.084 54.4784 102.415 54.2687 102.679 53.9868L104.251 52.6046C104.457 52.3997 104.606 52.1432 104.68 51.8615C104.815 51.5956 104.867 51.2953 104.829 50.9995C104.831 50.7024 104.754 50.4101 104.606 50.1524C104.503 49.8827 104.335 49.6428 104.117 49.4539L103.658 49.1269C103.307 48.9401 102.913 48.8527 102.516 48.8743L101.938 48.9783C101.571 49.0959 101.239 49.3057 100.975 49.5876L99.4037 50.9698C99.2002 51.1714 99.0522 51.4222 98.9738 51.698C98.8463 51.9717 98.7902 52.2735 98.8108 52.5749C98.8233 52.8719 98.9045 53.1619 99.048 53.422C99.1511 53.6917 99.3192 53.9316 99.5371 54.1205L99.9966 54.4475C100.35 54.627 100.742 54.7139 101.138 54.7001L101.716 54.596Z" fill="#080606"/>
<path d="M107.572 27.681C107.485 27.4062 107.326 27.1598 107.112 26.9677C106.918 26.756 106.673 26.5975 106.401 26.507C106.138 26.3617 105.84 26.2946 105.541 26.3137L104.948 26.3881C104.577 26.4924 104.24 26.6922 103.97 26.9677L103.614 27.4135C103.421 27.7588 103.319 28.1474 103.318 28.543V30.1778C103.299 30.4777 103.365 30.7768 103.51 31.0398C103.611 31.3075 103.768 31.5506 103.97 31.753C104.172 31.9554 104.414 32.1125 104.681 32.2139C104.944 32.3591 105.242 32.4262 105.541 32.4071L106.134 32.3328C106.505 32.2284 106.842 32.0286 107.112 31.7531L107.453 31.3073C107.657 30.966 107.764 30.5756 107.764 30.1778V28.543C107.776 28.2437 107.71 27.9465 107.572 27.681Z" fill="#080606"/>
<path d="M90.1818 37.8455C90.1664 37.5564 90.0798 37.2756 89.9298 37.0281C89.8 36.7701 89.606 36.5499 89.3666 36.3891C89.1502 36.1854 88.8845 36.042 88.5958 35.9729L88.0029 35.8986C87.6188 35.8935 87.2402 35.9909 86.9061 36.181L86.4466 36.5228C86.1589 36.7917 85.9532 37.137 85.8537 37.5186L85.4091 39.1088C85.335 39.3963 85.335 39.698 85.4091 39.9856C85.4268 40.2743 85.5132 40.5546 85.661 40.803C85.7923 41.0608 85.9924 41.2769 86.2391 41.4272C86.4534 41.6338 86.7199 41.7777 87.0098 41.8433L87.6027 41.9325C87.9879 41.931 88.3661 41.8286 88.6996 41.6353L89.1442 41.2935C89.432 41.0246 89.6376 40.6792 89.7371 40.2977L90.1818 38.7224C90.2552 38.4347 90.2552 38.1332 90.1818 37.8455Z" fill="#080606"/>
<path d="M70.0497 76.1822C71.7707 77.678 74.2641 78.3312 76.7676 78.3312C79.271 78.3312 81.1912 77.5501 82.8518 75.8085C84.1497 74.4473 82.209 72.4431 80.7762 73.7091C78.1184 75.6152 77.1994 75.3306 76.6042 75.3306C76.009 75.3306 73.7853 75.3306 72.1059 74.1185C70.6476 72.889 68.6351 74.9527 70.0497 76.1822Z" fill="#080606"/>
</svg>
